0
SECTION
2
HEADER
9
$INSUNITS
70
4
9
$ACADVER
1
AC1014
9
$HANDSEED
5
FFFF
0
ENDSEC
0
SECTION
2
TABLES
0
TABLE
2
VPORT
5
8
100
AcDbSymbolTable
0
ENDTAB
0
TABLE
2
LTYPE
5
5
100
AcDbSymbolTable
0
LTYPE
5
14
100
AcDbSymbolTableRecord
100
AcDbLinetypeTableRecord
2
BYBLOCK
70
0
0
LTYPE
5
15
100
AcDbSymbolTableRecord
100
AcDbLinetypeTableRecord
2
BYLAYER
70
0
0
ENDTAB
0
TABLE
2
LAYER
5
2
100
AcDbSymbolTable
70
2
0
LAYER
5
50
100
AcDbSymbolTableRecord
100
AcDbLayerTableRecord
2
0
70
0
6
CONTINUOUS
0
ENDTAB
0
TABLE
2
STYLE
5
3
100
AcDbSymbolTable
70
1
0
STYLE
5
11
100
AcDbSymbolTableRecord
100
AcDbTextStyleTableRecord
2
STANDARD
70
0
0
ENDTAB
0
TABLE
2
VIEW
5
6
100
AcDbSymbolTable
70
0
0
ENDTAB
0
TABLE
2
UCS
5
7
100
AcDbSymbolTable
70
0
0
ENDTAB
0
TABLE
2
APPID
5
9
100
AcDbSymbolTable
70
2
0
APPID
5
12
100
AcDbSymbolTableRecord
100
AcDbRegAppTableRecord
2
ACAD
70
0
0
ENDTAB
0
TABLE
2
DIMSTYLE
5
A
100
AcDbSymbolTable
70
1
0
ENDTAB
0
TABLE
2
BLOCK_RECORD
5
1
100
AcDbSymbolTable
70
1
0
BLOCK_RECORD
5
1F
100
AcDbSymbolTableRecord
100
AcDbBlockTableRecord
2
*MODEL_SPACE
0
BLOCK_RECORD
5
1B
100
AcDbSymbolTableRecord
100
AcDbBlockTableRecord
2
*PAPER_SPACE
0
ENDTAB
0
ENDSEC
0
SECTION
2
BLOCKS
0
BLOCK
5
20
100
AcDbEntity
100
AcDbBlockBegin
2
*MODEL_SPACE
0
ENDBLK
5
21
100
AcDbEntity
100
AcDbBlockEnd
0
BLOCK
5
1C
100
AcDbEntity
100
AcDbBlockBegin
2
*PAPER_SPACE
0
ENDBLK
5
1D
100
AcDbEntity
100
AcDbBlockEnd
0
ENDSEC
0
SECTION
2
ENTITIES
0
CIRCLE
5
100
100
AcDbEntity
8
0
100
AcDbCircle
10
-100.04000000000002
20
85.623000000000005
30
0
40
1.5000000000000036
210
0
220
0
230
1
0
CIRCLE
5
101
100
AcDbEntity
8
0
100
AcDbCircle
10
-107.91400000000002
20
85.623000000000005
30
0
40
1.5000000000000036
210
0
220
0
230
1
0
CIRCLE
5
102
100
AcDbEntity
8
0
100
AcDbCircle
10
-169.79900000000001
20
113.792
30
0
40
1.4999999999999991
210
0
220
-0
230
1
0
CIRCLE
5
103
100
AcDbEntity
8
0
100
AcDbCircle
10
-98.679000000000002
20
113.792
30
0
40
1.4999999999999991
210
0
220
-0
230
1
0
CIRCLE
5
104
100
AcDbEntity
8
0
100
AcDbCircle
10
-98.679000000000002
20
49.593500000000006
30
0
40
1.4999999999999991
210
0
220
-0
230
1
0
CIRCLE
5
105
100
AcDbEntity
8
0
100
AcDbCircle
10
-169.79900000000001
20
49.593500000000006
30
0
40
1.4999999999999991
210
0
220
-0
230
1
0
LWPOLYLINE
5
106
100
AcDbEntity
8
0
100
AcDbPolyline
90
14
70
1
43
0.0
10
-113.65349999999999
20
46.672499999999999
10
-113.65350000000001
20
83.787999999999982
42
0.41421356237309509
10
-116.70150000000001
20
86.835999999999984
10
-132.38550000000004
20
86.835999999999984
42
0.41421356237309509
10
-135.43350000000001
20
83.787999999999982
10
-135.43350000000001
20
46.672499999999999
10
-169.67200000000003
20
46.672500000000014
42
-0.4142135623730942
10
-172.72000000000003
20
49.720500000000001
10
-172.72000000000003
20
113.66500000000003
42
-0.41421356237309337
10
-169.67200000000003
20
116.71300000000002
10
-98.805999999999997
20
116.71300000000002
42
-0.41421356237309337
10
-95.75800000000001
20
113.66500000000002
10
-95.75800000000001
20
49.720500000000001
42
-0.41421356237309509
10
-98.806000000000012
20
46.672499999999992
0
LWPOLYLINE
5
107
100
AcDbEntity
8
0
100
AcDbPolyline
90
4
70
1
43
0.0
10
-175.55226722125369
20
76.255151841009436
10
-140.59800691825771
20
76.554274180186027
10
-140.37499877073529
20
50.494419006398317
10
-175.32925907373135
20
50.195296667221726
0
LINE
5
108
100
AcDbEntity
8
0
100
AcDbLine
10
-140.4104283373801
20
53.359159392810824
30
0
11
-140.88734030103001
21
53.289591458865324
31
0
0
SPLINE
5
109
100
AcDbEntity
8
0
100
AcDbSpline
70
0
71
2
72
6
73
3
74
0
42
0.000000001
43
0.0000000001
44
0.0000000001
40
0
40
0
40
0
40
1
40
1
40
1
10
-140.88734030103001
20
53.289591458865324
30
0
10
-140.91036171136346
20
53.747801352983011
30
0
10
-141.06460045397739
20
53.915655460123475
30
0
0
SPLINE
5
110
100
AcDbEntity
8
0
100
AcDbSpline
70
0
71
2
72
6
73
3
74
0
42
0.000000001
43
0.0000000001
44
0.0000000001
40
0
40
0
40
0
40
1
40
1
40
1
10
-141.06460045397739
20
53.915655460123475
30
0
10
-141.21883919659132
20
54.083509567263945
30
0
10
-141.48895211759401
20
54.081198066231693
30
0
0
SPLINE
5
111
100
AcDbEntity
8
0
100
AcDbSpline
70
0
71
2
72
6
73
3
74
0
42
0.000000001
43
0.0000000001
44
0.0000000001
40
0
40
0
40
0
40
1
40
1
40
1
10
-141.48895211759401
20
54.081198066231693
30
0
10
-141.68812626231704
20
54.079493626327746
30
0
10
-141.8319616178876
20
53.988218590691368
30
0
0
SPLINE
5
112
100
AcDbEntity
8
0
100
AcDbSpline
70
0
71
2
72
6
73
3
74
0
42
0.000000001
43
0.0000000001
44
0.0000000001
40
0
40
0
40
0
40
1
40
1
40
1
10
-141.8319616178876
20
53.988218590691368
30
0
10
-141.97577362590957
20
53.894215252337297
30
0
10
-142.02901104898027
20
53.738228471060012
30
0
0
SPLINE
5
113
100
AcDbEntity
8
0
100
AcDbSpline
70
0
71
2
72
6
73
3
74
0
42
0.000000001
43
0.0000000001
44
0.0000000001
40
0
40
0
40
0
40
1
40
1
40
1
10
-142.02901104898027
20
53.738228471060012
30
0
10
-142.08222512705262
20
53.579513685077352
30
0
10
-142.07928321606832
20
53.235733536071109
30
0
0
LINE
5
114
100
AcDbEntity
8
0
100
AcDbLine
10
-142.07928321606832
20
53.235733536071109
30
0
11
-142.05570123819732
21
50.480036334610425
31
0
0
LINE
5
115
100
AcDbEntity
8
0
100
AcDbLine
10
-142.05570123819732
20
50.480036334610425
30
0
11
-142.58501342231352
21
50.475506726565655
31
0
0
LINE
5
116
100
AcDbEntity
8
0
100
AcDbLine
10
-142.58501342231355
20
50.475506726565655
30
0
11
-142.60833856694907
21
53.201191406082621
31
0
0
SPLINE
5
117
100
AcDbEntity
8
0
100
AcDbSpline
70
0
71
2
72
6
73
3
74
0
42
0.000000001
43
0.0000000001
44
0.0000000001
40
0
40
0
40
0
40
1
40
1
40
1
10
-142.60833856694904
20
53.201191406082621
30
0
10
-142.6126346893069
20
53.703219370972811
30
0
10
-142.49221420011929
20
53.97983995296714
30
0
0
SPLINE
5
118
100
AcDbEntity
8
0
100
AcDbSpline
70
0
71
2
72
6
73
3
74
0
42
0.000000001
43
0.0000000001
44
0.0000000001
40
0
40
0
40
0
40
1
40
1
40
1
10
-142.49221420011929
20
53.97983995296714
30
0
10
-142.37452230911143
20
54.256436886850317
30
0
10
-142.11110368813365
20
54.403307695155938
30
0
0
SPLINE
5
119
100
AcDbEntity
8
0
100
AcDbSpline
70
0
71
2
72
6
73
3
74
0
42
0.000000001
43
0.0000000001
44
0.0000000001
40
0
40
0
40
0
40
1
40
1
40
1
10
-142.11110368813365
20
54.403307695155938
30
0
10
-141.8504135163295
20
54.550154856625532
30
0
10
-141.49571978393712
20
54.553190160992003
30
0
0
SPLINE
5
120
100
AcDbEntity
8
0
100
AcDbSpline
70
0
71
2
72
6
73
3
74
0
42
0.000000001
43
0.0000000001
44
0.0000000001
40
0
40
0
40
0
40
1
40
1
40
1
10
-141.49571978393712
20
54.553190160992003
30
0
10
-140.96913605154475
20
54.557696420213063
30
0
10
-140.68551782745047
20
54.257247494779094
30
0
0
SPLINE
5
121
100
AcDbEntity
8
0
100
AcDbSpline
70
0
71
2
72
6
73
3
74
0
42
0.000000001
43
0.0000000001
44
0.0000000001
40
0
40
0
40
0
40
1
40
1
40
1
10
-140.68551782745047
20
54.257247494779094
30
0
10
-140.40462801782849
20
53.9567752208402
30
0
10
-140.4104283373801
20
53.359159392810824
30
0
0
LINE
5
122
100
AcDbEntity
8
0
100
AcDbLine
10
-146.32606784220687
20
53.041132119361158
30
0
11
-146.85652410210858
21
53.17029470870429
31
0
0
SPLINE
5
123
100
AcDbEntity
8
0
100
AcDbSpline
70
0
71
2
72
6
73
3
74
0
42
0.000000001
43
0.0000000001
44
0.0000000001
40
0
40
0
40
0
40
1
40
1
40
1
10
-146.85652410210855
20
53.170294708704276
30
0
10
-146.69567107058236
20
53.823809542432912
30
0
10
-146.26479526672927
20
54.171302102129964
30
0
0
SPLINE
5
124
100
AcDbEntity
8
0
100
AcDbSpline
70
0
71
2
72
6
73
3
74
0
42
0.000000001
43
0.0000000001
44
0.0000000001
40
0
40
0
40
0
40
1
40
1
40
1
10
-146.26479526672927
20
54.171302102129964
30
0
10
-145.83662471350729
20
54.516042710998192
30
0
10
-145.21181806011222
20
54.521389516396923
30
0
0
SPLINE
5
125
100
AcDbEntity
8
0
100
AcDbSpline
70
0
71
2
72
6
73
3
74
0
42
0.000000001
43
0.0000000001
44
0.0000000001
40
0
40
0
40
0
40
1
40
1
40
1
10
-145.21181806011222
20
54.521389516396923
30
0
10
-144.56518438895111
20
54.52692310728488
30
0
10
-144.15640943941622
20
54.268474540960661
30
0
0
SPLINE
5
126
100
AcDbEntity
8
0
100
AcDbSpline
70
0
71
2
72
6
73
3
74
0
42
0.000000001
43
0.0000000001
44
0.0000000001
40
0
40
0
40
0
40
1
40
1
40
1
10
-144.15640943941622
20
54.268474540960661
30
0
10
-143.75033944250015
20
54.007274026357848
30
0
10
-143.53325041335484
20
53.509795546932736
30
0
0
SPLINE
5
127
100
AcDbEntity
8
0
100
AcDbSpline
70
0
71
2
72
6
73
3
74
0
42
0.000000001
43
0.0000000001
44
0.0000000001
40
0
40
0
40
0
40
1
40
1
40
1
10
-143.53325041335484
20
53.509795546932736
30
0
10
-143.31888968692724
20
53.012293719959025
30
0
10
-143.31398650535374
20
52.439327202298372
30
0
0
SPLINE
5
128
100
AcDbEntity
8
0
100
AcDbSpline
70
0
71
2
72
6
73
3
74
0
42
0.000000001
43
0.0000000001
44
0.0000000001
40
0
40
0
40
0
40
1
40
1
40
1
10
-143.31398650535374
20
52.439327202298372
30
0
10
-143.30863969995502
20
51.814520548903317
30
0
10
-143.5420426268731
20
51.348658991236469
30
0
0
SPLINE
5
129
100
AcDbEntity
8
0
100
AcDbSpline
70
0
71
2
72
6
73
3
74
0
42
0.000000001
43
0.0000000001
44
0.0000000001
40
0
40
0
40
0
40
1
40
1
40
1
10
-143.5420426268731
20
51.348658991236469
30
0
10
-143.77815020839768
20
50.880045487841301
30
0
10
-144.2153701607987
20
50.636186203953301
30
0
0
SPLINE
5
130
100
AcDbEntity
8
0
100
AcDbSpline
70
0
71
2
72
6
73
3
74
0
42
0.000000001
43
0.0000000001
44
0.0000000001
40
0
40
0
40
0
40
1
40
1
40
1
10
-144.2153701607987
20
50.636186203953301
30
0
10
-144.65529476780623
20
50.389574974336959
30
0
10
-145.18460695192246
20
50.385045366292189
30
0
0
SPLINE
5
131
100
AcDbEntity
8
0
100
AcDbSpline
70
0
71
2
72
6
73
3
74
0
42
0.000000001
43
0.0000000001
44
0.0000000001
40
0
40
0
40
0
40
1
40
1
40
1
10
-145.18460695192246
20
50.385045366292189
30
0
10
-145.78485798682146
20
50.379908696481536
30
0
10
-146.19673451714073
20
50.681988549364156
30
0
0
SPLINE
5
132
100
AcDbEntity
8
0
100
AcDbSpline
70
0
71
2
72
6
73
3
74
0
42
0.000000001
43
0.0000000001
44
0.0000000001
40
0
40
0
40
0
40
1
40
1
40
1
10
-146.19673451714073
20
50.681988549364156
30
0
10
-146.60861224205945
20
50.984068690058081
30
0
10
-146.77432810429391
20
51.536558933748211
30
0
0
LINE
5
133
100
AcDbEntity
8
0
100
AcDbLine
10
-146.77432810429391
20
51.536558933748211
30
0
11
-146.2542518093839
21
51.663797185101821
31
0
0
SPLINE
5
134
100
AcDbEntity
8
0
100
AcDbSpline
70
0
71
2
72
6
73
3
74
0
42
0.000000001
43
0.0000000001
44
0.0000000001
40
0
40
0
40
0
40
1
40
1
40
1
10
-146.2542518093839
20
51.663797185101828
30
0
10
-146.11136694775868
20
51.228441642967361
30
0
10
-145.84500671380894
20
51.031532299716488
30
0
0
SPLINE
5
135
100
AcDbEntity
8
0
100
AcDbSpline
70
0
71
2
72
6
73
3
74
0
42
0.000000001
43
0.0000000001
44
0.0000000001
40
0
40
0
40
0
40
1
40
1
40
1
10
-145.84500671380894
20
51.031532299716488
30
0
10
-145.57864588383458
20
50.834622961566119
30
0
10
-145.17756929167089
20
50.838055188922581
30
0
0
SPLINE
5
136
100
AcDbEntity
8
0
100
AcDbSpline
70
0
71
2
72
6
73
3
74
0
42
0.000000001
43
0.0000000001
44
0.0000000001
40
0
40
0
40
0
40
1
40
1
40
1
10
-145.17756929167089
20
50.838055188922581
30
0
10
-144.71646765561974
20
50.842001082750066
30
0
10
-144.40731985723065
20
51.065664270901379
30
0
0
SPLINE
5
137
100
AcDbEntity
8
0
100
AcDbSpline
70
0
71
2
72
6
73
3
74
0
42
0.000000001
43
0.0000000001
44
0.0000000001
40
0
40
0
40
0
40
1
40
1
40
1
10
-144.40731985723065
20
51.065664270901379
30
0
10
-144.1009000635469
20
51.28930411405436
30
0
10
-143.97859211455648
20
51.664170813043533
30
0
0
SPLINE
5
138
100
AcDbEntity
8
0
100
AcDbSpline
70
0
71
2
72
6
73
3
74
0
42
0.000000001
43
0.0000000001
44
0.0000000001
40
0
40
0
40
0
40
1
40
1
40
1
10
-143.97859211455648
20
51.664170813043533
30
0
10
-143.85626022199281
20
52.036309214415539
30
0
10
-143.85964575425209
20
52.431929201143873
30
0
0
SPLINE
5
139
100
AcDbEntity
8
0
100
AcDbSpline
70
0
71
2
72
6
73
3
74
0
42
0.000000001
43
0.0000000001
44
0.0000000001
40
0
40
0
40
0
40
1
40
1
40
1
10
-143.85964575425209
20
52.431929201143873
30
0
10
-143.86401192180597
20
52.942142372199406
30
0
10
-144.01461501567246
20
53.322859132673472
30
0
0
SPLINE
5
140
100
AcDbEntity
8
0
100
AcDbSpline
70
0
71
2
72
6
73
3
74
0
42
0.000000001
43
0.0000000001
44
0.0000000001
40
0
40
0
40
0
40
1
40
1
40
1
10
-144.01461501567246
20
53.322859132673472
30
0
10
-144.16792336527061
20
53.700824538343312
30
0
10
-144.48330203694218
20
53.88639979842219
30
0
0
SPLINE
5
141
100
AcDbEntity
8
0
100
AcDbSpline
70
0
71
2
72
6
73
3
74
0
42
0.000000001
43
0.0000000001
44
0.0000000001
40
0
40
0
40
0
40
1
40
1
40
1
10
-144.48330203694218
20
53.88639979842219
30
0
10
-144.79868041315174
20
54.071975359063629
30
0
10
-145.16428757992404
20
54.068846662590104
30
0
0
SPLINE
5
142
100
AcDbEntity
8
0
100
AcDbSpline
70
0
71
2
72
6
73
3
74
0
42
0.000000001
43
0.0000000001
44
0.0000000001
40
0
40
0
40
0
40
1
40
1
40
1
10
-145.16428757992404
20
54.068846662590104
30
0
10
-145.60901910165677
20
54.065040856604426
30
0
10
-145.91513476843295
20
53.805931593160558
30
0
0
SPLINE
5
143
100
AcDbEntity
8
0
100
AcDbSpline
70
0
71
2
72
6
73
3
74
0
42
0.000000001
43
0.0000000001
44
0.0000000001
40
0
40
0
40
0
40
1
40
1
40
1
10
-145.91513476843295
20
53.805931593160558
30
0
10
-146.22125043520913
20
53.54682232971669
30
0
10
-146.32606784220687
20
53.041132119361158
30
0
0
LINE
5
144
100
AcDbEntity
8
0
100
AcDbLine
10
-149.07193855440045
20
54.420141151306254
30
0
11
-149.03770966337939
21
50.420287546503118
31
0
0
LINE
5
145
100
AcDbEntity
8
0
100
AcDbLine
10
-149.03770966337942
20
50.420287546503118
30
0
11
-150.54652215877996
21
50.407375829330704
31
0
0
SPLINE
5
146
100
AcDbEntity
8
0
100
AcDbSpline
70
0
71
2
72
6
73
3
74
0
42
0.000000001
43
0.0000000001
44
0.0000000001
40
0
40
0
40
0
40
1
40
1
40
1
10
-150.54652215877996
20
50.407375829330718
30
0
10
-150.94487044822597
20
50.40396694952284
30
0
10
-151.15528528082609
20
50.44036714044541
30
0
0
SPLINE
5
147
100
AcDbEntity
8
0
100
AcDbSpline
70
0
71
2
72
6
73
3
74
0
42
0.000000001
43
0.0000000001
44
0.0000000001
40
0
40
0
40
0
40
1
40
1
40
1
10
-151.15528528082609
20
50.44036714044541
30
0
10
-151.45037416600411
20
50.486956740179622
30
0
10
-151.65073848813537
20
50.624401406211746
30
0
0
SPLINE
5
148
100
AcDbEntity
8
0
100
AcDbSpline
70
0
71
2
72
6
73
3
74
0
42
0.000000001
43
0.0000000001
44
0.0000000001
40
0
40
0
40
0
40
1
40
1
40
1
10
-151.65073848813537
20
50.624401406211746
30
0
10
-151.85108065476734
20
50.759117759325193
30
0
10
-151.9732554536223
20
51.006375808098269
30
0
0
SPLINE
5
149
100
AcDbEntity
8
0
100
AcDbSpline
70
0
71
2
72
6
73
3
74
0
42
0.000000001
43
0.0000000001
44
0.0000000001
40
0
40
0
40
0
40
1
40
1
40
1
10
-151.9732554536223
20
51.006375808098269
30
0
10
-152.09815885575753
20
51.253610804784813
30
0
10
-152.10070384056399
20
51.551007721504327
30
0
0
SPLINE
5
150
100
AcDbEntity
8
0
100
AcDbSpline
70
0
71
2
72
6
73
3
74
0
42
0.000000001
43
0.0000000001
44
0.0000000001
40
0
40
0
40
0
40
1
40
1
40
1
10
-152.10070384056399
20
51.551007721504327
30
0
10
-152.10507000811788
20
52.061220892559874
30
0
10
-151.78342447391356
20
52.418693018392297
30
0
0
SPLINE
5
151
100
AcDbEntity
8
0
100
AcDbSpline
70
0
71
2
72
6
73
3
74
0
42
0.000000001
43
0.0000000001
44
0.0000000001
40
0
40
0
40
0
40
1
40
1
40
1
10
-151.78342447391356
20
52.418693018392297
30
0
10
-151.46175440266163
20
52.773437149720351
30
0
10
-150.61321798604752
20
52.78069853061109
30
0
0
LINE
5
152
100
AcDbEntity
8
0
100
AcDbLine
10
-150.61321798604752
20
52.78069853061109
30
0
11
-149.58733503850107
21
52.789477560816032
31
0
0
LINE
5
153
100
AcDbEntity
8
0
100
AcDbLine
10
-149.5873350385011
20
52.789477560816032
30
0
11
-149.60125073851668
21
54.415611543261477
31
0
0
LINE
5
154
100
AcDbEntity
8
0
100
AcDbLine
10
-149.60125073851668
20
54.415611543261484
30
0
11
-149.07193855440045
21
54.420141151306254
31
0
0
LINE
5
155
100
AcDbEntity
8
0
100
AcDbLine
10
-149.58329574682847
20
52.317461819857257
30
0
11
-150.6173644965649
21
52.30861273935578
31
0
0
SPLINE
5
156
100
AcDbEntity
8
0
100
AcDbSpline
70
0
71
2
72
6
73
3
74
0
42
0.000000001
43
0.0000000001
44
0.0000000001
40
0
40
0
40
0
40
1
40
1
40
1
10
-150.6173644965649
20
52.30861273935578
30
0
10
-151.13030567232579
20
52.304223226803558
30
0
10
-151.34421643069624
20
52.111389752849419
30
0
0
SPLINE
5
157
100
AcDbEntity
8
0
100
AcDbSpline
70
0
71
2
72
6
73
3
74
0
42
0.000000001
43
0.0000000001
44
0.0000000001
40
0
40
0
40
0
40
1
40
1
40
1
10
-151.34421643069624
20
52.111389752849419
30
0
10
-151.55812599701738
20
51.91855628909628
30
0
10
-151.55516074103477
20
51.572048135384662
30
0
0
SPLINE
5
158
100
AcDbEntity
8
0
100
AcDbSpline
70
0
71
2
72
6
73
3
74
0
42
0.000000001
43
0.0000000001
44
0.0000000001
40
0
40
0
40
0
40
1
40
1
40
1
10
-151.55516074103477
20
51.572048135384662
30
0
10
-151.55301267985581
20
51.321034152939561
30
0
10
-151.42326032752553
20
51.144784399020168
30
0
0
SPLINE
5
159
100
AcDbEntity
8
0
100
AcDbSpline
70
0
71
2
72
6
73
3
74
0
42
0.000000001
43
0.0000000001
44
0.0000000001
40
0
40
0
40
0
40
1
40
1
40
1
10
-151.42326032752553
20
51.144784399020168
30
0
10
-151.29621203887763
20
50.965783300497577
30
0
10
-151.08836236906683
20
50.91026104442777
30
0
0
SPLINE
5
160
100
AcDbEntity
8
0
100
AcDbSpline
70
0
71
2
72
6
73
3
74
0
42
0.000000001
43
0.0000000001
44
0.0000000001
40
0
40
0
40
0
40
1
40
1
40
1
10
-151.08836236906683
20
50.91026104442777
30
0
10
-150.95436693880831
20
50.875935692271625
30
0
10
-150.59421548343443
20
50.879017701298721
30
0
0
LINE
5
161
100
AcDbEntity
8
0
100
AcDbLine
10
-150.59421548343443
20
50.879017701298721
30
0
11
-149.57106113661797
21
50.88777338140482
31
0
0
LINE
5
162
100
AcDbEntity
8
0
100
AcDbLine
10
-149.57106113661797
20
50.88777338140482
30
0
11
-149.58329574682847
21
52.317461819857257
31
0
0
LINE
5
163
100
AcDbEntity
8
0
100
AcDbLine
10
-152.8071366631701
20
54.388177059207088
30
0
11
-152.77290777214904
21
50.38832345440396
31
0
0
LINE
5
164
100
AcDbEntity
8
0
100
AcDbLine
10
-152.77290777214904
20
50.38832345440396
30
0
11
-154.54637546557078
21
50.373146940859918
31
0
0
SPLINE
5
165
100
AcDbEntity
8
0
100
AcDbSpline
70
0
71
2
72
6
73
3
74
0
42
0.000000001
43
0.0000000001
44
0.0000000001
40
0
40
0
40
0
40
1
40
1
40
1
10
-154.54637546557078
20
50.373146940859918
30
0
10
-155.08114544717162
20
50.368570627516959
30
0
10
-155.36037758904018
20
50.475325659542953
30
0
0
SPLINE
5
166
100
AcDbEntity
8
0
100
AcDbSpline
70
0
71
2
72
6
73
3
74
0
42
0.000000001
43
0.0000000001
44
0.0000000001
40
0
40
0
40
0
40
1
40
1
40
1
10
-155.36037758904018
20
50.475325659542953
30
0
10
-155.63958638336013
20
50.579352388851284
30
0
10
-155.80835395661552
20
50.850769433055412
30
0
0
SPLINE
5
167
100
AcDbEntity
8
0
100
AcDbSpline
70
0
71
2
72
6
73
3
74
0
42
0.000000001
43
0.0000000001
44
0.0000000001
40
0
40
0
40
0
40
1
40
1
40
1
10
-155.80835395661552
20
50.850769433055412
30
0
10
-155.97712152987091
20
51.12218647725954
30
0
10
-155.97994669546151
20
51.452324218640449
30
0
0
SPLINE
5
168
100
AcDbEntity
8
0
100
AcDbSpline
70
0
71
2
72
6
73
3
74
0
42
0.000000001
43
0.0000000001
44
0.0000000001
40
0
40
0
40
0
40
1
40
1
40
1
10
-155.97994669546151
20
51.452324218640449
30
0
10
-155.98358906095629
20
51.877956727312508
30
0
10
-155.71051774972446
20
52.172255235363664
30
0
0
SPLINE
5
169
100
AcDbEntity
8
0
100
AcDbSpline
70
0
71
2
72
6
73
3
74
0
42
0.000000001
43
0.0000000001
44
0.0000000001
40
0
40
0
40
0
40
1
40
1
40
1
10
-155.71051774972446
20
52.172255235363664
30
0
10
-155.43744643594235
20
52.466553445402511
30
0
10
-154.8624281265013
20
52.550604036573212
30
0
0
SPLINE
5
170
100
AcDbEntity
8
0
100
AcDbSpline
70
0
71
2
72
6
73
3
74
0
42
0.000000001
43
0.0000000001
44
0.0000000001
40
0
40
0
40
0
40
1
40
1
40
1
10
-154.8624281265013
20
52.550604036573212
30
0
10
-155.07337997312104
20
52.64975757410091
30
0
10
-155.18335739492775
20
52.747046403349749
30
0
0
SPLINE
5
171
100
AcDbEntity
8
0
100
AcDbSpline
70
0
71
2
72
6
73
3
74
0
42
0.000000001
43
0.0000000001
44
0.0000000001
40
0
40
0
40
0
40
1
40
1
40
1
10
-155.18335739492775
20
52.747046403349749
30
0
10
-155.41709295103493
20
52.957878042098244
30
0
10
-155.62718407476925
20
53.275327789496167
30
0
0
LINE
5
172
100
AcDbEntity
8
0
100
AcDbLine
10
-155.62718407476925
20
53.275327789496167
30
0
11
-156.33224562827215
21
54.358010812507736
31
0
0
LINE
5
173
100
AcDbEntity
8
0
100
AcDbLine
10
-156.33224562827212
20
54.358010812507736
30
0
11
-155.66651354007493
21
54.363707838786084
31
0
0
LINE
5
174
100
AcDbEntity
8
0
100
AcDbLine
10
-155.66651354007496
20
54.363707838786084
30
0
11
-155.1300794694354
21
53.536071447647942
31
0
0
SPLINE
5
175
100
AcDbEntity
8
0
100
AcDbSpline
70
0
71
2
72
6
73
3
74
0
42
0.000000001
43
0.0000000001
44
0.0000000001
40
0
40
0
40
0
40
1
40
1
40
1
10
-155.1300794694354
20
53.536071447647942
30
0
10
-154.89508309469929
20
53.177905501898536
30
0
10
-154.74338519878609
20
52.988201035181476
30
0
0
SPLINE
5
176
100
AcDbEntity
8
0
100
AcDbSpline
70
0
71
2
72
6
73
3
74
0
42
0.000000001
43
0.0000000001
44
0.0000000001
40
0
40
0
40
0
40
1
40
1
40
1
10
-154.74338519878609
20
52.988201035181476
30
0
10
-154.5916884923719
20
52.798496260251113
30
0
10
-154.47098464518371
20
52.723127838962689
30
0
0
SPLINE
5
177
100
AcDbEntity
8
0
100
AcDbSpline
70
0
71
2
72
6
73
3
74
0
42
0.000000001
43
0.0000000001
44
0.0000000001
40
0
40
0
40
0
40
1
40
1
40
1
10
-154.47098464518371
20
52.723127838962689
30
0
10
-154.3530093987255
20
52.64773606757543
30
0
10
-154.22997387953538
20
52.618774526684895
30
0
0
SPLINE
5
178
100
AcDbEntity
8
0
100
AcDbSpline
70
0
71
2
72
6
73
3
74
0
42
0.000000001
43
0.0000000001
44
0.0000000001
40
0
40
0
40
0
40
1
40
1
40
1
10
-154.22997387953538
20
52.618774526684895
30
0
10
-154.13977257520102
20
52.600446015880983
30
0
10
-153.93514182504265
20
52.602197150882105
30
0
0
LINE
5
179
100
AcDbEntity
8
0
100
AcDbLine
10
-153.93514182504265
20
52.602197150882105
30
0
11
-153.32124838251832
21
52.60745056608647
31
0
0
LINE
5
180
100
AcDbEntity
8
0
100
AcDbLine
10
-153.32124838251832
20
52.60745056608647
30
0
11
-153.33644825126169
21
54.383647456262821
31
0
0
LINE
5
181
100
AcDbEntity
8
0
100
AcDbLine
10
-153.33644825126169
20
54.383647456262821
30
0
11
-152.8071366631701
21
54.388177059207095
31
0
0
LINE
5
182
100
AcDbEntity
8
0
100
AcDbLine
10
-153.31732583623943
20
52.149077232753015
30
0
11
-154.45507485744463
21
52.139340904601063
31
0
0
SPLINE
5
183
100
AcDbEntity
8
0
100
AcDbSpline
70
0
71
2
72
6
73
3
74
0
42
0.000000001
43
0.0000000001
44
0.0000000001
40
0
40
0
40
0
40
1
40
1
40
1
10
-154.45507485744463
20
52.139340904601063
30
0
10
-154.81795372149924
20
52.136235555676123
30
0
10
-155.02195406234313
20
52.060817267174542
30
0
0
SPLINE
5
184
100
AcDbEntity
8
0
100
AcDbSpline
70
0
71
2
72
6
73
3
74
0
42
0.000000001
43
0.0000000001
44
0.0000000001
40
0
40
0
40
0
40
1
40
1
40
1
10
-155.02195406234313
20
52.060817267174542
30
0
10
-155.2259310530882
20
51.982670377942981
30
0
10
-155.33093842024135
20
51.81805506596254
30
0
0
SPLINE
5
185
100
AcDbEntity
8
0
100
AcDbSpline
70
0
71
2
72
6
73
3
74
0
42
0.000000001
43
0.0000000001
44
0.0000000001
40
0
40
0
40
0
40
1
40
1
40
1
10
-155.33093842024135
20
51.81805506596254
30
0
10
-155.43592243984594
20
51.650711451264414
30
0
10
-155.43426469503919
20
51.456993911976774
30
0
0
SPLINE
5
186
100
AcDbEntity
8
0
100
AcDbSpline
70
0
71
2
72
6
73
3
74
0
42
0.000000001
43
0.0000000001
44
0.0000000001
40
0
40
0
40
0
40
1
40
1
40
1
10
-155.43426469503919
20
51.456993911976774
30
0
10
-155.43183645307616
20
51.173239104870277
30
0
10
-155.22291275267594
20
50.992209857577933
30
0
0
SPLINE
5
187
100
AcDbEntity
8
0
100
AcDbSpline
70
0
71
2
72
6
73
3
74
0
42
0.000000001
43
0.0000000001
44
0.0000000001
40
0
40
0
40
0
40
1
40
1
40
1
10
-155.22291275267594
20
50.992209857577933
30
0
10
-155.01671646095642
20
50.811157270387746
30
0
10
-154.5719855352483
20
50.814963071272928
30
0
0
LINE
5
188
100
AcDbEntity
8
0
100
AcDbLine
10
-154.5719855352483
20
50.814963071272928
30
0
11
-153.30600181612749
21
50.825796772462439
31
0
0
LINE
5
189
100
AcDbEntity
8
0
100
AcDbLine
10
-153.30600181612749
20
50.825796772462439
30
0
11
-153.31732583623941
21
52.149077232753015
31
0
0
SPLINE
5
190
100
AcDbEntity
8
0
100
AcDbSpline
70
0
71
2
72
6
73
3
74
0
42
0.000000001
43
0.0000000001
44
0.0000000001
40
0
40
0
40
0
40
1
40
1
40
1
10
-156.6566272476249
20
52.407005428298206
30
0
10
-156.64810504555498
20
51.411134406670868
30
0
10
-157.17806404627771
20
50.844505094751284
30
0
0
SPLINE
5
191
100
AcDbEntity
8
0
100
AcDbSpline
70
0
71
2
72
6
73
3
74
0
42
0.000000001
43
0.0000000001
44
0.0000000001
40
0
40
0
40
0
40
1
40
1
40
1
10
-157.17806404627771
20
50.844505094751284
30
0
10
-157.70799969690157
20
50.275147182101705
30
0
10
-158.55380751278571
20
50.267909151309809
30
0
0
SPLINE
5
192
100
AcDbEntity
8
0
100
AcDbSpline
70
0
71
2
72
6
73
3
74
0
42
0.000000001
43
0.0000000001
44
0.0000000001
40
0
40
0
40
0
40
1
40
1
40
1
10
-158.55380751278571
20
50.267909151309809
30
0
10
-159.10767531539796
20
50.263169407676962
30
0
10
-159.55467223717773
20
50.524019688648892
30
0
0
SPLINE
5
193
100
AcDbEntity
8
0
100
AcDbSpline
70
0
71
2
72
6
73
3
74
0
42
0.000000001
43
0.0000000001
44
0.0000000001
40
0
40
0
40
0
40
1
40
1
40
1
10
-159.55467223717773
20
50.524019688648892
30
0
10
-160.00166796690823
20
50.784869979821828
30
0
10
-160.23764617153844
20
51.257629397709749
30
0
0
SPLINE
5
194
100
AcDbEntity
8
0
100
AcDbSpline
70
0
71
2
72
6
73
3
74
0
42
0.000000001
43
0.0000000001
44
0.0000000001
40
0
40
0
40
0
40
1
40
1
40
1
10
-160.23764617153844
20
51.257629397709749
30
0
10
-160.47632843475057
20
51.727636874969846
30
0
10
-160.48146510201096
20
52.327887611856539
30
0
0
SPLINE
5
195
100
AcDbEntity
8
0
100
AcDbSpline
70
0
71
2
72
6
73
3
74
0
42
0.000000001
43
0.0000000001
44
0.0000000001
40
0
40
0
40
0
40
1
40
1
40
1
10
-160.48146510201096
20
52.327887611856539
30
0
10
-160.48667181701768
20
52.936323852920907
30
0
10
-160.24522377432629
20
53.418625868114461
30
0
0
SPLINE
5
196
100
AcDbEntity
8
0
100
AcDbSpline
70
0
71
2
72
6
73
3
74
0
42
0.000000001
43
0.0000000001
44
0.0000000001
40
0
40
0
40
0
40
1
40
1
40
1
10
-160.24522377432629
20
53.418625868114461
30
0
10
-160.00377573163493
20
53.900927883308036
30
0
10
-159.5557135101464
20
54.153066053917307
30
0
0
SPLINE
5
197
100
AcDbEntity
8
0
100
AcDbSpline
70
0
71
2
72
6
73
3
74
0
42
0.000000001
43
0.0000000001
44
0.0000000001
40
0
40
0
40
0
40
1
40
1
40
1
10
-159.5557135101464
20
54.153066053917307
30
0
10
-159.10762555446055
20
54.402475644198603
30
0
10
-158.58649976855892
20
54.406935196846348
30
0
0
SPLINE
5
198
100
AcDbEntity
8
0
100
AcDbSpline
70
0
71
2
72
6
73
3
74
0
42
0.000000001
43
0.0000000001
44
0.0000000001
40
0
40
0
40
0
40
1
40
1
40
1
10
-158.58649976855892
20
54.406935196846348
30
0
10
-158.02171756302667
20
54.411768340874566
30
0
10
-157.57465178810014
20
54.14273284353628
30
0
0
SPLINE
5
199
100
AcDbEntity
8
0
100
AcDbSpline
70
0
71
2
72
6
73
3
74
0
42
0.000000001
43
0.0000000001
44
0.0000000001
40
0
40
0
40
0
40
1
40
1
40
1
10
-157.57465178810014
20
54.14273284353628
30
0
10
-157.12758482112437
20
53.873697356398999
30
0
10
-156.89435975937224
20
53.403643178941216
30
0
0
SPLINE
5
200
100
AcDbEntity
8
0
100
AcDbSpline
70
0
71
2
72
6
73
3
74
0
42
0.000000001
43
0.0000000001
44
0.0000000001
40
0
40
0
40
0
40
1
40
1
40
1
10
-156.89435975937224
20
53.403643178941216
30
0
10
-156.66113350557086
20
52.933589011684447
30
0
10
-156.6566272476249
20
52.407005428298206
30
0
0
SPLINE
5
201
100
AcDbEntity
8
0
100
AcDbSpline
70
0
71
2
72
6
73
3
74
0
42
0.000000001
43
0.0000000001
44
0.0000000001
40
0
40
0
40
0
40
1
40
1
40
1
10
-157.20237929324324
20
52.410520941127238
30
0
10
-157.20856664354451
20
53.133550366518804
30
0
10
-157.59957403986834
20
53.547681881399683
30
0
0
SPLINE
5
202
100
AcDbEntity
8
0
100
AcDbSpline
70
0
71
2
72
6
73
3
74
0
42
0.000000001
43
0.0000000001
44
0.0000000001
40
0
40
0
40
0
40
1
40
1
40
1
10
-157.59957403986834
20
53.547681881399683
30
0
10
-157.9932866919238
20
53.959062041476358
30
0
10
-158.57989531919748
20
53.954042117059409
30
0
0
SPLINE
5
203
100
AcDbEntity
8
0
100
AcDbSpline
70
0
71
2
72
6
73
3
74
0
42
0.000000001
43
0.0000000001
44
0.0000000001
40
0
40
0
40
0
40
1
40
1
40
1
10
-158.57989531919748
20
53.954042117059409
30
0
10
-159.17741715734186
20
53.948928802448101
30
0
10
-159.55852796733981
20
53.525461057709052
30
0
0
SPLINE
5
204
100
AcDbEntity
8
0
100
AcDbSpline
70
0
71
2
72
6
73
3
74
0
42
0.000000001
43
0.0000000001
44
0.0000000001
40
0
40
0
40
0
40
1
40
1
40
1
10
-159.55852796733981
20
53.525461057709052
30
0
10
-159.94236737806776
20
53.101969962871152
30
0
10
-159.93575975659033
20
52.329829300487489
30
0
0
SPLINE
5
205
100
AcDbEntity
8
0
100
AcDbSpline
70
0
71
2
72
6
73
3
74
0
42
0.000000001
43
0.0000000001
44
0.0000000001
40
0
40
0
40
0
40
1
40
1
40
1
10
-159.93575975659033
20
52.329829300487489
30
0
10
-159.93158037452568
20
51.841443147198014
30
0
10
-159.76204110696426
20
51.479988249351422
30
0
0
SPLINE
5
206
100
AcDbEntity
8
0
100
AcDbSpline
70
0
71
2
72
6
73
3
74
0
42
0.000000001
43
0.0000000001
44
0.0000000001
40
0
40
0
40
0
40
1
40
1
40
1
10
-159.76204110696426
20
51.479988249351422
30
0
10
-159.59520828718377
20
51.115781986499613
30
0
10
-159.27427901875731
20
50.919339619723075
30
0
0
SPLINE
5
207
100
AcDbEntity
8
0
100
AcDbSpline
70
0
71
2
72
6
73
3
74
0
42
0.000000001
43
0.0000000001
44
0.0000000001
40
0
40
0
40
0
40
1
40
1
40
1
10
-159.27427901875731
20
50.919339619723075
30
0
10
-158.95605500096201
20
50.720145302117707
30
0
10
-158.56043531224597
20
50.723530831826736
30
0
0
SPLINE
5
208
100
AcDbEntity
8
0
100
AcDbSpline
70
0
71
2
72
6
73
3
74
0
42
0.000000001
43
0.0000000001
44
0.0000000001
40
0
40
0
40
0
40
1
40
1
40
1
10
-158.56043531224597
20
50.723530831826736
30
0
10
-157.99838289949298
20
50.728340615555105
30
0
10
-157.59516429492027
20
51.119254326222496
30
0
0
SPLINE
5
209
100
AcDbEntity
8
0
100
AcDbSpline
70
0
71
2
72
6
73
3
74
0
42
0.000000001
43
0.0000000001
44
0.0000000001
40
0
40
0
40
0
40
1
40
1
40
1
10
-157.59516429492027
20
51.119254326222496
30
0
10
-157.19465094097868
20
51.507416086061042
30
0
10
-157.20237929324324
20
52.410520941127238
30
0
0
LINE
5
210
100
AcDbEntity
8
0
100
AcDbLine
10
-140.72730507966546
20
60.734617139908771
30
0
11
-140.69307619119465
21
56.734763833117945
31
0
0
LINE
5
211
100
AcDbEntity
8
0
100
AcDbLine
10
-140.69307619119468
20
56.734763833117945
30
0
11
-141.48977277008669
21
56.727946073502196
31
0
0
LINE
5
212
100
AcDbEntity
8
0
100
AcDbLine
10
-141.48977277008669
20
56.727946073502196
30
0
11
-142.46076791184012
21
59.551936207450424
31
0
0
SPLINE
5
213
100
AcDbEntity
8
0
100
AcDbSpline
70
0
71
2
72
6
73
3
74
0
42
0.000000001
43
0.0000000001
44
0.0000000001
40
0
40
0
40
0
40
1
40
1
40
1
10
-142.46076791184012
20
59.551936207450424
30
0
10
-142.59511719741423
20
59.946436361253923
30
0
10
-142.65682332600625
20
60.142367642751296
30
0
0
SPLINE
5
214
100
AcDbEntity
8
0
100
AcDbSpline
70
0
71
2
72
6
73
3
74
0
42
0.000000001
43
0.0000000001
44
0.0000000001
40
0
40
0
40
0
40
1
40
1
40
1
10
-142.65682332600625
20
60.142367642751296
30
0
10
-142.72316584977088
20
59.923511368050058
30
0
10
-142.86415283355768
20
59.499369393003015
30
0
0
LINE
5
215
100
AcDbEntity
8
0
100
AcDbLine
10
-142.86415283355768
20
59.499369393003015
30
0
11
-143.79801007259388
21
56.70819324980301
31
0
0
LINE
5
216
100
AcDbEntity
8
0
100
AcDbLine
10
-143.79801007259388
20
56.70819324980301
30
0
11
-144.51012598910242
21
56.702099292246345
31
0
0
LINE
5
217
100
AcDbEntity
8
0
100
AcDbLine
10
-144.51012598910242
20
56.702099292246345
30
0
11
-144.5443548775732
21
60.70195259903717
31
0
0
LINE
5
218
100
AcDbEntity
8
0
100
AcDbLine
10
-144.5443548775732
20
60.70195259903717
30
0
11
-144.03414170651766
21
60.706318766591053
31
0
0
LINE
5
219
100
AcDbEntity
8
0
100
AcDbLine
10
-144.03414170651766
20
60.706318766591053
30
0
11
-144.00549310403201
21
57.358555736396696
31
0
0
LINE
5
220
100
AcDbEntity
8
0
100
AcDbLine
10
-144.00549310403201
20
57.358555736396696
30
0
11
-142.87183766284105
21
60.716265225230572
31
0
0
LINE
5
221
100
AcDbEntity
8
0
100
AcDbLine
10
-142.87183766284105
20
60.716265225230579
30
0
11
-142.39436546545303
21
60.720351210725234
31
0
0
LINE
5
222
100
AcDbEntity
8
0
100
AcDbLine
10
-142.39436546545303
20
60.720351210725234
30
0
11
-141.20837940636625
21
57.325191498365527
31
0
0
LINE
5
223
100
AcDbEntity
8
0
100
AcDbLine
10
-141.20837940636625
20
57.325191498365527
30
0
11
-141.23751832522407
21
60.730250971717325
31
0
0
LINE
5
224
100
AcDbEntity
8
0
100
AcDbLine
10
-141.23751832522407
20
60.730250971717325
30
0
11
-140.72730507966546
21
60.734617139908771
31
0
0
LINE
5
225
100
AcDbEntity
8
0
100
AcDbLine
10
-144.95907357934993
20
60.698403628837241
30
0
11
-146.46094110749343
21
56.685405121737347
31
0
0
LINE
5
226
100
AcDbEntity
8
0
100
AcDbLine
10
-146.46094110749343
20
56.685405121737347
30
0
11
-147.0311793224364
21
56.680525287712449
31
0
0
LINE
5
227
100
AcDbEntity
8
0
100
AcDbLine
10
-147.0311793224364
20
56.680525287712449
30
0
11
-148.70245659627261
21
60.666369494092301
31
0
0
LINE
5
228
100
AcDbEntity
8
0
100
AcDbLine
10
-148.70245659627261
20
60.666369494092308
30
0
11
-148.09947696064359
21
60.671529514001811
31
0
0
LINE
5
229
100
AcDbEntity
8
0
100
AcDbLine
10
-148.09947696064359
20
60.671529514001804
30
0
11
-147.62255169132911
21
59.464106824807985
31
0
0
LINE
5
230
100
AcDbEntity
8
0
100
AcDbLine
10
-147.62255169132911
20
59.464106824807985
30
0
11
-145.95003447659695
21
59.478419451001386
31
0
0
LINE
5
231
100
AcDbEntity
8
0
100
AcDbLine
10
-145.95003447659695
20
59.478419451001386
30
0
11
-145.52112688613985
21
60.693593837458124
31
0
0
LINE
5
232
100
AcDbEntity
8
0
100
AcDbLine
10
-145.52112688613985
20
60.693593837458124
30
0
11
-144.95907357934993
21
60.698403628837248
31
0
0
LINE
5
233
100
AcDbEntity
8
0
100
AcDbLine
10
-146.09913632844123
20
59.046022823167846
30
0
11
-147.45515791140554
21
59.034418619721563
31
0
0
LINE
5
234
100
AcDbEntity
8
0
100
AcDbLine
10
-147.45515791140554
20
59.034418619721563
30
0
11
-147.02823112163313
21
57.930255334795781
31
0
0
SPLINE
5
235
100
AcDbEntity
8
0
100
AcDbSpline
70
0
71
2
72
6
73
3
74
0
42
0.000000001
43
0.0000000001
44
0.0000000001
40
0
40
0
40
0
40
1
40
1
40
1
10
-147.02823112163313
20
57.930255334795781
30
0
10
-146.83292271061879
20
57.427133163883504
30
0
10
-146.73737836902629
20
57.103245577180758
30
0
0
SPLINE
5
236
100
AcDbEntity
8
0
100
AcDbSpline
70
0
71
2
72
6
73
3
74
0
42
0.000000001
43
0.0000000001
44
0.0000000001
40
0
40
0
40
0
40
1
40
1
40
1
10
-146.73737836902629
20
57.103245577180758
30
0
10
-146.66427505232284
20
57.48860581188913
30
0
10
-146.52837139080424
20
57.869045861707363
30
0
0
LINE
5
237
100
AcDbEntity
8
0
100
AcDbLine
10
-146.52837139080424
20
57.869045861707363
30
0
11
-146.09913632844126
21
59.046022823167846
31
0
0
LINE
5
238
100
AcDbEntity
8
0
100
AcDbLine
10
-151.96727845911136
20
59.235923744347147
30
0
11
-152.49773531248744
21
59.365086030577459
31
0
0
SPLINE
5
239
100
AcDbEntity
8
0
100
AcDbSpline
70
0
71
2
72
6
73
3
74
0
42
0.000000001
43
0.0000000001
44
0.0000000001
40
0
40
0
40
0
40
1
40
1
40
1
10
-152.49773531248741
20
59.365086030577459
30
0
10
-152.33688169258733
20
60.018601763443513
30
0
10
-151.90600707823324
20
60.366094014927263
30
0
0
SPLINE
5
240
100
AcDbEntity
8
0
100
AcDbSpline
70
0
71
2
72
6
73
3
74
0
42
0.000000001
43
0.0000000001
44
0.0000000001
40
0
40
0
40
0
40
1
40
1
40
1
10
-151.90600707823324
20
60.366094014927263
30
0
10
-151.47783652246102
20
60.710834325783182
30
0
10
-150.85302986906595
20
60.716181131181912
30
0
0
SPLINE
5
241
100
AcDbEntity
8
0
100
AcDbSpline
70
0
71
2
72
6
73
3
74
0
42
0.000000001
43
0.0000000001
44
0.0000000001
40
0
40
0
40
0
40
1
40
1
40
1
10
-150.85302986906595
20
60.716181131181912
30
0
10
-150.20639560188022
20
60.721714727170372
30
0
10
-149.79762064979508
20
60.463265862833836
30
0
0
SPLINE
5
242
100
AcDbEntity
8
0
100
AcDbSpline
70
0
71
2
72
6
73
3
74
0
42
0.000000001
43
0.0000000001
44
0.0000000001
40
0
40
0
40
0
40
1
40
1
40
1
10
-149.79762064979508
20
60.463265862833836
30
0
10
-149.39155035231641
20
60.202065052768965
30
0
10
-149.17446162373369
20
59.704586868805912
30
0
0
SPLINE
5
243
100
AcDbEntity
8
0
100
AcDbSpline
70
0
71
2
72
6
73
3
74
0
42
0.000000001
43
0.0000000001
44
0.0000000001
40
0
40
0
40
0
40
1
40
1
40
1
10
-149.17446162373369
20
59.704586868805912
30
0
10
-148.96010089985634
20
59.207085339844518
30
0
10
-148.9551977157326
20
58.634118524171548
30
0
0
SPLINE
5
244
100
AcDbEntity
8
0
100
AcDbSpline
70
0
71
2
72
6
73
3
74
0
42
0.000000001
43
0.0000000001
44
0.0000000001
40
0
40
0
40
0
40
1
40
1
40
1
10
-148.9551977157326
20
58.634118524171548
30
0
10
-148.94985091033388
20
58.009311870776486
30
0
10
-149.18325383980221
20
57.543450611121962
30
0
0
SPLINE
5
245
100
AcDbEntity
8
0
100
AcDbSpline
70
0
71
2
72
6
73
3
74
0
42
0.000000001
43
0.0000000001
44
0.0000000001
40
0
40
0
40
0
40
1
40
1
40
1
10
-149.18325383980221
20
57.543450611121962
30
0
10
-149.41936142387704
20
57.074837405739096
30
0
10
-149.85658107826572
20
56.830978124401348
30
0
0
SPLINE
5
246
100
AcDbEntity
8
0
100
AcDbSpline
70
0
71
2
72
6
73
3
74
0
42
0.000000001
43
0.0000000001
44
0.0000000001
40
0
40
0
40
0
40
1
40
1
40
1
10
-149.85658107826572
20
56.830978124401348
30
0
10
-150.2965065793102
20
56.584366887134259
30
0
10
-150.82581816740179
20
56.579837284189985
30
0
0
SPLINE
5
247
100
AcDbEntity
8
0
100
AcDbSpline
70
0
71
2
72
6
73
3
74
0
42
0.000000001
43
0.0000000001
44
0.0000000001
40
0
40
0
40
0
40
1
40
1
40
1
10
-150.82581816740179
20
56.579837284189985
30
0
10
-151.4260686062762
20
56.574700619479835
30
0
10
-151.83794632609442
20
56.876780164149139
30
0
0
SPLINE
5
248
100
AcDbEntity
8
0
100
AcDbSpline
70
0
71
2
72
6
73
3
74
0
42
0.000000001
43
0.0000000001
44
0.0000000001
40
0
40
0
40
0
40
1
40
1
40
1
10
-151.83794632609442
20
56.876780164149139
30
0
10
-152.24982285896391
20
57.178860315044076
30
0
10
-152.41553931722302
20
57.731350553633696
30
0
0
LINE
5
249
100
AcDbEntity
8
0
100
AcDbLine
10
-152.41553931722302
20
57.731350553633696
30
0
11
-151.89546302231301
21
57.858588804987306
31
0
0
SPLINE
5
250
100
AcDbEntity
8
0
100
AcDbSpline
70
0
71
2
72
6
73
3
74
0
42
0.000000001
43
0.0000000001
44
0.0000000001
40
0
40
0
40
0
40
1
40
1
40
1
10
-151.89546302231301
20
57.858588804987306
30
0
10
-151.75257816068779
20
57.42323326285284
30
0
10
-151.48621733071343
20
57.22632392470247
30
0
0
SPLINE
5
251
100
AcDbEntity
8
0
100
AcDbSpline
70
0
71
2
72
6
73
3
74
0
42
0.000000001
43
0.0000000001
44
0.0000000001
40
0
40
0
40
0
40
1
40
1
40
1
10
-151.48621733071343
20
57.22632392470247
30
0
10
-151.21985769278831
20
57.029414576351101
30
0
10
-150.81878080261231
20
57.032846806257815
30
0
0
SPLINE
5
252
100
AcDbEntity
8
0
100
AcDbSpline
70
0
71
2
72
6
73
3
74
0
42
0.000000001
43
0.0000000001
44
0.0000000001
40
0
40
0
40
0
40
1
40
1
40
1
10
-150.81878080261231
20
57.032846806257815
30
0
10
-150.35767827252423
20
57.036792707736055
30
0
10
-150.04853107271001
20
57.260456188799182
30
0
0
SPLINE
5
253
100
AcDbEntity
8
0
100
AcDbSpline
70
0
71
2
72
6
73
3
74
0
42
0.000000001
43
0.0000000001
44
0.0000000001
40
0
40
0
40
0
40
1
40
1
40
1
10
-150.04853107271001
20
57.260456188799182
30
0
10
-149.74211127647601
20
57.484095733939853
30
0
10
-149.61980332748556
20
57.858962432929026
30
0
0
SPLINE
5
254
100
AcDbEntity
8
0
100
AcDbSpline
70
0
71
2
72
6
73
3
74
0
42
0.000000001
43
0.0000000001
44
0.0000000001
40
0
40
0
40
0
40
1
40
1
40
1
10
-149.61980332748556
20
57.858962432929026
30
0
10
-149.49747143237167
20
58.231100536288707
30
0
10
-149.50085696718119
20
58.626720821029359
30
0
0
SPLINE
5
255
100
AcDbEntity
8
0
100
AcDbSpline
70
0
71
2
72
6
73
3
74
0
42
0.000000001
43
0.0000000001
44
0.0000000001
40
0
40
0
40
0
40
1
40
1
40
1
10
-149.50085696718119
20
58.626720821029359
30
0
10
-149.50522313473508
20
59.136933992084899
30
0
10
-149.65582623115182
20
59.517651050571267
30
0
0
SPLINE
5
256
100
AcDbEntity
8
0
100
AcDbSpline
70
0
71
2
72
6
73
3
74
0
42
0.000000001
43
0.0000000001
44
0.0000000001
40
0
40
0
40
0
40
1
40
1
40
1
10
-149.65582623115182
20
59.517651050571267
30
0
10
-149.80913457819972
20
59.895616158228798
30
0
10
-150.12451324987131
20
60.081191418307682
30
0
0
SPLINE
5
257
100
AcDbEntity
8
0
100
AcDbSpline
70
0
71
2
72
6
73
3
74
0
42
0.000000001
43
0.0000000001
44
0.0000000001
40
0
40
0
40
0
40
1
40
1
40
1
10
-150.12451324987131
20
60.081191418307682
30
0
10
-150.43989132551826
20
60.266766683487056
30
0
10
-150.80549879030289
20
60.263637984463273
30
0
0
SPLINE
5
258
100
AcDbEntity
8
0
100
AcDbSpline
70
0
71
2
72
6
73
3
74
0
42
0.000000001
43
0.0000000001
44
0.0000000001
40
0
40
0
40
0
40
1
40
1
40
1
10
-150.80549879030289
20
60.263637984463273
30
0
10
-151.25022971601101
20
60.259832183578098
30
0
10
-151.55634657738671
20
60.000723207945541
30
0
0
SPLINE
5
259
100
AcDbEntity
8
0
100
AcDbSpline
70
0
71
2
72
6
73
3
74
0
42
0.000000001
43
0.0000000001
44
0.0000000001
40
0
40
0
40
0
40
1
40
1
40
1
10
-151.55634657738671
20
60.000723207945541
30
0
10
-151.86246224671311
20
59.74161424251399
30
0
10
-151.96727845911136
20
59.235923744347147
30
0
0
LINE
5
260
100
AcDbEntity
8
0
100
AcDbLine
10
-153.16886844256223
20
60.628148014146596
30
0
11
-153.13463955409142
21
56.628294707355771
31
0
0
LINE
5
261
100
AcDbEntity
8
0
100
AcDbLine
10
-153.13463955409142
20
56.628294707355771
30
0
11
-154.90810724751316
21
56.613118193811729
31
0
0
SPLINE
5
262
100
AcDbEntity
8
0
100
AcDbSpline
70
0
71
2
72
6
73
3
74
0
42
0.000000001
43
0.0000000001
44
0.0000000001
40
0
40
0
40
0
40
1
40
1
40
1
10
-154.90810724751316
20
56.613118193811729
30
0
10
-155.44287603706476
20
56.608541890669777
30
0
10
-155.72210817638305
20
56.715296624683461
30
0
0
SPLINE
5
263
100
AcDbEntity
8
0
100
AcDbSpline
70
0
71
2
72
6
73
3
74
0
42
0.000000001
43
0.0000000001
44
0.0000000001
40
0
40
0
40
0
40
1
40
1
40
1
10
-155.72210817638305
20
56.715296624683461
30
0
10
-156.00131697070302
20
56.819323353991784
30
0
10
-156.17008573855793
20
57.090740686007223
30
0
0
SPLINE
5
264
100
AcDbEntity
8
0
100
AcDbSpline
70
0
71
2
72
6
73
3
74
0
42
0.000000001
43
0.0000000001
44
0.0000000001
40
0
40
0
40
0
40
1
40
1
40
1
10
-156.17008573855793
20
57.090740686007223
30
0
10
-156.33885330926304
20
57.362157432199041
30
0
10
-156.34167847740389
20
57.692295471592267
30
0
0
SPLINE
5
265
100
AcDbEntity
8
0
100
AcDbSpline
70
0
71
2
72
6
73
3
74
0
42
0.000000001
43
0.0000000001
44
0.0000000001
40
0
40
0
40
0
40
1
40
1
40
1
10
-156.34167847740389
20
57.692295471592267
30
0
10
-156.34532083779817
20
58.117927384239692
30
0
10
-156.07224952911656
20
58.412226190303159
30
0
0
SPLINE
5
266
100
AcDbEntity
8
0
100
AcDbSpline
70
0
71
2
72
6
73
3
74
0
42
0.000000001
43
0.0000000001
44
0.0000000001
40
0
40
0
40
0
40
1
40
1
40
1
10
-156.07224952911656
20
58.412226190303159
30
0
10
-155.79917821533451
20
58.706524400342005
30
0
10
-155.22415990589343
20
58.79057499151272
30
0
0
SPLINE
5
267
100
AcDbEntity
8
0
100
AcDbSpline
70
0
71
2
72
6
73
3
74
0
42
0.000000001
43
0.0000000001
44
0.0000000001
40
0
40
0
40
0
40
1
40
1
40
1
10
-155.22415990589343
20
58.79057499151272
30
0
10
-155.43511174996291
20
58.889728231028101
30
0
10
-155.54508917431988
20
58.987017358289258
30
0
0
SPLINE
5
268
100
AcDbEntity
8
0
100
AcDbSpline
70
0
71
2
72
6
73
3
74
0
42
0.000000001
43
0.0000000001
44
0.0000000001
40
0
40
0
40
0
40
1
40
1
40
1
10
-155.54508917431988
20
58.987017358289258
30
0
10
-155.77882591992605
20
59.197848688824436
30
0
10
-155.98891704876087
20
59.515299032246972
30
0
0
LINE
5
269
100
AcDbEntity
8
0
100
AcDbLine
10
-155.98891704876087
20
59.515299032246972
30
0
11
-156.69397740766428
21
60.597981767447237
31
0
0
LINE
5
270
100
AcDbEntity
8
0
100
AcDbLine
10
-156.69397740766428
20
60.597981767447237
30
0
11
-156.02824531946709
21
60.603678793725578
31
0
0
LINE
5
271
100
AcDbEntity
8
0
100
AcDbLine
10
-156.02824531946709
20
60.603678793725578
30
0
11
-155.49181124882753
21
59.776042402587436
31
0
0
SPLINE
5
272
100
AcDbEntity
8
0
100
AcDbSpline
70
0
71
2
72
6
73
3
74
0
42
0.000000001
43
0.0000000001
44
0.0000000001
40
0
40
0
40
0
40
1
40
1
40
1
10
-155.49181124882753
20
59.77604240258745
30
0
10
-155.25681487664167
20
59.417876754850347
30
0
10
-155.10511697817822
20
59.228171990120984
30
0
0
SPLINE
5
273
100
AcDbEntity
8
0
100
AcDbSpline
70
0
71
2
72
6
73
3
74
0
42
0.000000001
43
0.0000000001
44
0.0000000001
40
0
40
0
40
0
40
1
40
1
40
1
10
-155.10511697817822
20
59.228171990120984
30
0
10
-154.95342027176403
20
59.038467215190607
30
0
10
-154.83271642202558
20
58.963098495889881
30
0
0
SPLINE
5
274
100
AcDbEntity
8
0
100
AcDbSpline
70
0
71
2
72
6
73
3
74
0
42
0.000000001
43
0.0000000001
44
0.0000000001
40
0
40
0
40
0
40
1
40
1
40
1
10
-154.83271642202558
20
58.963098495889881
30
0
10
-154.71474117811763
20
58.887707022514931
30
0
10
-154.59170565892751
20
58.858745481624403
30
0
0
SPLINE
5
275
100
AcDbEntity
8
0
100
AcDbSpline
70
0
71
2
72
6
73
3
74
0
42
0.000000001
43
0.0000000001
44
0.0000000001
40
0
40
0
40
0
40
1
40
1
40
1
10
-154.59170565892751
20
58.858745481624403
30
0
10
-154.50150435459315
20
58.840416970820478
30
0
10
-154.29687360443478
20
58.8421681058216
30
0
0
LINE
5
276
100
AcDbEntity
8
0
100
AcDbLine
10
-154.29687360443478
20
58.8421681058216
30
0
11
-153.68298016191045
21
58.847421521025964
31
0
0
LINE
5
277
100
AcDbEntity
8
0
100
AcDbLine
10
-153.68298016191045
20
58.847421521025964
30
0
11
-153.69818003065382
21
60.623618411202322
31
0
0
LINE
5
278
100
AcDbEntity
8
0
100
AcDbLine
10
-153.69818003065382
20
60.623618411202322
30
0
11
-153.16886844256223
21
60.628148014146596
31
0
0
LINE
5
279
100
AcDbEntity
8
0
100
AcDbLine
10
-153.67905761563156
20
58.389048187692516
30
0
11
-154.81680663683679
21
58.379311859540564
31
0
0
SPLINE
5
280
100
AcDbEntity
8
0
100
AcDbSpline
70
0
71
2
72
6
73
3
74
0
42
0.000000001
43
0.0000000001
44
0.0000000001
40
0
40
0
40
0
40
1
40
1
40
1
10
-154.81680663683676
20
58.379311859540557
30
0
10
-155.1796855008914
20
58.376206510615631
30
0
10
-155.38368583918503
20
58.300787924101733
30
0
0
SPLINE
5
281
100
AcDbEntity
8
0
100
AcDbSpline
70
0
71
2
72
6
73
3
74
0
42
0.000000001
43
0.0000000001
44
0.0000000001
40
0
40
0
40
0
40
1
40
1
40
1
10
-155.38368583918503
20
58.300787924101733
30
0
10
-155.58766283248033
20
58.222641332882475
30
0
10
-155.69267019963351
20
58.058026020902041
30
0
0
SPLINE
5
282
100
AcDbEntity
8
0
100
AcDbSpline
70
0
71
2
72
6
73
3
74
0
42
0.000000001
43
0.0000000001
44
0.0000000001
40
0
40
0
40
0
40
1
40
1
40
1
10
-155.69267019963351
20
58.058026020902041
30
0
10
-155.79765422178835
20
57.890682704216232
30
0
10
-155.79599647698157
20
57.696965164928585
30
0
0
SPLINE
5
283
100
AcDbEntity
8
0
100
AcDbSpline
70
0
71
2
72
6
73
3
74
0
42
0.000000001
43
0.0000000001
44
0.0000000001
40
0
40
0
40
0
40
1
40
1
40
1
10
-155.79599647698157
20
57.696965164928585
30
0
10
-155.79356822991804
20
57.413209761797468
30
0
10
-155.58464453461829
20
57.232181110529751
30
0
0
SPLINE
5
284
100
AcDbEntity
8
0
100
AcDbSpline
70
0
71
2
72
6
73
3
74
0
42
0.000000001
43
0.0000000001
44
0.0000000001
40
0
40
0
40
0
40
1
40
1
40
1
10
-155.58464453461829
20
57.232181110529751
30
0
10
-155.37844942984754
20
57.051127917113931
30
0
10
-154.93371731209018
20
57.054933728200119
30
0
0
LINE
5
285
100
AcDbEntity
8
0
100
AcDbLine
10
-154.93371731209018
20
57.054933728200119
30
0
11
-153.66773359296937
21
57.065767429389631
31
0
0
LINE
5
286
100
AcDbEntity
8
0
100
AcDbLine
10
-153.66773359296937
20
57.065767429389631
30
0
11
-153.67905761563156
21
58.389048187692516
31
0
0
SPLINE
5
287
100
AcDbEntity
8
0
100
AcDbSpline
70
0
71
2
72
6
73
3
74
0
42
0.000000001
43
0.0000000001
44
0.0000000001
40
0
40
0
40
0
40
1
40
1
40
1
10
-157.01835902701706
20
58.646976383237714
30
0
10
-157.00983682749737
20
57.651105659622679
30
0
10
-157.53979582311959
20
57.084475751678468
30
0
0
SPLINE
5
288
100
AcDbEntity
8
0
100
AcDbSpline
70
0
71
2
72
6
73
3
74
0
42
0.000000001
43
0.0000000001
44
0.0000000001
40
0
40
0
40
0
40
1
40
1
40
1
10
-157.53979582311959
20
57.084475751678468
30
0
10
-158.06973147884395
20
56.515118435053523
30
0
10
-158.91553929472809
20
56.507880404261627
30
0
0
SPLINE
5
289
100
AcDbEntity
8
0
100
AcDbSpline
70
0
71
2
72
6
73
3
74
0
42
0.000000001
43
0.0000000001
44
0.0000000001
40
0
40
0
40
0
40
1
40
1
40
1
10
-158.91553929472809
20
56.507880404261627
30
0
10
-159.46940709734037
20
56.503140660628773
30
0
10
-159.91640401656986
20
56.763990643588393
30
0
0
SPLINE
5
290
100
AcDbEntity
8
0
100
AcDbSpline
70
0
71
2
72
6
73
3
74
0
42
0.000000001
43
0.0000000001
44
0.0000000001
40
0
40
0
40
0
40
1
40
1
40
1
10
-159.91640401656986
20
56.763990643588393
30
0
10
-160.36339855170087
20
57.024840646950025
30
0
10
-160.59937675888133
20
57.497600362850257
30
0
0
SPLINE
5
291
100
AcDbEntity
8
0
100
AcDbSpline
70
0
71
2
72
6
73
3
74
0
42
0.000000001
43
0.0000000001
44
0.0000000001
40
0
40
0
40
0
40
1
40
1
40
1
10
-160.59937675888133
20
57.497600362850257
30
0
10
-160.83805902464371
20
57.967608138122664
30
0
10
-160.84319568935385
20
58.567858576997047
30
0
0
SPLINE
5
292
100
AcDbEntity
8
0
100
AcDbSpline
70
0
71
2
72
6
73
3
74
0
42
0.000000001
43
0.0000000001
44
0.0000000001
40
0
40
0
40
0
40
1
40
1
40
1
10
-160.84319568935385
20
58.567858576997047
30
0
10
-160.84840240436054
20
59.176294818061407
30
0
10
-160.60695674321744
20
59.658596514840653
30
0
0
SPLINE
5
293
100
AcDbEntity
8
0
100
AcDbSpline
70
0
71
2
72
6
73
3
74
0
42
0.000000001
43
0.0000000001
44
0.0000000001
40
0
40
0
40
0
40
1
40
1
40
1
10
-160.60695674321744
20
59.658596514840653
30
0
10
-160.3655087081768
20
60.140899424071151
30
0
10
-159.91744409493904
20
60.393036721045505
30
0
0
SPLINE
5
294
100
AcDbEntity
8
0
100
AcDbSpline
70
0
71
2
72
6
73
3
74
0
42
0.000000001
43
0.0000000001
44
0.0000000001
40
0
40
0
40
0
40
1
40
1
40
1
10
-159.91744409493904
20
60.393036721045505
30
0
10
-159.46935852590195
20
60.642446588937098
30
0
10
-158.94823035590181
20
60.646906161986855
30
0
0
SPLINE
5
295
100
AcDbEntity
8
0
100
AcDbSpline
70
0
71
2
72
6
73
3
74
0
42
0.000000001
43
0.0000000001
44
0.0000000001
40
0
40
0
40
0
40
1
40
1
40
1
10
-158.94823035590181
20
60.646906161986855
30
0
10
-158.38344934241883
20
60.651739295814068
30
0
10
-157.93638357004252
20
60.382704096488098
30
0
0
SPLINE
5
296
100
AcDbEntity
8
0
100
AcDbSpline
70
0
71
2
72
6
73
3
74
0
42
0.000000001
43
0.0000000001
44
0.0000000001
40
0
40
0
40
0
40
1
40
1
40
1
10
-157.93638357004252
20
60.382704096488098
30
0
10
-157.48931660561701
20
60.113668907363127
30
0
10
-157.25609154131462
20
59.643614431893035
30
0
0
SPLINE
5
297
100
AcDbEntity
8
0
100
AcDbSpline
70
0
71
2
72
6
73
3
74
0
42
0.000000001
43
0.0000000001
44
0.0000000001
40
0
40
0
40
0
40
1
40
1
40
1
10
-157.25609154131462
20
59.643614431893035
30
0
10
-157.02286528496299
20
59.173559966623948
30
0
10
-157.01835902701706
20
58.646976383237714
30
0
0
SPLINE
5
298
100
AcDbEntity
8
0
100
AcDbSpline
70
0
71
2
72
6
73
3
74
0
42
0.000000001
43
0.0000000001
44
0.0000000001
40
0
40
0
40
0
40
1
40
1
40
1
10
-157.5641110726354
20
58.65049189606674
30
0
10
-157.57029842038639
20
59.373521023445988
30
0
10
-157.96130581926047
20
59.787652836339191
30
0
0
SPLINE
5
299
100
AcDbEntity
8
0
100
AcDbSpline
70
0
71
2
72
6
73
3
74
0
42
0.000000001
43
0.0000000001
44
0.0000000001
40
0
40
0
40
0
40
1
40
1
40
1
10
-157.96130581926047
20
59.787652836339191
30
0
10
-158.35501727671644
20
60.199032708604548
30
0
10
-158.94162709603935
20
60.1940127739866
30
0
0
SPLINE
5
300
100
AcDbEntity
8
0
100
AcDbSpline
70
0
71
2
72
6
73
3
74
0
42
0.000000001
43
0.0000000001
44
0.0000000001
40
0
40
0
40
0
40
1
40
1
40
1
10
-158.94162709603935
20
60.1940127739866
30
0
10
-159.53914893418374
20
60.188899459375293
30
0
10
-159.92025974163144
20
59.765431416623933
30
0
0
SPLINE
5
301
100
AcDbEntity
8
0
100
AcDbSpline
70
0
71
2
72
6
73
3
74
0
42
0.000000001
43
0.0000000001
44
0.0000000001
40
0
40
0
40
0
40
1
40
1
40
1
10
-159.92025974163144
20
59.765431416623933
30
0
10
-160.3040979679609
20
59.341941226023977
30
0
10
-160.29749034393322
20
58.569800265628004
30
0
0
SPLINE
5
302
100
AcDbEntity
8
0
100
AcDbSpline
70
0
71
2
72
6
73
3
74
0
42
0.000000001
43
0.0000000001
44
0.0000000001
40
0
40
0
40
0
40
1
40
1
40
1
10
-160.29749034393322
20
58.569800265628004
30
0
10
-160.2933109618686
20
58.081414112338514
30
0
10
-160.12377288380617
20
57.719958906278606
30
0
0
SPLINE
5
303
100
AcDbEntity
8
0
100
AcDbSpline
70
0
71
2
72
6
73
3
74
0
42
0.000000001
43
0.0000000001
44
0.0000000001
40
0
40
0
40
0
40
1
40
1
40
1
10
-160.12377288380617
20
57.719958906278606
30
0
10
-159.9569400665759
20
57.355752941439121
30
0
10
-159.63601079814944
20
57.159310574662577
30
0
0
SPLINE
5
304
100
AcDbEntity
8
0
100
AcDbSpline
70
0
71
2
72
6
73
3
74
0
42
0.000000001
43
0.0000000001
44
0.0000000001
40
0
40
0
40
0
40
1
40
1
40
1
10
-159.63601079814944
20
57.159310574662577
30
0
10
-159.31778678035414
20
56.960116257057209
30
0
10
-158.92216709163813
20
56.963501786766237
30
0
0
SPLINE
5
305
100
AcDbEntity
8
0
100
AcDbSpline
70
0
71
2
72
6
73
3
74
0
42
0.000000001
43
0.0000000001
44
0.0000000001
40
0
40
0
40
0
40
1
40
1
40
1
10
-158.92216709163813
20
56.963501786766237
30
0
10
-158.36011467888511
20
56.968311570494606
30
0
10
-157.95689607176215
20
57.359224983149687
30
0
0
SPLINE
5
306
100
AcDbEntity
8
0
100
AcDbSpline
70
0
71
2
72
6
73
3
74
0
42
0.000000001
43
0.0000000001
44
0.0000000001
40
0
40
0
40
0
40
1
40
1
40
1
10
-157.95689607176215
20
57.359224983149687
30
0
10
-157.55638272037083
20
57.74738704100055
30
0
10
-157.5641110726354
20
58.65049189606674
30
0
0
LINE
5
307
100
AcDbEntity
8
0
100
AcDbLine
10
-165.47269949686464
20
60.050807230224308
30
0
11
-165.4767387885372
21
60.522822971183096
31
0
0
LINE
5
308
100
AcDbEntity
8
0
100
AcDbLine
10
-165.4767387885372
20
60.522822971183096
30
0
11
-162.83290706471067
21
60.545447656207614
31
0
0
SPLINE
5
309
100
AcDbEntity
8
0
100
AcDbSpline
70
0
71
2
72
6
73
3
74
0
42
0.000000001
43
0.0000000001
44
0.0000000001
40
0
40
0
40
0
40
1
40
1
40
1
10
-162.8329070647107
20
60.545447656207614
30
0
10
-162.82593220883601
20
60.368147229448354
30
0
10
-162.88728554555757
20
60.203906084471001
30
0
0
SPLINE
5
310
100
AcDbEntity
8
0
100
AcDbSpline
70
0
71
2
72
6
73
3
74
0
42
0.000000001
43
0.0000000001
44
0.0000000001
40
0
40
0
40
0
40
1
40
1
40
1
10
-162.88728554555757
20
60.203906084471001
30
0
10
-162.98592630555066
20
59.932928590288448
30
0
10
-163.20468601156594
20
59.669109575554842
30
0
0
SPLINE
5
311
100
AcDbEntity
8
0
100
AcDbSpline
70
0
71
2
72
6
73
3
74
0
42
0.000000001
43
0.0000000001
44
0.0000000001
40
0
40
0
40
0
40
1
40
1
40
1
10
-163.20468601156594
20
59.669109575554842
30
0
10
-163.42617313646298
20
59.405268412972646
30
0
10
-163.84340712616512
20
59.057892295556478
30
0
0
SPLINE
5
312
100
AcDbEntity
8
0
100
AcDbSpline
70
0
71
2
72
6
73
3
74
0
42
0.000000001
43
0.0000000001
44
0.0000000001
40
0
40
0
40
0
40
1
40
1
40
1
10
-163.84340712616512
20
59.057892295556478
30
0
10
-164.49092228656838
20
58.51754261379412
30
0
10
-164.71744633154825
20
58.204542321972895
30
0
0
SPLINE
5
313
100
AcDbEntity
8
0
100
AcDbSpline
70
0
71
2
72
6
73
3
74
0
42
0.000000001
43
0.0000000001
44
0.0000000001
40
0
40
0
40
0
40
1
40
1
40
1
10
-164.71744633154825
20
58.204542321972895
30
0
10
-164.94394941052775
20
57.888813409019669
30
0
10
-164.9415678636619
20
57.610515207348527
30
0
0
SPLINE
5
314
100
AcDbEntity
8
0
100
AcDbSpline
70
0
71
2
72
6
73
3
74
0
42
0.000000001
43
0.0000000001
44
0.0000000001
40
0
40
0
40
0
40
1
40
1
40
1
10
-164.9415678636619
20
57.610515207348527
30
0
10
-164.93906957650282
20
57.318575194076686
30
0
10
-164.72727599803181
20
57.12119949077811
30
0
0
SPLINE
5
315
100
AcDbEntity
8
0
100
AcDbSpline
70
0
71
2
72
6
73
3
74
0
42
0.000000001
43
0.0000000001
44
0.0000000001
40
0
40
0
40
0
40
1
40
1
40
1
10
-164.72727599803181
20
57.12119949077811
30
0
10
-164.51818885204017
20
56.921070634400465
30
0
10
-164.18259361118697
20
56.923942502738981
30
0
0
SPLINE
5
316
100
AcDbEntity
8
0
100
AcDbSpline
70
0
71
2
72
6
73
3
74
0
42
0.000000001
43
0.0000000001
44
0.0000000001
40
0
40
0
40
0
40
1
40
1
40
1
10
-164.18259361118697
20
56.923942502738981
30
0
10
-163.82790174137156
20
56.926977791166379
30
0
10
-163.61690637432088
20
57.141615528812366
30
0
0
SPLINE
5
317
100
AcDbEntity
8
0
100
AcDbSpline
70
0
71
2
72
6
73
3
74
0
42
0.000000001
43
0.0000000001
44
0.0000000001
40
0
40
0
40
0
40
1
40
1
40
1
10
-163.61690637432088
20
57.141615528812366
30
0
10
-163.40591100727016
20
57.356253266458346
30
0
10
-163.40640330370906
20
57.732797302413523
30
0
0
LINE
5
318
100
AcDbEntity
8
0
100
AcDbLine
10
-163.40640330370906
20
57.732797302413523
30
0
11
-162.9012055009124
21
57.685276916746126
31
0
0
SPLINE
5
319
100
AcDbEntity
8
0
100
AcDbSpline
70
0
71
2
72
6
73
3
74
0
42
0.000000001
43
0.0000000001
44
0.0000000001
40
0
40
0
40
0
40
1
40
1
40
1
10
-162.90120550091243
20
57.685276916746126
30
0
10
-162.94821220480728
20
57.120052281988137
30
0
10
-163.28401321708333
20
56.822488459749948
30
0
0
SPLINE
5
320
100
AcDbEntity
8
0
100
AcDbSpline
70
0
71
2
72
6
73
3
74
0
42
0.000000001
43
0.0000000001
44
0.0000000001
40
0
40
0
40
0
40
1
40
1
40
1
10
-163.28401321708333
20
56.822488459749948
30
0
10
-163.61979087926056
20
56.522196036781764
30
0
10
-164.19002909420354
20
56.517316202756867
30
0
0
SPLINE
5
321
100
AcDbEntity
8
0
100
AcDbSpline
70
0
71
2
72
6
73
3
74
0
42
0.000000001
43
0.0000000001
44
0.0000000001
40
0
40
0
40
0
40
1
40
1
40
1
10
-164.19002909420354
20
56.517316202756867
30
0
10
-164.76572451060647
20
56.512389668534283
30
0
10
-165.10405151920514
20
56.82874143666902
30
0
0
SPLINE
5
322
100
AcDbEntity
8
0
100
AcDbSpline
70
0
71
2
72
6
73
3
74
0
42
0.000000001
43
0.0000000001
44
0.0000000001
40
0
40
0
40
0
40
1
40
1
40
1
10
-165.10405151920514
20
56.82874143666902
30
0
10
-165.44237853800485
20
57.145094396853018
30
0
10
-165.44641782967744
20
57.6171101378118
30
0
0
SPLINE
5
323
100
AcDbEntity
8
0
100
AcDbSpline
70
0
71
2
72
6
73
3
74
0
42
0.000000001
43
0.0000000001
44
0.0000000001
40
0
40
0
40
0
40
1
40
1
40
1
10
-165.44641782967744
20
57.6171101378118
30
0
10
-165.44847249556148
20
57.857210313361556
30
0
10
-165.35223225816685
20
58.089965845500267
30
0
0
SPLINE
5
324
100
AcDbEntity
8
0
100
AcDbSpline
70
0
71
2
72
6
73
3
74
0
42
0.000000001
43
0.0000000001
44
0.0000000001
40
0
40
0
40
0
40
1
40
1
40
1
10
-165.35223225816685
20
58.089965845500267
30
0
10
-165.25599440487068
20
58.322721357236972
30
0
10
-165.029003388517
20
58.581153210606104
30
0
0
SPLINE
5
325
100
AcDbEntity
8
0
100
AcDbSpline
70
0
71
2
72
6
73
3
74
0
42
0.000000001
43
0.0000000001
44
0.0000000001
40
0
40
0
40
0
40
1
40
1
40
1
10
-165.029003388517
20
58.581153210606104
30
0
10
-164.80473978594458
20
58.839562320102047
30
0
10
-164.27925616188821
20
59.291552055710056
30
0
0
SPLINE
5
326
100
AcDbEntity
8
0
100
AcDbSpline
70
0
71
2
72
6
73
3
74
0
42
0.000000001
43
0.0000000001
44
0.0000000001
40
0
40
0
40
0
40
1
40
1
40
1
10
-164.27925616188821
20
59.291552055710056
30
0
10
-163.84042922593056
20
59.666397980691741
30
0
10
-163.7160672019802
20
59.801163903006028
30
0
0
SPLINE
5
327
100
AcDbEntity
8
0
100
AcDbSpline
70
0
71
2
72
6
73
3
74
0
42
0.000000001
43
0.0000000001
44
0.0000000001
40
0
40
0
40
0
40
1
40
1
40
1
10
-163.7160672019802
20
59.801163903006028
30
0
10
-163.59167945403351
20
59.933202437041601
30
0
10
-163.51097265766447
20
60.067594778176421
30
0
0
LINE
5
328
100
AcDbEntity
8
0
100
AcDbLine
10
-163.51097265766447
20
60.067594778176421
30
0
11
-165.47269949686464
21
60.050807230224308
31
0
0
ENDSEC
0
SECTION
2
OBJECTS
0
DICTIONARY
5
C
100
AcDbDictionary
3
ACAD_GROUP
350
D
3
ACAD_MLINESTYLE
350
17
0
DICTIONARY
5
D
100
AcDbDictionary
0
DICTIONARY
5
1A
330
C
100
AcDbDictionary
0
DICTIONARY
5
17
100
AcDbDictionary
0
ENDSEC
0
EOF
