  0
SECTION
  2
HEADER
  9
$ANGBASE
  50
0.0
  9
$ANGDIR
  70
1
  9
$MEASUREMENT
  70
1
  0
ENDSEC
  0
SECTION
  2
TABLES
  0
TABLE
  2
LTYPE
  70
4
  0
LTYPE
  5
40F
  2
CONTINUOUS
  70
0
  3
Solid line
  72
65
  73
0
  40
0.0
  0
LTYPE
  5
410
  2
DASHDOT
 70
0
  3
Dash Dot ____ _ ____ _
 72
65
 73
4
 40
2.0
 49
1.25
 49
-0.25
 49
0.25
 49
-0.25
  0
LTYPE
  5
411
  2
DASHED
 70
0
  3
Dashed __ __ __ __ __
 72
65
 73
2
 40
0.75
 49
0.5
 49
-0.25
  0
LTYPE
  5
43B
  2
DOTTED
 70
0
  3
Dotted .  .  .  .
 72
65
 73
2
 40
0.2
 49
0.0
 49
-0.2
  0
ENDTAB
  0
TABLE
  2
STYLE
  70
4
  0
STYLE
  2
KICAD
  70
0
  40
0
  41
1
  42
1
  50
0
  71
0
  3
isocp.shx
  0
STYLE
  2
KICADB
  70
0
  40
0
  41
1
  42
1
  50
0
  71
0
  3
isocp.shx
  0
STYLE
  2
KICADI
  70
0
  40
0
  41
1
  42
1
  50
15
  71
0
  3
isocp.shx
  0
STYLE
  2
KICADBI
  70
0
  40
0
  41
1
  42
1
  50
15
  71
0
  3
isocp.shx
  0
ENDTAB
  0
TABLE
  2
LAYER
  70
1
  0
LAYER
  2
BLACK
  70
0
  62
7
  6
CONTINUOUS
  0
ENDTAB
  0
ENDSEC
  0
SECTION
  2
ENTITIES
0
LINE
8
BLACK
6
CONTINUOUS
10
98.8036
20
-116.738
11
98.8036
21
-116.738
0
LINE
8
BLACK
6
CONTINUOUS
10
98.8036
20
-116.738
11
98.2115
21
-116.68
0
LINE
8
BLACK
6
CONTINUOUS
10
98.2115
20
-116.68
11
98.2112
21
-116.68
0
LINE
8
BLACK
6
CONTINUOUS
10
98.2112
20
-116.68
11
98.2089
21
-116.679
0
LINE
8
BLACK
6
CONTINUOUS
10
98.2089
20
-116.679
11
98.2067
21
-116.679
0
LINE
8
BLACK
6
CONTINUOUS
10
98.2067
20
-116.679
11
97.6373
21
-116.507
0
LINE
8
BLACK
6
CONTINUOUS
10
97.6373
20
-116.507
11
97.6369
21
-116.507
0
LINE
8
BLACK
6
CONTINUOUS
10
97.6369
20
-116.507
11
97.6349
21
-116.506
0
LINE
8
BLACK
6
CONTINUOUS
10
97.6349
20
-116.506
11
97.6328
21
-116.505
0
LINE
8
BLACK
6
CONTINUOUS
10
97.6328
20
-116.505
11
97.1075
21
-116.226
0
LINE
8
BLACK
6
CONTINUOUS
10
97.1075
20
-116.226
11
97.1072
21
-116.226
0
LINE
8
BLACK
6
CONTINUOUS
10
97.1072
20
-116.226
11
97.1053
21
-116.224
0
LINE
8
BLACK
6
CONTINUOUS
10
97.1053
20
-116.224
11
97.1035
21
-116.223
0
LINE
8
BLACK
6
CONTINUOUS
10
97.1035
20
-116.223
11
96.6425
21
-115.847
0
LINE
8
BLACK
6
CONTINUOUS
10
96.6425
20
-115.847
11
96.6422
21
-115.847
0
LINE
8
BLACK
6
CONTINUOUS
10
96.6422
20
-115.847
11
96.6406
21
-115.845
0
LINE
8
BLACK
6
CONTINUOUS
10
96.6406
20
-115.845
11
96.639
21
-115.844
0
LINE
8
BLACK
6
CONTINUOUS
10
96.639
20
-115.844
11
96.2598
21
-115.385
0
LINE
8
BLACK
6
CONTINUOUS
10
96.2598
20
-115.385
11
96.2596
21
-115.385
0
LINE
8
BLACK
6
CONTINUOUS
10
96.2596
20
-115.385
11
96.2584
21
-115.383
0
LINE
8
BLACK
6
CONTINUOUS
10
96.2584
20
-115.383
11
96.2571
21
-115.381
0
LINE
8
BLACK
6
CONTINUOUS
10
96.2571
20
-115.381
11
95.9742
21
-114.858
0
LINE
8
BLACK
6
CONTINUOUS
10
95.9742
20
-114.858
11
95.974
21
-114.858
0
LINE
8
BLACK
6
CONTINUOUS
10
95.974
20
-114.858
11
95.9732
21
-114.856
0
LINE
8
BLACK
6
CONTINUOUS
10
95.9732
20
-114.856
11
95.9723
21
-114.854
0
LINE
8
BLACK
6
CONTINUOUS
10
95.9723
20
-114.854
11
95.7964
21
-114.285
0
LINE
8
BLACK
6
CONTINUOUS
10
95.7964
20
-114.285
11
95.7963
21
-114.285
0
LINE
8
BLACK
6
CONTINUOUS
10
95.7963
20
-114.285
11
95.7958
21
-114.283
0
LINE
8
BLACK
6
CONTINUOUS
10
95.7958
20
-114.283
11
95.7954
21
-114.28
0
LINE
8
BLACK
6
CONTINUOUS
10
95.7954
20
-114.28
11
95.7332
21
-113.689
0
LINE
8
BLACK
6
CONTINUOUS
10
95.7332
20
-113.689
11
95.7332
21
-113.689
0
LINE
8
BLACK
6
CONTINUOUS
10
95.7332
20
-113.689
11
95.7332
21
-113.687
0
LINE
8
BLACK
6
CONTINUOUS
10
95.7332
20
-113.687
11
95.7331
21
-113.686
0
LINE
8
BLACK
6
CONTINUOUS
10
95.7331
20
-113.686
11
95.733
21
-113.666
0
LINE
8
BLACK
6
CONTINUOUS
10
95.733
20
-113.666
11
95.733
21
-113.666
0
LINE
8
BLACK
6
CONTINUOUS
10
95.733
20
-113.666
11
95.733
21
-49.7193
0
LINE
8
BLACK
6
CONTINUOUS
10
95.733
20
-49.7193
11
95.7331
21
-49.7181
0
LINE
8
BLACK
6
CONTINUOUS
10
95.7331
20
-49.7181
11
95.7331
21
-49.7181
0
LINE
8
BLACK
6
CONTINUOUS
10
95.7331
20
-49.7181
11
95.7912
21
-49.126
0
LINE
8
BLACK
6
CONTINUOUS
10
95.7912
20
-49.126
11
95.7912
21
-49.1257
0
LINE
8
BLACK
6
CONTINUOUS
10
95.7912
20
-49.1257
11
95.7917
21
-49.1234
0
LINE
8
BLACK
6
CONTINUOUS
10
95.7917
20
-49.1234
11
95.7921
21
-49.1212
0
LINE
8
BLACK
6
CONTINUOUS
10
95.7921
20
-49.1212
11
95.9641
21
-48.5518
0
LINE
8
BLACK
6
CONTINUOUS
10
95.9641
20
-48.5518
11
95.9642
21
-48.5514
0
LINE
8
BLACK
6
CONTINUOUS
10
95.9642
20
-48.5514
11
95.965
21
-48.5494
0
LINE
8
BLACK
6
CONTINUOUS
10
95.965
20
-48.5494
11
95.9659
21
-48.5473
0
LINE
8
BLACK
6
CONTINUOUS
10
95.9659
20
-48.5473
11
96.2452
21
-48.022
0
LINE
8
BLACK
6
CONTINUOUS
10
96.2452
20
-48.022
11
96.2452
21
-48.022
0
LINE
8
BLACK
6
CONTINUOUS
10
96.2452
20
-48.022
11
96.2452
21
-48.022
0
LINE
8
BLACK
6
CONTINUOUS
10
96.2452
20
-48.022
11
96.2453
21
-48.0217
0
LINE
8
BLACK
6
CONTINUOUS
10
96.2453
20
-48.0217
11
96.2466
21
-48.0199
0
LINE
8
BLACK
6
CONTINUOUS
10
96.2466
20
-48.0199
11
96.2479
21
-48.018
0
LINE
8
BLACK
6
CONTINUOUS
10
96.2479
20
-48.018
11
96.6238
21
-47.557
0
LINE
8
BLACK
6
CONTINUOUS
10
96.6238
20
-47.557
11
96.6239
21
-47.557
0
LINE
8
BLACK
6
CONTINUOUS
10
96.6239
20
-47.557
11
96.6239
21
-47.557
0
LINE
8
BLACK
6
CONTINUOUS
10
96.6239
20
-47.557
11
96.6241
21
-47.5567
0
LINE
8
BLACK
6
CONTINUOUS
10
96.6241
20
-47.5567
11
96.6257
21
-47.5551
0
LINE
8
BLACK
6
CONTINUOUS
10
96.6257
20
-47.5551
11
96.6273
21
-47.5535
0
LINE
8
BLACK
6
CONTINUOUS
10
96.6273
20
-47.5535
11
97.0856
21
-47.1743
0
LINE
8
BLACK
6
CONTINUOUS
10
97.0856
20
-47.1743
11
97.0859
21
-47.1741
0
LINE
8
BLACK
6
CONTINUOUS
10
97.0859
20
-47.1741
11
97.0878
21
-47.1729
0
LINE
8
BLACK
6
CONTINUOUS
10
97.0878
20
-47.1729
11
97.0897
21
-47.1716
0
LINE
8
BLACK
6
CONTINUOUS
10
97.0897
20
-47.1716
11
97.613
21
-46.8887
0
LINE
8
BLACK
6
CONTINUOUS
10
97.613
20
-46.8887
11
97.613
21
-46.8887
0
LINE
8
BLACK
6
CONTINUOUS
10
97.613
20
-46.8887
11
97.613
21
-46.8887
0
LINE
8
BLACK
6
CONTINUOUS
10
97.613
20
-46.8887
11
97.6133
21
-46.8885
0
LINE
8
BLACK
6
CONTINUOUS
10
97.6133
20
-46.8885
11
97.6154
21
-46.8876
0
LINE
8
BLACK
6
CONTINUOUS
10
97.6154
20
-46.8876
11
97.6175
21
-46.8868
0
LINE
8
BLACK
6
CONTINUOUS
10
97.6175
20
-46.8868
11
98.1857
21
-46.7109
0
LINE
8
BLACK
6
CONTINUOUS
10
98.1857
20
-46.7109
11
98.1861
21
-46.7108
0
LINE
8
BLACK
6
CONTINUOUS
10
98.1861
20
-46.7108
11
98.1883
21
-46.7103
0
LINE
8
BLACK
6
CONTINUOUS
10
98.1883
20
-46.7103
11
98.1905
21
-46.7099
0
LINE
8
BLACK
6
CONTINUOUS
10
98.1905
20
-46.7099
11
98.7821
21
-46.6477
0
LINE
8
BLACK
6
CONTINUOUS
10
98.7821
20
-46.6477
11
98.7825
21
-46.6477
0
LINE
8
BLACK
6
CONTINUOUS
10
98.7825
20
-46.6477
11
98.7836
21
-46.6477
0
LINE
8
BLACK
6
CONTINUOUS
10
98.7836
20
-46.6477
11
98.7846
21
-46.6476
0
LINE
8
BLACK
6
CONTINUOUS
10
98.7846
20
-46.6476
11
98.8047
21
-46.6475
0
LINE
8
BLACK
6
CONTINUOUS
10
98.8047
20
-46.6475
11
98.8048
21
-46.6475
0
LINE
8
BLACK
6
CONTINUOUS
10
98.8048
20
-46.6475
11
169.673
21
-46.6475
0
LINE
8
BLACK
6
CONTINUOUS
10
169.673
20
-46.6475
11
169.674
21
-46.6476
0
LINE
8
BLACK
6
CONTINUOUS
10
169.674
20
-46.6476
11
169.674
21
-46.6476
0
LINE
8
BLACK
6
CONTINUOUS
10
169.674
20
-46.6476
11
170.266
21
-46.7057
0
LINE
8
BLACK
6
CONTINUOUS
10
170.266
20
-46.7057
11
170.267
21
-46.7057
0
LINE
8
BLACK
6
CONTINUOUS
10
170.267
20
-46.7057
11
170.269
21
-46.7062
0
LINE
8
BLACK
6
CONTINUOUS
10
170.269
20
-46.7062
11
170.271
21
-46.7066
0
LINE
8
BLACK
6
CONTINUOUS
10
170.271
20
-46.7066
11
170.841
21
-46.8786
0
LINE
8
BLACK
6
CONTINUOUS
10
170.841
20
-46.8786
11
170.841
21
-46.8787
0
LINE
8
BLACK
6
CONTINUOUS
10
170.841
20
-46.8787
11
170.843
21
-46.8795
0
LINE
8
BLACK
6
CONTINUOUS
10
170.843
20
-46.8795
11
170.845
21
-46.8804
0
LINE
8
BLACK
6
CONTINUOUS
10
170.845
20
-46.8804
11
171.37
21
-47.1597
0
LINE
8
BLACK
6
CONTINUOUS
10
171.37
20
-47.1597
11
171.37
21
-47.1597
0
LINE
8
BLACK
6
CONTINUOUS
10
171.37
20
-47.1597
11
171.37
21
-47.1597
0
LINE
8
BLACK
6
CONTINUOUS
10
171.37
20
-47.1597
11
171.371
21
-47.1598
0
LINE
8
BLACK
6
CONTINUOUS
10
171.371
20
-47.1598
11
171.373
21
-47.1611
0
LINE
8
BLACK
6
CONTINUOUS
10
171.373
20
-47.1611
11
171.375
21
-47.1624
0
LINE
8
BLACK
6
CONTINUOUS
10
171.375
20
-47.1624
11
171.836
21
-47.5384
0
LINE
8
BLACK
6
CONTINUOUS
10
171.836
20
-47.5384
11
171.836
21
-47.5384
0
LINE
8
BLACK
6
CONTINUOUS
10
171.836
20
-47.5384
11
171.836
21
-47.5384
0
LINE
8
BLACK
6
CONTINUOUS
10
171.836
20
-47.5384
11
171.836
21
-47.5386
0
LINE
8
BLACK
6
CONTINUOUS
10
171.836
20
-47.5386
11
171.837
21
-47.5402
0
LINE
8
BLACK
6
CONTINUOUS
10
171.837
20
-47.5402
11
171.839
21
-47.5418
0
LINE
8
BLACK
6
CONTINUOUS
10
171.839
20
-47.5418
11
172.218
21
-48.0001
0
LINE
8
BLACK
6
CONTINUOUS
10
172.218
20
-48.0001
11
172.218
21
-48.0004
0
LINE
8
BLACK
6
CONTINUOUS
10
172.218
20
-48.0004
11
172.22
21
-48.0023
0
LINE
8
BLACK
6
CONTINUOUS
10
172.22
20
-48.0023
11
172.221
21
-48.0042
0
LINE
8
BLACK
6
CONTINUOUS
10
172.221
20
-48.0042
11
172.504
21
-48.5275
0
LINE
8
BLACK
6
CONTINUOUS
10
172.504
20
-48.5275
11
172.504
21
-48.5275
0
LINE
8
BLACK
6
CONTINUOUS
10
172.504
20
-48.5275
11
172.504
21
-48.5275
0
LINE
8
BLACK
6
CONTINUOUS
10
172.504
20
-48.5275
11
172.504
21
-48.5278
0
LINE
8
BLACK
6
CONTINUOUS
10
172.504
20
-48.5278
11
172.505
21
-48.5299
0
LINE
8
BLACK
6
CONTINUOUS
10
172.505
20
-48.5299
11
172.506
21
-48.532
0
LINE
8
BLACK
6
CONTINUOUS
10
172.506
20
-48.532
11
172.682
21
-49.1002
0
LINE
8
BLACK
6
CONTINUOUS
10
172.682
20
-49.1002
11
172.682
21
-49.1006
0
LINE
8
BLACK
6
CONTINUOUS
10
172.682
20
-49.1006
11
172.682
21
-49.1028
0
LINE
8
BLACK
6
CONTINUOUS
10
172.682
20
-49.1028
11
172.683
21
-49.105
0
LINE
8
BLACK
6
CONTINUOUS
10
172.683
20
-49.105
11
172.745
21
-49.6966
0
LINE
8
BLACK
6
CONTINUOUS
10
172.745
20
-49.6966
11
172.745
21
-49.697
0
LINE
8
BLACK
6
CONTINUOUS
10
172.745
20
-49.697
11
172.745
21
-49.6981
0
LINE
8
BLACK
6
CONTINUOUS
10
172.745
20
-49.6981
11
172.745
21
-49.6991
0
LINE
8
BLACK
6
CONTINUOUS
10
172.745
20
-49.6991
11
172.745
21
-49.7192
0
LINE
8
BLACK
6
CONTINUOUS
10
172.745
20
-49.7192
11
172.745
21
-49.7193
0
LINE
8
BLACK
6
CONTINUOUS
10
172.745
20
-49.7193
11
172.745
21
-113.666
0
LINE
8
BLACK
6
CONTINUOUS
10
172.745
20
-113.666
11
172.745
21
-113.667
0
LINE
8
BLACK
6
CONTINUOUS
10
172.745
20
-113.667
11
172.745
21
-113.667
0
LINE
8
BLACK
6
CONTINUOUS
10
172.745
20
-113.667
11
172.687
21
-114.259
0
LINE
8
BLACK
6
CONTINUOUS
10
172.687
20
-114.259
11
172.687
21
-114.26
0
LINE
8
BLACK
6
CONTINUOUS
10
172.687
20
-114.26
11
172.686
21
-114.262
0
LINE
8
BLACK
6
CONTINUOUS
10
172.686
20
-114.262
11
172.686
21
-114.264
0
LINE
8
BLACK
6
CONTINUOUS
10
172.686
20
-114.264
11
172.514
21
-114.834
0
LINE
8
BLACK
6
CONTINUOUS
10
172.514
20
-114.834
11
172.514
21
-114.834
0
LINE
8
BLACK
6
CONTINUOUS
10
172.514
20
-114.834
11
172.513
21
-114.836
0
LINE
8
BLACK
6
CONTINUOUS
10
172.513
20
-114.836
11
172.512
21
-114.838
0
LINE
8
BLACK
6
CONTINUOUS
10
172.512
20
-114.838
11
172.233
21
-115.363
0
LINE
8
BLACK
6
CONTINUOUS
10
172.233
20
-115.363
11
172.233
21
-115.364
0
LINE
8
BLACK
6
CONTINUOUS
10
172.233
20
-115.364
11
172.231
21
-115.366
0
LINE
8
BLACK
6
CONTINUOUS
10
172.231
20
-115.366
11
172.23
21
-115.368
0
LINE
8
BLACK
6
CONTINUOUS
10
172.23
20
-115.368
11
171.854
21
-115.829
0
LINE
8
BLACK
6
CONTINUOUS
10
171.854
20
-115.829
11
171.854
21
-115.829
0
LINE
8
BLACK
6
CONTINUOUS
10
171.854
20
-115.829
11
171.852
21
-115.83
0
LINE
8
BLACK
6
CONTINUOUS
10
171.852
20
-115.83
11
171.851
21
-115.832
0
LINE
8
BLACK
6
CONTINUOUS
10
171.851
20
-115.832
11
171.392
21
-116.211
0
LINE
8
BLACK
6
CONTINUOUS
10
171.392
20
-116.211
11
171.392
21
-116.211
0
LINE
8
BLACK
6
CONTINUOUS
10
171.392
20
-116.211
11
171.39
21
-116.213
0
LINE
8
BLACK
6
CONTINUOUS
10
171.39
20
-116.213
11
171.388
21
-116.214
0
LINE
8
BLACK
6
CONTINUOUS
10
171.388
20
-116.214
11
170.865
21
-116.497
0
LINE
8
BLACK
6
CONTINUOUS
10
170.865
20
-116.497
11
170.865
21
-116.497
0
LINE
8
BLACK
6
CONTINUOUS
10
170.865
20
-116.497
11
170.863
21
-116.498
0
LINE
8
BLACK
6
CONTINUOUS
10
170.863
20
-116.498
11
170.861
21
-116.499
0
LINE
8
BLACK
6
CONTINUOUS
10
170.861
20
-116.499
11
170.292
21
-116.675
0
LINE
8
BLACK
6
CONTINUOUS
10
170.292
20
-116.675
11
170.292
21
-116.675
0
LINE
8
BLACK
6
CONTINUOUS
10
170.292
20
-116.675
11
170.29
21
-116.675
0
LINE
8
BLACK
6
CONTINUOUS
10
170.29
20
-116.675
11
170.287
21
-116.676
0
LINE
8
BLACK
6
CONTINUOUS
10
170.287
20
-116.676
11
169.696
21
-116.738
0
LINE
8
BLACK
6
CONTINUOUS
10
169.696
20
-116.738
11
169.696
21
-116.738
0
LINE
8
BLACK
6
CONTINUOUS
10
169.696
20
-116.738
11
169.694
21
-116.738
0
LINE
8
BLACK
6
CONTINUOUS
10
169.694
20
-116.738
11
169.693
21
-116.738
0
LINE
8
BLACK
6
CONTINUOUS
10
169.693
20
-116.738
11
169.673
21
-116.738
0
LINE
8
BLACK
6
CONTINUOUS
10
169.673
20
-116.738
11
169.673
21
-116.738
0
LINE
8
BLACK
6
CONTINUOUS
10
169.673
20
-116.738
11
98.8048
21
-116.738
0
LINE
8
BLACK
6
CONTINUOUS
10
98.8048
20
-116.738
11
98.8036
21
-116.738
0
LINE
8
BLACK
6
CONTINUOUS
10
98.8061
20
-46.6975
11
98.7861
21
-46.6976
0
LINE
8
BLACK
6
CONTINUOUS
10
98.7861
20
-46.6976
11
98.1982
21
-46.7594
0
LINE
8
BLACK
6
CONTINUOUS
10
98.1982
20
-46.7594
11
97.6346
21
-46.9338
0
LINE
8
BLACK
6
CONTINUOUS
10
97.6346
20
-46.9338
11
97.1156
21
-47.2144
0
LINE
8
BLACK
6
CONTINUOUS
10
97.1156
20
-47.2144
11
96.661
21
-47.5905
0
LINE
8
BLACK
6
CONTINUOUS
10
96.661
20
-47.5905
11
96.2882
21
-48.0477
0
LINE
8
BLACK
6
CONTINUOUS
10
96.2882
20
-48.0477
11
96.0112
21
-48.5686
0
LINE
8
BLACK
6
CONTINUOUS
10
96.0112
20
-48.5686
11
95.8407
21
-49.1334
0
LINE
8
BLACK
6
CONTINUOUS
10
95.8407
20
-49.1334
11
95.783
21
-49.7217
0
LINE
8
BLACK
6
CONTINUOUS
10
95.783
20
-49.7217
11
95.783
21
-113.665
0
LINE
8
BLACK
6
CONTINUOUS
10
95.783
20
-113.665
11
95.7831
21
-113.685
0
LINE
8
BLACK
6
CONTINUOUS
10
95.7831
20
-113.685
11
95.8449
21
-114.273
0
LINE
8
BLACK
6
CONTINUOUS
10
95.8449
20
-114.273
11
96.0193
21
-114.836
0
LINE
8
BLACK
6
CONTINUOUS
10
96.0193
20
-114.836
11
96.2999
21
-115.355
0
LINE
8
BLACK
6
CONTINUOUS
10
96.2999
20
-115.355
11
96.676
21
-115.81
0
LINE
8
BLACK
6
CONTINUOUS
10
96.676
20
-115.81
11
97.1332
21
-116.183
0
LINE
8
BLACK
6
CONTINUOUS
10
97.1332
20
-116.183
11
97.6541
21
-116.46
0
LINE
8
BLACK
6
CONTINUOUS
10
97.6541
20
-116.46
11
98.2189
21
-116.63
0
LINE
8
BLACK
6
CONTINUOUS
10
98.2189
20
-116.63
11
98.8072
21
-116.688
0
LINE
8
BLACK
6
CONTINUOUS
10
98.8072
20
-116.688
11
169.672
21
-116.688
0
LINE
8
BLACK
6
CONTINUOUS
10
169.672
20
-116.688
11
169.692
21
-116.688
0
LINE
8
BLACK
6
CONTINUOUS
10
169.692
20
-116.688
11
170.28
21
-116.626
0
LINE
8
BLACK
6
CONTINUOUS
10
170.28
20
-116.626
11
170.843
21
-116.452
0
LINE
8
BLACK
6
CONTINUOUS
10
170.843
20
-116.452
11
171.362
21
-116.171
0
LINE
8
BLACK
6
CONTINUOUS
10
171.362
20
-116.171
11
171.817
21
-115.795
0
LINE
8
BLACK
6
CONTINUOUS
10
171.817
20
-115.795
11
172.19
21
-115.338
0
LINE
8
BLACK
6
CONTINUOUS
10
172.19
20
-115.338
11
172.467
21
-114.817
0
LINE
8
BLACK
6
CONTINUOUS
10
172.467
20
-114.817
11
172.637
21
-114.252
0
LINE
8
BLACK
6
CONTINUOUS
10
172.637
20
-114.252
11
172.695
21
-113.664
0
LINE
8
BLACK
6
CONTINUOUS
10
172.695
20
-113.664
11
172.695
21
-49.7206
0
LINE
8
BLACK
6
CONTINUOUS
10
172.695
20
-49.7206
11
172.695
21
-49.7006
0
LINE
8
BLACK
6
CONTINUOUS
10
172.695
20
-49.7006
11
172.633
21
-49.1127
0
LINE
8
BLACK
6
CONTINUOUS
10
172.633
20
-49.1127
11
172.459
21
-48.5491
0
LINE
8
BLACK
6
CONTINUOUS
10
172.459
20
-48.5491
11
172.178
21
-48.0301
0
LINE
8
BLACK
6
CONTINUOUS
10
172.178
20
-48.0301
11
171.802
21
-47.5755
0
LINE
8
BLACK
6
CONTINUOUS
10
171.802
20
-47.5755
11
171.345
21
-47.2027
0
LINE
8
BLACK
6
CONTINUOUS
10
171.345
20
-47.2027
11
170.824
21
-46.9257
0
LINE
8
BLACK
6
CONTINUOUS
10
170.824
20
-46.9257
11
170.259
21
-46.7552
0
LINE
8
BLACK
6
CONTINUOUS
10
170.259
20
-46.7552
11
169.671
21
-46.6975
0
LINE
8
BLACK
6
CONTINUOUS
10
169.671
20
-46.6975
11
98.8061
21
-46.6975
0
LINE
8
BLACK
6
CONTINUOUS
10
164.796
20
-94.9456
11
164.796
21
-94.9456
0
LINE
8
BLACK
6
CONTINUOUS
10
164.796
20
-94.9456
11
164.8
21
-94.946
0
LINE
8
BLACK
6
CONTINUOUS
10
164.8
20
-94.946
11
164.805
21
-94.9474
0
LINE
8
BLACK
6
CONTINUOUS
10
164.805
20
-94.9474
11
164.809
21
-94.9497
0
LINE
8
BLACK
6
CONTINUOUS
10
164.809
20
-94.9497
11
164.813
21
-94.9528
0
LINE
8
BLACK
6
CONTINUOUS
10
164.813
20
-94.9528
11
164.816
21
-94.9566
0
LINE
8
BLACK
6
CONTINUOUS
10
164.816
20
-94.9566
11
164.818
21
-94.961
0
LINE
8
BLACK
6
CONTINUOUS
10
164.818
20
-94.961
11
164.82
21
-94.9657
0
LINE
8
BLACK
6
CONTINUOUS
10
164.82
20
-94.9657
11
164.82
21
-94.9706
0
LINE
8
BLACK
6
CONTINUOUS
10
164.82
20
-94.9706
11
164.82
21
-94.9718
0
LINE
8
BLACK
6
CONTINUOUS
10
164.82
20
-94.9718
11
164.82
21
-97.9412
0
LINE
8
BLACK
6
CONTINUOUS
10
164.82
20
-97.9412
11
164.82
21
-97.9424
0
LINE
8
BLACK
6
CONTINUOUS
10
164.82
20
-97.9424
11
164.82
21
-97.9436
0
LINE
8
BLACK
6
CONTINUOUS
10
164.82
20
-97.9436
11
164.82
21
-97.9436
0
LINE
8
BLACK
6
CONTINUOUS
10
164.82
20
-97.9436
11
164.82
21
-97.9473
0
LINE
8
BLACK
6
CONTINUOUS
10
164.82
20
-97.9473
11
164.818
21
-97.952
0
LINE
8
BLACK
6
CONTINUOUS
10
164.818
20
-97.952
11
164.816
21
-97.9564
0
LINE
8
BLACK
6
CONTINUOUS
10
164.816
20
-97.9564
11
164.813
21
-97.9602
0
LINE
8
BLACK
6
CONTINUOUS
10
164.813
20
-97.9602
11
164.809
21
-97.9633
0
LINE
8
BLACK
6
CONTINUOUS
10
164.809
20
-97.9633
11
164.805
21
-97.9656
0
LINE
8
BLACK
6
CONTINUOUS
10
164.805
20
-97.9656
11
164.8
21
-97.967
0
LINE
8
BLACK
6
CONTINUOUS
10
164.8
20
-97.967
11
164.795
21
-97.9675
0
LINE
8
BLACK
6
CONTINUOUS
10
164.795
20
-97.9675
11
164.794
21
-97.9674
0
LINE
8
BLACK
6
CONTINUOUS
10
164.794
20
-97.9674
11
161.444
21
-97.9674
0
LINE
8
BLACK
6
CONTINUOUS
10
161.444
20
-97.9674
11
161.442
21
-97.9675
0
LINE
8
BLACK
6
CONTINUOUS
10
161.442
20
-97.9675
11
161.437
21
-97.967
0
LINE
8
BLACK
6
CONTINUOUS
10
161.437
20
-97.967
11
161.433
21
-97.9656
0
LINE
8
BLACK
6
CONTINUOUS
10
161.433
20
-97.9656
11
161.428
21
-97.9633
0
LINE
8
BLACK
6
CONTINUOUS
10
161.428
20
-97.9633
11
161.425
21
-97.9602
0
LINE
8
BLACK
6
CONTINUOUS
10
161.425
20
-97.9602
11
161.422
21
-97.9564
0
LINE
8
BLACK
6
CONTINUOUS
10
161.422
20
-97.9564
11
161.419
21
-97.952
0
LINE
8
BLACK
6
CONTINUOUS
10
161.419
20
-97.952
11
161.418
21
-97.9473
0
LINE
8
BLACK
6
CONTINUOUS
10
161.418
20
-97.9473
11
161.417
21
-97.9424
0
LINE
8
BLACK
6
CONTINUOUS
10
161.417
20
-97.9424
11
161.417
21
-97.9412
0
LINE
8
BLACK
6
CONTINUOUS
10
161.417
20
-97.9412
11
161.417
21
-94.9718
0
LINE
8
BLACK
6
CONTINUOUS
10
161.417
20
-94.9718
11
161.417
21
-94.9706
0
LINE
8
BLACK
6
CONTINUOUS
10
161.417
20
-94.9706
11
161.418
21
-94.9657
0
LINE
8
BLACK
6
CONTINUOUS
10
161.418
20
-94.9657
11
161.419
21
-94.961
0
LINE
8
BLACK
6
CONTINUOUS
10
161.419
20
-94.961
11
161.422
21
-94.9566
0
LINE
8
BLACK
6
CONTINUOUS
10
161.422
20
-94.9566
11
161.425
21
-94.9528
0
LINE
8
BLACK
6
CONTINUOUS
10
161.425
20
-94.9528
11
161.428
21
-94.9497
0
LINE
8
BLACK
6
CONTINUOUS
10
161.428
20
-94.9497
11
161.433
21
-94.9474
0
LINE
8
BLACK
6
CONTINUOUS
10
161.433
20
-94.9474
11
161.437
21
-94.946
0
LINE
8
BLACK
6
CONTINUOUS
10
161.437
20
-94.946
11
161.441
21
-94.9456
0
LINE
8
BLACK
6
CONTINUOUS
10
161.441
20
-94.9456
11
161.441
21
-94.9456
0
LINE
8
BLACK
6
CONTINUOUS
10
161.441
20
-94.9456
11
161.442
21
-94.9455
0
LINE
8
BLACK
6
CONTINUOUS
10
161.442
20
-94.9455
11
161.444
21
-94.9456
0
LINE
8
BLACK
6
CONTINUOUS
10
161.444
20
-94.9456
11
164.794
21
-94.9456
0
LINE
8
BLACK
6
CONTINUOUS
10
164.794
20
-94.9456
11
164.795
21
-94.9455
0
LINE
8
BLACK
6
CONTINUOUS
10
164.795
20
-94.9455
11
164.796
21
-94.9456
0
LINE
8
BLACK
6
CONTINUOUS
10
161.467
20
-94.9956
11
161.467
21
-97.9174
0
LINE
8
BLACK
6
CONTINUOUS
10
161.467
20
-97.9174
11
164.77
21
-97.9174
0
LINE
8
BLACK
6
CONTINUOUS
10
164.77
20
-97.9174
11
164.77
21
-94.9956
0
LINE
8
BLACK
6
CONTINUOUS
10
164.77
20
-94.9956
11
161.467
21
-94.9956
0
LINE
8
BLACK
6
CONTINUOUS
10
106.757
20
-94.9456
11
106.757
21
-94.9456
0
LINE
8
BLACK
6
CONTINUOUS
10
106.757
20
-94.9456
11
106.761
21
-94.946
0
LINE
8
BLACK
6
CONTINUOUS
10
106.761
20
-94.946
11
106.766
21
-94.9474
0
LINE
8
BLACK
6
CONTINUOUS
10
106.766
20
-94.9474
11
106.77
21
-94.9497
0
LINE
8
BLACK
6
CONTINUOUS
10
106.77
20
-94.9497
11
106.774
21
-94.9528
0
LINE
8
BLACK
6
CONTINUOUS
10
106.774
20
-94.9528
11
106.777
21
-94.9566
0
LINE
8
BLACK
6
CONTINUOUS
10
106.777
20
-94.9566
11
106.779
21
-94.961
0
LINE
8
BLACK
6
CONTINUOUS
10
106.779
20
-94.961
11
106.781
21
-94.9657
0
LINE
8
BLACK
6
CONTINUOUS
10
106.781
20
-94.9657
11
106.781
21
-94.9706
0
LINE
8
BLACK
6
CONTINUOUS
10
106.781
20
-94.9706
11
106.781
21
-94.9718
0
LINE
8
BLACK
6
CONTINUOUS
10
106.781
20
-94.9718
11
106.781
21
-97.9412
0
LINE
8
BLACK
6
CONTINUOUS
10
106.781
20
-97.9412
11
106.781
21
-97.9424
0
LINE
8
BLACK
6
CONTINUOUS
10
106.781
20
-97.9424
11
106.781
21
-97.9436
0
LINE
8
BLACK
6
CONTINUOUS
10
106.781
20
-97.9436
11
106.781
21
-97.9436
0
LINE
8
BLACK
6
CONTINUOUS
10
106.781
20
-97.9436
11
106.781
21
-97.9473
0
LINE
8
BLACK
6
CONTINUOUS
10
106.781
20
-97.9473
11
106.779
21
-97.952
0
LINE
8
BLACK
6
CONTINUOUS
10
106.779
20
-97.952
11
106.777
21
-97.9564
0
LINE
8
BLACK
6
CONTINUOUS
10
106.777
20
-97.9564
11
106.774
21
-97.9602
0
LINE
8
BLACK
6
CONTINUOUS
10
106.774
20
-97.9602
11
106.77
21
-97.9633
0
LINE
8
BLACK
6
CONTINUOUS
10
106.77
20
-97.9633
11
106.766
21
-97.9656
0
LINE
8
BLACK
6
CONTINUOUS
10
106.766
20
-97.9656
11
106.761
21
-97.967
0
LINE
8
BLACK
6
CONTINUOUS
10
106.761
20
-97.967
11
106.756
21
-97.9675
0
LINE
8
BLACK
6
CONTINUOUS
10
106.756
20
-97.9675
11
106.755
21
-97.9674
0
LINE
8
BLACK
6
CONTINUOUS
10
106.755
20
-97.9674
11
103.405
21
-97.9674
0
LINE
8
BLACK
6
CONTINUOUS
10
103.405
20
-97.9674
11
103.403
21
-97.9675
0
LINE
8
BLACK
6
CONTINUOUS
10
103.403
20
-97.9675
11
103.398
21
-97.967
0
LINE
8
BLACK
6
CONTINUOUS
10
103.398
20
-97.967
11
103.394
21
-97.9656
0
LINE
8
BLACK
6
CONTINUOUS
10
103.394
20
-97.9656
11
103.389
21
-97.9633
0
LINE
8
BLACK
6
CONTINUOUS
10
103.389
20
-97.9633
11
103.386
21
-97.9602
0
LINE
8
BLACK
6
CONTINUOUS
10
103.386
20
-97.9602
11
103.383
21
-97.9564
0
LINE
8
BLACK
6
CONTINUOUS
10
103.383
20
-97.9564
11
103.38
21
-97.952
0
LINE
8
BLACK
6
CONTINUOUS
10
103.38
20
-97.952
11
103.379
21
-97.9473
0
LINE
8
BLACK
6
CONTINUOUS
10
103.379
20
-97.9473
11
103.378
21
-97.9424
0
LINE
8
BLACK
6
CONTINUOUS
10
103.378
20
-97.9424
11
103.378
21
-97.9412
0
LINE
8
BLACK
6
CONTINUOUS
10
103.378
20
-97.9412
11
103.378
21
-94.9718
0
LINE
8
BLACK
6
CONTINUOUS
10
103.378
20
-94.9718
11
103.378
21
-94.9706
0
LINE
8
BLACK
6
CONTINUOUS
10
103.378
20
-94.9706
11
103.379
21
-94.9657
0
LINE
8
BLACK
6
CONTINUOUS
10
103.379
20
-94.9657
11
103.38
21
-94.961
0
LINE
8
BLACK
6
CONTINUOUS
10
103.38
20
-94.961
11
103.383
21
-94.9566
0
LINE
8
BLACK
6
CONTINUOUS
10
103.383
20
-94.9566
11
103.386
21
-94.9528
0
LINE
8
BLACK
6
CONTINUOUS
10
103.386
20
-94.9528
11
103.389
21
-94.9497
0
LINE
8
BLACK
6
CONTINUOUS
10
103.389
20
-94.9497
11
103.394
21
-94.9474
0
LINE
8
BLACK
6
CONTINUOUS
10
103.394
20
-94.9474
11
103.398
21
-94.946
0
LINE
8
BLACK
6
CONTINUOUS
10
103.398
20
-94.946
11
103.402
21
-94.9456
0
LINE
8
BLACK
6
CONTINUOUS
10
103.402
20
-94.9456
11
103.402
21
-94.9456
0
LINE
8
BLACK
6
CONTINUOUS
10
103.402
20
-94.9456
11
103.403
21
-94.9455
0
LINE
8
BLACK
6
CONTINUOUS
10
103.403
20
-94.9455
11
103.405
21
-94.9456
0
LINE
8
BLACK
6
CONTINUOUS
10
103.405
20
-94.9456
11
106.755
21
-94.9456
0
LINE
8
BLACK
6
CONTINUOUS
10
106.755
20
-94.9456
11
106.756
21
-94.9455
0
LINE
8
BLACK
6
CONTINUOUS
10
106.756
20
-94.9455
11
106.757
21
-94.9456
0
LINE
8
BLACK
6
CONTINUOUS
10
103.428
20
-94.9956
11
103.428
21
-97.9174
0
LINE
8
BLACK
6
CONTINUOUS
10
103.428
20
-97.9174
11
106.731
21
-97.9174
0
LINE
8
BLACK
6
CONTINUOUS
10
106.731
20
-97.9174
11
106.731
21
-94.9956
0
LINE
8
BLACK
6
CONTINUOUS
10
106.731
20
-94.9956
11
103.428
21
-94.9956
0
LINE
8
BLACK
6
CONTINUOUS
10
126.265
20
-94.9456
11
126.265
21
-94.9456
0
LINE
8
BLACK
6
CONTINUOUS
10
126.265
20
-94.9456
11
126.268
21
-94.946
0
LINE
8
BLACK
6
CONTINUOUS
10
126.268
20
-94.946
11
126.273
21
-94.9474
0
LINE
8
BLACK
6
CONTINUOUS
10
126.273
20
-94.9474
11
126.277
21
-94.9497
0
LINE
8
BLACK
6
CONTINUOUS
10
126.277
20
-94.9497
11
126.281
21
-94.9528
0
LINE
8
BLACK
6
CONTINUOUS
10
126.281
20
-94.9528
11
126.284
21
-94.9566
0
LINE
8
BLACK
6
CONTINUOUS
10
126.284
20
-94.9566
11
126.287
21
-94.961
0
LINE
8
BLACK
6
CONTINUOUS
10
126.287
20
-94.961
11
126.288
21
-94.9657
0
LINE
8
BLACK
6
CONTINUOUS
10
126.288
20
-94.9657
11
126.289
21
-94.9706
0
LINE
8
BLACK
6
CONTINUOUS
10
126.289
20
-94.9706
11
126.288
21
-94.9718
0
LINE
8
BLACK
6
CONTINUOUS
10
126.288
20
-94.9718
11
126.288
21
-97.9412
0
LINE
8
BLACK
6
CONTINUOUS
10
126.288
20
-97.9412
11
126.289
21
-97.9424
0
LINE
8
BLACK
6
CONTINUOUS
10
126.289
20
-97.9424
11
126.288
21
-97.9436
0
LINE
8
BLACK
6
CONTINUOUS
10
126.288
20
-97.9436
11
126.288
21
-97.9436
0
LINE
8
BLACK
6
CONTINUOUS
10
126.288
20
-97.9436
11
126.288
21
-97.9473
0
LINE
8
BLACK
6
CONTINUOUS
10
126.288
20
-97.9473
11
126.287
21
-97.952
0
LINE
8
BLACK
6
CONTINUOUS
10
126.287
20
-97.952
11
126.284
21
-97.9564
0
LINE
8
BLACK
6
CONTINUOUS
10
126.284
20
-97.9564
11
126.281
21
-97.9602
0
LINE
8
BLACK
6
CONTINUOUS
10
126.281
20
-97.9602
11
126.277
21
-97.9633
0
LINE
8
BLACK
6
CONTINUOUS
10
126.277
20
-97.9633
11
126.273
21
-97.9656
0
LINE
8
BLACK
6
CONTINUOUS
10
126.273
20
-97.9656
11
126.268
21
-97.967
0
LINE
8
BLACK
6
CONTINUOUS
10
126.268
20
-97.967
11
126.263
21
-97.9675
0
LINE
8
BLACK
6
CONTINUOUS
10
126.263
20
-97.9675
11
126.262
21
-97.9674
0
LINE
8
BLACK
6
CONTINUOUS
10
126.262
20
-97.9674
11
122.912
21
-97.9674
0
LINE
8
BLACK
6
CONTINUOUS
10
122.912
20
-97.9674
11
122.911
21
-97.9675
0
LINE
8
BLACK
6
CONTINUOUS
10
122.911
20
-97.9675
11
122.906
21
-97.967
0
LINE
8
BLACK
6
CONTINUOUS
10
122.906
20
-97.967
11
122.901
21
-97.9656
0
LINE
8
BLACK
6
CONTINUOUS
10
122.901
20
-97.9656
11
122.897
21
-97.9633
0
LINE
8
BLACK
6
CONTINUOUS
10
122.897
20
-97.9633
11
122.893
21
-97.9602
0
LINE
8
BLACK
6
CONTINUOUS
10
122.893
20
-97.9602
11
122.89
21
-97.9564
0
LINE
8
BLACK
6
CONTINUOUS
10
122.89
20
-97.9564
11
122.887
21
-97.952
0
LINE
8
BLACK
6
CONTINUOUS
10
122.887
20
-97.952
11
122.886
21
-97.9473
0
LINE
8
BLACK
6
CONTINUOUS
10
122.886
20
-97.9473
11
122.885
21
-97.9424
0
LINE
8
BLACK
6
CONTINUOUS
10
122.885
20
-97.9424
11
122.886
21
-97.9412
0
LINE
8
BLACK
6
CONTINUOUS
10
122.886
20
-97.9412
11
122.886
21
-94.9718
0
LINE
8
BLACK
6
CONTINUOUS
10
122.886
20
-94.9718
11
122.885
21
-94.9706
0
LINE
8
BLACK
6
CONTINUOUS
10
122.885
20
-94.9706
11
122.886
21
-94.9657
0
LINE
8
BLACK
6
CONTINUOUS
10
122.886
20
-94.9657
11
122.887
21
-94.961
0
LINE
8
BLACK
6
CONTINUOUS
10
122.887
20
-94.961
11
122.89
21
-94.9566
0
LINE
8
BLACK
6
CONTINUOUS
10
122.89
20
-94.9566
11
122.893
21
-94.9528
0
LINE
8
BLACK
6
CONTINUOUS
10
122.893
20
-94.9528
11
122.897
21
-94.9497
0
LINE
8
BLACK
6
CONTINUOUS
10
122.897
20
-94.9497
11
122.901
21
-94.9474
0
LINE
8
BLACK
6
CONTINUOUS
10
122.901
20
-94.9474
11
122.906
21
-94.946
0
LINE
8
BLACK
6
CONTINUOUS
10
122.906
20
-94.946
11
122.909
21
-94.9456
0
LINE
8
BLACK
6
CONTINUOUS
10
122.909
20
-94.9456
11
122.909
21
-94.9456
0
LINE
8
BLACK
6
CONTINUOUS
10
122.909
20
-94.9456
11
122.911
21
-94.9455
0
LINE
8
BLACK
6
CONTINUOUS
10
122.911
20
-94.9455
11
122.912
21
-94.9456
0
LINE
8
BLACK
6
CONTINUOUS
10
122.912
20
-94.9456
11
126.262
21
-94.9456
0
LINE
8
BLACK
6
CONTINUOUS
10
126.262
20
-94.9456
11
126.263
21
-94.9455
0
LINE
8
BLACK
6
CONTINUOUS
10
126.263
20
-94.9455
11
126.265
21
-94.9456
0
LINE
8
BLACK
6
CONTINUOUS
10
122.936
20
-94.9956
11
122.936
21
-97.9174
0
LINE
8
BLACK
6
CONTINUOUS
10
122.936
20
-97.9174
11
126.238
21
-97.9174
0
LINE
8
BLACK
6
CONTINUOUS
10
126.238
20
-97.9174
11
126.238
21
-94.9956
0
LINE
8
BLACK
6
CONTINUOUS
10
126.238
20
-94.9956
11
122.936
21
-94.9956
0
LINE
8
BLACK
6
CONTINUOUS
10
145.492
20
-94.9456
11
145.492
21
-94.9456
0
LINE
8
BLACK
6
CONTINUOUS
10
145.492
20
-94.9456
11
145.496
21
-94.946
0
LINE
8
BLACK
6
CONTINUOUS
10
145.496
20
-94.946
11
145.501
21
-94.9474
0
LINE
8
BLACK
6
CONTINUOUS
10
145.501
20
-94.9474
11
145.505
21
-94.9497
0
LINE
8
BLACK
6
CONTINUOUS
10
145.505
20
-94.9497
11
145.509
21
-94.9528
0
LINE
8
BLACK
6
CONTINUOUS
10
145.509
20
-94.9528
11
145.512
21
-94.9566
0
LINE
8
BLACK
6
CONTINUOUS
10
145.512
20
-94.9566
11
145.514
21
-94.961
0
LINE
8
BLACK
6
CONTINUOUS
10
145.514
20
-94.961
11
145.516
21
-94.9657
0
LINE
8
BLACK
6
CONTINUOUS
10
145.516
20
-94.9657
11
145.516
21
-94.9706
0
LINE
8
BLACK
6
CONTINUOUS
10
145.516
20
-94.9706
11
145.516
21
-94.9718
0
LINE
8
BLACK
6
CONTINUOUS
10
145.516
20
-94.9718
11
145.516
21
-97.9412
0
LINE
8
BLACK
6
CONTINUOUS
10
145.516
20
-97.9412
11
145.516
21
-97.9424
0
LINE
8
BLACK
6
CONTINUOUS
10
145.516
20
-97.9424
11
145.516
21
-97.9436
0
LINE
8
BLACK
6
CONTINUOUS
10
145.516
20
-97.9436
11
145.516
21
-97.9436
0
LINE
8
BLACK
6
CONTINUOUS
10
145.516
20
-97.9436
11
145.516
21
-97.9473
0
LINE
8
BLACK
6
CONTINUOUS
10
145.516
20
-97.9473
11
145.514
21
-97.952
0
LINE
8
BLACK
6
CONTINUOUS
10
145.514
20
-97.952
11
145.512
21
-97.9564
0
LINE
8
BLACK
6
CONTINUOUS
10
145.512
20
-97.9564
11
145.509
21
-97.9602
0
LINE
8
BLACK
6
CONTINUOUS
10
145.509
20
-97.9602
11
145.505
21
-97.9633
0
LINE
8
BLACK
6
CONTINUOUS
10
145.505
20
-97.9633
11
145.501
21
-97.9656
0
LINE
8
BLACK
6
CONTINUOUS
10
145.501
20
-97.9656
11
145.496
21
-97.967
0
LINE
8
BLACK
6
CONTINUOUS
10
145.496
20
-97.967
11
145.491
21
-97.9675
0
LINE
8
BLACK
6
CONTINUOUS
10
145.491
20
-97.9675
11
145.49
21
-97.9674
0
LINE
8
BLACK
6
CONTINUOUS
10
145.49
20
-97.9674
11
142.14
21
-97.9674
0
LINE
8
BLACK
6
CONTINUOUS
10
142.14
20
-97.9674
11
142.138
21
-97.9675
0
LINE
8
BLACK
6
CONTINUOUS
10
142.138
20
-97.9675
11
142.133
21
-97.967
0
LINE
8
BLACK
6
CONTINUOUS
10
142.133
20
-97.967
11
142.129
21
-97.9656
0
LINE
8
BLACK
6
CONTINUOUS
10
142.129
20
-97.9656
11
142.124
21
-97.9633
0
LINE
8
BLACK
6
CONTINUOUS
10
142.124
20
-97.9633
11
142.121
21
-97.9602
0
LINE
8
BLACK
6
CONTINUOUS
10
142.121
20
-97.9602
11
142.118
21
-97.9564
0
LINE
8
BLACK
6
CONTINUOUS
10
142.118
20
-97.9564
11
142.115
21
-97.952
0
LINE
8
BLACK
6
CONTINUOUS
10
142.115
20
-97.952
11
142.114
21
-97.9473
0
LINE
8
BLACK
6
CONTINUOUS
10
142.114
20
-97.9473
11
142.113
21
-97.9424
0
LINE
8
BLACK
6
CONTINUOUS
10
142.113
20
-97.9424
11
142.113
21
-97.9412
0
LINE
8
BLACK
6
CONTINUOUS
10
142.113
20
-97.9412
11
142.113
21
-94.9718
0
LINE
8
BLACK
6
CONTINUOUS
10
142.113
20
-94.9718
11
142.113
21
-94.9706
0
LINE
8
BLACK
6
CONTINUOUS
10
142.113
20
-94.9706
11
142.114
21
-94.9657
0
LINE
8
BLACK
6
CONTINUOUS
10
142.114
20
-94.9657
11
142.115
21
-94.961
0
LINE
8
BLACK
6
CONTINUOUS
10
142.115
20
-94.961
11
142.118
21
-94.9566
0
LINE
8
BLACK
6
CONTINUOUS
10
142.118
20
-94.9566
11
142.121
21
-94.9528
0
LINE
8
BLACK
6
CONTINUOUS
10
142.121
20
-94.9528
11
142.124
21
-94.9497
0
LINE
8
BLACK
6
CONTINUOUS
10
142.124
20
-94.9497
11
142.129
21
-94.9474
0
LINE
8
BLACK
6
CONTINUOUS
10
142.129
20
-94.9474
11
142.133
21
-94.946
0
LINE
8
BLACK
6
CONTINUOUS
10
142.133
20
-94.946
11
142.137
21
-94.9456
0
LINE
8
BLACK
6
CONTINUOUS
10
142.137
20
-94.9456
11
142.137
21
-94.9456
0
LINE
8
BLACK
6
CONTINUOUS
10
142.137
20
-94.9456
11
142.138
21
-94.9455
0
LINE
8
BLACK
6
CONTINUOUS
10
142.138
20
-94.9455
11
142.14
21
-94.9456
0
LINE
8
BLACK
6
CONTINUOUS
10
142.14
20
-94.9456
11
145.49
21
-94.9456
0
LINE
8
BLACK
6
CONTINUOUS
10
145.49
20
-94.9456
11
145.491
21
-94.9455
0
LINE
8
BLACK
6
CONTINUOUS
10
145.491
20
-94.9455
11
145.492
21
-94.9456
0
LINE
8
BLACK
6
CONTINUOUS
10
142.163
20
-94.9956
11
142.163
21
-97.9174
0
LINE
8
BLACK
6
CONTINUOUS
10
142.163
20
-97.9174
11
145.466
21
-97.9174
0
LINE
8
BLACK
6
CONTINUOUS
10
145.466
20
-97.9174
11
145.466
21
-94.9956
0
LINE
8
BLACK
6
CONTINUOUS
10
145.466
20
-94.9956
11
142.163
21
-94.9956
0
LINE
8
BLACK
6
CONTINUOUS
10
116.663
20
-91.5166
11
116.663
21
-91.5166
0
LINE
8
BLACK
6
CONTINUOUS
10
116.663
20
-91.5166
11
116.667
21
-91.517
0
LINE
8
BLACK
6
CONTINUOUS
10
116.667
20
-91.517
11
116.672
21
-91.5184
0
LINE
8
BLACK
6
CONTINUOUS
10
116.672
20
-91.5184
11
116.676
21
-91.5207
0
LINE
8
BLACK
6
CONTINUOUS
10
116.676
20
-91.5207
11
116.68
21
-91.5238
0
LINE
8
BLACK
6
CONTINUOUS
10
116.68
20
-91.5238
11
116.683
21
-91.5276
0
LINE
8
BLACK
6
CONTINUOUS
10
116.683
20
-91.5276
11
116.685
21
-91.532
0
LINE
8
BLACK
6
CONTINUOUS
10
116.685
20
-91.532
11
116.687
21
-91.5367
0
LINE
8
BLACK
6
CONTINUOUS
10
116.687
20
-91.5367
11
116.687
21
-91.5416
0
LINE
8
BLACK
6
CONTINUOUS
10
116.687
20
-91.5416
11
116.687
21
-91.5428
0
LINE
8
BLACK
6
CONTINUOUS
10
116.687
20
-91.5428
11
116.687
21
-94.5122
0
LINE
8
BLACK
6
CONTINUOUS
10
116.687
20
-94.5122
11
116.687
21
-94.5134
0
LINE
8
BLACK
6
CONTINUOUS
10
116.687
20
-94.5134
11
116.687
21
-94.5146
0
LINE
8
BLACK
6
CONTINUOUS
10
116.687
20
-94.5146
11
116.687
21
-94.5146
0
LINE
8
BLACK
6
CONTINUOUS
10
116.687
20
-94.5146
11
116.687
21
-94.5183
0
LINE
8
BLACK
6
CONTINUOUS
10
116.687
20
-94.5183
11
116.685
21
-94.523
0
LINE
8
BLACK
6
CONTINUOUS
10
116.685
20
-94.523
11
116.683
21
-94.5274
0
LINE
8
BLACK
6
CONTINUOUS
10
116.683
20
-94.5274
11
116.68
21
-94.5312
0
LINE
8
BLACK
6
CONTINUOUS
10
116.68
20
-94.5312
11
116.676
21
-94.5343
0
LINE
8
BLACK
6
CONTINUOUS
10
116.676
20
-94.5343
11
116.672
21
-94.5366
0
LINE
8
BLACK
6
CONTINUOUS
10
116.672
20
-94.5366
11
116.667
21
-94.538
0
LINE
8
BLACK
6
CONTINUOUS
10
116.667
20
-94.538
11
116.662
21
-94.5385
0
LINE
8
BLACK
6
CONTINUOUS
10
116.662
20
-94.5385
11
116.661
21
-94.5384
0
LINE
8
BLACK
6
CONTINUOUS
10
116.661
20
-94.5384
11
113.311
21
-94.5384
0
LINE
8
BLACK
6
CONTINUOUS
10
113.311
20
-94.5384
11
113.309
21
-94.5385
0
LINE
8
BLACK
6
CONTINUOUS
10
113.309
20
-94.5385
11
113.304
21
-94.538
0
LINE
8
BLACK
6
CONTINUOUS
10
113.304
20
-94.538
11
113.3
21
-94.5366
0
LINE
8
BLACK
6
CONTINUOUS
10
113.3
20
-94.5366
11
113.295
21
-94.5343
0
LINE
8
BLACK
6
CONTINUOUS
10
113.295
20
-94.5343
11
113.292
21
-94.5312
0
LINE
8
BLACK
6
CONTINUOUS
10
113.292
20
-94.5312
11
113.289
21
-94.5274
0
LINE
8
BLACK
6
CONTINUOUS
10
113.289
20
-94.5274
11
113.286
21
-94.523
0
LINE
8
BLACK
6
CONTINUOUS
10
113.286
20
-94.523
11
113.285
21
-94.5183
0
LINE
8
BLACK
6
CONTINUOUS
10
113.285
20
-94.5183
11
113.284
21
-94.5134
0
LINE
8
BLACK
6
CONTINUOUS
10
113.284
20
-94.5134
11
113.284
21
-94.5122
0
LINE
8
BLACK
6
CONTINUOUS
10
113.284
20
-94.5122
11
113.284
21
-91.5428
0
LINE
8
BLACK
6
CONTINUOUS
10
113.284
20
-91.5428
11
113.284
21
-91.5416
0
LINE
8
BLACK
6
CONTINUOUS
10
113.284
20
-91.5416
11
113.285
21
-91.5367
0
LINE
8
BLACK
6
CONTINUOUS
10
113.285
20
-91.5367
11
113.286
21
-91.532
0
LINE
8
BLACK
6
CONTINUOUS
10
113.286
20
-91.532
11
113.289
21
-91.5276
0
LINE
8
BLACK
6
CONTINUOUS
10
113.289
20
-91.5276
11
113.292
21
-91.5238
0
LINE
8
BLACK
6
CONTINUOUS
10
113.292
20
-91.5238
11
113.295
21
-91.5207
0
LINE
8
BLACK
6
CONTINUOUS
10
113.295
20
-91.5207
11
113.3
21
-91.5184
0
LINE
8
BLACK
6
CONTINUOUS
10
113.3
20
-91.5184
11
113.304
21
-91.517
0
LINE
8
BLACK
6
CONTINUOUS
10
113.304
20
-91.517
11
113.308
21
-91.5166
0
LINE
8
BLACK
6
CONTINUOUS
10
113.308
20
-91.5166
11
113.308
21
-91.5166
0
LINE
8
BLACK
6
CONTINUOUS
10
113.308
20
-91.5166
11
113.309
21
-91.5165
0
LINE
8
BLACK
6
CONTINUOUS
10
113.309
20
-91.5165
11
113.311
21
-91.5166
0
LINE
8
BLACK
6
CONTINUOUS
10
113.311
20
-91.5166
11
116.661
21
-91.5166
0
LINE
8
BLACK
6
CONTINUOUS
10
116.661
20
-91.5166
11
116.662
21
-91.5165
0
LINE
8
BLACK
6
CONTINUOUS
10
116.662
20
-91.5165
11
116.663
21
-91.5166
0
LINE
8
BLACK
6
CONTINUOUS
10
113.334
20
-91.5666
11
113.334
21
-94.4884
0
LINE
8
BLACK
6
CONTINUOUS
10
113.334
20
-94.4884
11
116.637
21
-94.4884
0
LINE
8
BLACK
6
CONTINUOUS
10
116.637
20
-94.4884
11
116.637
21
-91.5666
0
LINE
8
BLACK
6
CONTINUOUS
10
116.637
20
-91.5666
11
113.334
21
-91.5666
0
LINE
8
BLACK
6
CONTINUOUS
10
135.967
20
-91.5166
11
135.967
21
-91.5166
0
LINE
8
BLACK
6
CONTINUOUS
10
135.967
20
-91.5166
11
135.971
21
-91.517
0
LINE
8
BLACK
6
CONTINUOUS
10
135.971
20
-91.517
11
135.976
21
-91.5184
0
LINE
8
BLACK
6
CONTINUOUS
10
135.976
20
-91.5184
11
135.98
21
-91.5207
0
LINE
8
BLACK
6
CONTINUOUS
10
135.98
20
-91.5207
11
135.984
21
-91.5238
0
LINE
8
BLACK
6
CONTINUOUS
10
135.984
20
-91.5238
11
135.987
21
-91.5276
0
LINE
8
BLACK
6
CONTINUOUS
10
135.987
20
-91.5276
11
135.989
21
-91.532
0
LINE
8
BLACK
6
CONTINUOUS
10
135.989
20
-91.532
11
135.991
21
-91.5367
0
LINE
8
BLACK
6
CONTINUOUS
10
135.991
20
-91.5367
11
135.991
21
-91.5416
0
LINE
8
BLACK
6
CONTINUOUS
10
135.991
20
-91.5416
11
135.991
21
-91.5428
0
LINE
8
BLACK
6
CONTINUOUS
10
135.991
20
-91.5428
11
135.991
21
-94.5122
0
LINE
8
BLACK
6
CONTINUOUS
10
135.991
20
-94.5122
11
135.991
21
-94.5134
0
LINE
8
BLACK
6
CONTINUOUS
10
135.991
20
-94.5134
11
135.991
21
-94.5146
0
LINE
8
BLACK
6
CONTINUOUS
10
135.991
20
-94.5146
11
135.991
21
-94.5146
0
LINE
8
BLACK
6
CONTINUOUS
10
135.991
20
-94.5146
11
135.991
21
-94.5183
0
LINE
8
BLACK
6
CONTINUOUS
10
135.991
20
-94.5183
11
135.989
21
-94.523
0
LINE
8
BLACK
6
CONTINUOUS
10
135.989
20
-94.523
11
135.987
21
-94.5274
0
LINE
8
BLACK
6
CONTINUOUS
10
135.987
20
-94.5274
11
135.984
21
-94.5312
0
LINE
8
BLACK
6
CONTINUOUS
10
135.984
20
-94.5312
11
135.98
21
-94.5343
0
LINE
8
BLACK
6
CONTINUOUS
10
135.98
20
-94.5343
11
135.976
21
-94.5366
0
LINE
8
BLACK
6
CONTINUOUS
10
135.976
20
-94.5366
11
135.971
21
-94.538
0
LINE
8
BLACK
6
CONTINUOUS
10
135.971
20
-94.538
11
135.966
21
-94.5385
0
LINE
8
BLACK
6
CONTINUOUS
10
135.966
20
-94.5385
11
135.965
21
-94.5384
0
LINE
8
BLACK
6
CONTINUOUS
10
135.965
20
-94.5384
11
132.615
21
-94.5384
0
LINE
8
BLACK
6
CONTINUOUS
10
132.615
20
-94.5384
11
132.613
21
-94.5385
0
LINE
8
BLACK
6
CONTINUOUS
10
132.613
20
-94.5385
11
132.608
21
-94.538
0
LINE
8
BLACK
6
CONTINUOUS
10
132.608
20
-94.538
11
132.604
21
-94.5366
0
LINE
8
BLACK
6
CONTINUOUS
10
132.604
20
-94.5366
11
132.599
21
-94.5343
0
LINE
8
BLACK
6
CONTINUOUS
10
132.599
20
-94.5343
11
132.596
21
-94.5312
0
LINE
8
BLACK
6
CONTINUOUS
10
132.596
20
-94.5312
11
132.593
21
-94.5274
0
LINE
8
BLACK
6
CONTINUOUS
10
132.593
20
-94.5274
11
132.59
21
-94.523
0
LINE
8
BLACK
6
CONTINUOUS
10
132.59
20
-94.523
11
132.589
21
-94.5183
0
LINE
8
BLACK
6
CONTINUOUS
10
132.589
20
-94.5183
11
132.588
21
-94.5134
0
LINE
8
BLACK
6
CONTINUOUS
10
132.588
20
-94.5134
11
132.588
21
-94.5122
0
LINE
8
BLACK
6
CONTINUOUS
10
132.588
20
-94.5122
11
132.588
21
-91.5428
0
LINE
8
BLACK
6
CONTINUOUS
10
132.588
20
-91.5428
11
132.588
21
-91.5416
0
LINE
8
BLACK
6
CONTINUOUS
10
132.588
20
-91.5416
11
132.589
21
-91.5367
0
LINE
8
BLACK
6
CONTINUOUS
10
132.589
20
-91.5367
11
132.59
21
-91.532
0
LINE
8
BLACK
6
CONTINUOUS
10
132.59
20
-91.532
11
132.593
21
-91.5276
0
LINE
8
BLACK
6
CONTINUOUS
10
132.593
20
-91.5276
11
132.596
21
-91.5238
0
LINE
8
BLACK
6
CONTINUOUS
10
132.596
20
-91.5238
11
132.599
21
-91.5207
0
LINE
8
BLACK
6
CONTINUOUS
10
132.599
20
-91.5207
11
132.604
21
-91.5184
0
LINE
8
BLACK
6
CONTINUOUS
10
132.604
20
-91.5184
11
132.608
21
-91.517
0
LINE
8
BLACK
6
CONTINUOUS
10
132.608
20
-91.517
11
132.612
21
-91.5166
0
LINE
8
BLACK
6
CONTINUOUS
10
132.612
20
-91.5166
11
132.612
21
-91.5166
0
LINE
8
BLACK
6
CONTINUOUS
10
132.612
20
-91.5166
11
132.613
21
-91.5165
0
LINE
8
BLACK
6
CONTINUOUS
10
132.613
20
-91.5165
11
132.615
21
-91.5166
0
LINE
8
BLACK
6
CONTINUOUS
10
132.615
20
-91.5166
11
135.965
21
-91.5166
0
LINE
8
BLACK
6
CONTINUOUS
10
135.965
20
-91.5166
11
135.966
21
-91.5165
0
LINE
8
BLACK
6
CONTINUOUS
10
135.966
20
-91.5165
11
135.967
21
-91.5166
0
LINE
8
BLACK
6
CONTINUOUS
10
132.638
20
-91.5666
11
132.638
21
-94.4884
0
LINE
8
BLACK
6
CONTINUOUS
10
132.638
20
-94.4884
11
135.941
21
-94.4884
0
LINE
8
BLACK
6
CONTINUOUS
10
135.941
20
-94.4884
11
135.941
21
-91.5666
0
LINE
8
BLACK
6
CONTINUOUS
10
135.941
20
-91.5666
11
132.638
21
-91.5666
0
LINE
8
BLACK
6
CONTINUOUS
10
155.094
20
-89.7894
11
155.094
21
-89.7894
0
LINE
8
BLACK
6
CONTINUOUS
10
155.094
20
-89.7894
11
155.097
21
-89.7898
0
LINE
8
BLACK
6
CONTINUOUS
10
155.097
20
-89.7898
11
155.102
21
-89.7912
0
LINE
8
BLACK
6
CONTINUOUS
10
155.102
20
-89.7912
11
155.106
21
-89.7935
0
LINE
8
BLACK
6
CONTINUOUS
10
155.106
20
-89.7935
11
155.11
21
-89.7966
0
LINE
8
BLACK
6
CONTINUOUS
10
155.11
20
-89.7966
11
155.113
21
-89.8004
0
LINE
8
BLACK
6
CONTINUOUS
10
155.113
20
-89.8004
11
155.116
21
-89.8048
0
LINE
8
BLACK
6
CONTINUOUS
10
155.116
20
-89.8048
11
155.117
21
-89.8095
0
LINE
8
BLACK
6
CONTINUOUS
10
155.117
20
-89.8095
11
155.118
21
-89.8144
0
LINE
8
BLACK
6
CONTINUOUS
10
155.118
20
-89.8144
11
155.117
21
-89.8156
0
LINE
8
BLACK
6
CONTINUOUS
10
155.117
20
-89.8156
11
155.117
21
-92.785
0
LINE
8
BLACK
6
CONTINUOUS
10
155.117
20
-92.785
11
155.118
21
-92.7862
0
LINE
8
BLACK
6
CONTINUOUS
10
155.118
20
-92.7862
11
155.117
21
-92.7874
0
LINE
8
BLACK
6
CONTINUOUS
10
155.117
20
-92.7874
11
155.117
21
-92.7874
0
LINE
8
BLACK
6
CONTINUOUS
10
155.117
20
-92.7874
11
155.117
21
-92.7911
0
LINE
8
BLACK
6
CONTINUOUS
10
155.117
20
-92.7911
11
155.116
21
-92.7958
0
LINE
8
BLACK
6
CONTINUOUS
10
155.116
20
-92.7958
11
155.113
21
-92.8002
0
LINE
8
BLACK
6
CONTINUOUS
10
155.113
20
-92.8002
11
155.11
21
-92.804
0
LINE
8
BLACK
6
CONTINUOUS
10
155.11
20
-92.804
11
155.106
21
-92.8071
0
LINE
8
BLACK
6
CONTINUOUS
10
155.106
20
-92.8071
11
155.102
21
-92.8094
0
LINE
8
BLACK
6
CONTINUOUS
10
155.102
20
-92.8094
11
155.097
21
-92.8108
0
LINE
8
BLACK
6
CONTINUOUS
10
155.097
20
-92.8108
11
155.092
21
-92.8113
0
LINE
8
BLACK
6
CONTINUOUS
10
155.092
20
-92.8113
11
155.091
21
-92.8112
0
LINE
8
BLACK
6
CONTINUOUS
10
155.091
20
-92.8112
11
151.741
21
-92.8112
0
LINE
8
BLACK
6
CONTINUOUS
10
151.741
20
-92.8112
11
151.74
21
-92.8113
0
LINE
8
BLACK
6
CONTINUOUS
10
151.74
20
-92.8113
11
151.735
21
-92.8108
0
LINE
8
BLACK
6
CONTINUOUS
10
151.735
20
-92.8108
11
151.73
21
-92.8094
0
LINE
8
BLACK
6
CONTINUOUS
10
151.73
20
-92.8094
11
151.726
21
-92.8071
0
LINE
8
BLACK
6
CONTINUOUS
10
151.726
20
-92.8071
11
151.722
21
-92.804
0
LINE
8
BLACK
6
CONTINUOUS
10
151.722
20
-92.804
11
151.719
21
-92.8002
0
LINE
8
BLACK
6
CONTINUOUS
10
151.719
20
-92.8002
11
151.716
21
-92.7958
0
LINE
8
BLACK
6
CONTINUOUS
10
151.716
20
-92.7958
11
151.715
21
-92.7911
0
LINE
8
BLACK
6
CONTINUOUS
10
151.715
20
-92.7911
11
151.714
21
-92.7862
0
LINE
8
BLACK
6
CONTINUOUS
10
151.714
20
-92.7862
11
151.715
21
-92.785
0
LINE
8
BLACK
6
CONTINUOUS
10
151.715
20
-92.785
11
151.715
21
-89.8156
0
LINE
8
BLACK
6
CONTINUOUS
10
151.715
20
-89.8156
11
151.714
21
-89.8144
0
LINE
8
BLACK
6
CONTINUOUS
10
151.714
20
-89.8144
11
151.715
21
-89.8095
0
LINE
8
BLACK
6
CONTINUOUS
10
151.715
20
-89.8095
11
151.716
21
-89.8048
0
LINE
8
BLACK
6
CONTINUOUS
10
151.716
20
-89.8048
11
151.719
21
-89.8004
0
LINE
8
BLACK
6
CONTINUOUS
10
151.719
20
-89.8004
11
151.722
21
-89.7966
0
LINE
8
BLACK
6
CONTINUOUS
10
151.722
20
-89.7966
11
151.726
21
-89.7935
0
LINE
8
BLACK
6
CONTINUOUS
10
151.726
20
-89.7935
11
151.73
21
-89.7912
0
LINE
8
BLACK
6
CONTINUOUS
10
151.73
20
-89.7912
11
151.735
21
-89.7898
0
LINE
8
BLACK
6
CONTINUOUS
10
151.735
20
-89.7898
11
151.738
21
-89.7894
0
LINE
8
BLACK
6
CONTINUOUS
10
151.738
20
-89.7894
11
151.738
21
-89.7894
0
LINE
8
BLACK
6
CONTINUOUS
10
151.738
20
-89.7894
11
151.74
21
-89.7893
0
LINE
8
BLACK
6
CONTINUOUS
10
151.74
20
-89.7893
11
151.741
21
-89.7894
0
LINE
8
BLACK
6
CONTINUOUS
10
151.741
20
-89.7894
11
155.091
21
-89.7894
0
LINE
8
BLACK
6
CONTINUOUS
10
155.091
20
-89.7894
11
155.092
21
-89.7893
0
LINE
8
BLACK
6
CONTINUOUS
10
155.092
20
-89.7893
11
155.094
21
-89.7894
0
LINE
8
BLACK
6
CONTINUOUS
10
151.765
20
-89.8394
11
151.765
21
-92.7612
0
LINE
8
BLACK
6
CONTINUOUS
10
151.765
20
-92.7612
11
155.067
21
-92.7612
0
LINE
8
BLACK
6
CONTINUOUS
10
155.067
20
-92.7612
11
155.067
21
-89.8394
0
LINE
8
BLACK
6
CONTINUOUS
10
155.067
20
-89.8394
11
151.765
21
-89.8394
0
LINE
8
BLACK
6
CONTINUOUS
10
164.796
20
-75.6924
11
164.796
21
-75.6924
0
LINE
8
BLACK
6
CONTINUOUS
10
164.796
20
-75.6924
11
164.8
21
-75.6928
0
LINE
8
BLACK
6
CONTINUOUS
10
164.8
20
-75.6928
11
164.805
21
-75.6942
0
LINE
8
BLACK
6
CONTINUOUS
10
164.805
20
-75.6942
11
164.809
21
-75.6965
0
LINE
8
BLACK
6
CONTINUOUS
10
164.809
20
-75.6965
11
164.813
21
-75.6996
0
LINE
8
BLACK
6
CONTINUOUS
10
164.813
20
-75.6996
11
164.816
21
-75.7034
0
LINE
8
BLACK
6
CONTINUOUS
10
164.816
20
-75.7034
11
164.818
21
-75.7078
0
LINE
8
BLACK
6
CONTINUOUS
10
164.818
20
-75.7078
11
164.82
21
-75.7125
0
LINE
8
BLACK
6
CONTINUOUS
10
164.82
20
-75.7125
11
164.82
21
-75.7174
0
LINE
8
BLACK
6
CONTINUOUS
10
164.82
20
-75.7174
11
164.82
21
-75.7186
0
LINE
8
BLACK
6
CONTINUOUS
10
164.82
20
-75.7186
11
164.82
21
-78.688
0
LINE
8
BLACK
6
CONTINUOUS
10
164.82
20
-78.688
11
164.82
21
-78.6892
0
LINE
8
BLACK
6
CONTINUOUS
10
164.82
20
-78.6892
11
164.82
21
-78.6904
0
LINE
8
BLACK
6
CONTINUOUS
10
164.82
20
-78.6904
11
164.82
21
-78.6904
0
LINE
8
BLACK
6
CONTINUOUS
10
164.82
20
-78.6904
11
164.82
21
-78.6941
0
LINE
8
BLACK
6
CONTINUOUS
10
164.82
20
-78.6941
11
164.818
21
-78.6988
0
LINE
8
BLACK
6
CONTINUOUS
10
164.818
20
-78.6988
11
164.816
21
-78.7032
0
LINE
8
BLACK
6
CONTINUOUS
10
164.816
20
-78.7032
11
164.813
21
-78.707
0
LINE
8
BLACK
6
CONTINUOUS
10
164.813
20
-78.707
11
164.809
21
-78.7101
0
LINE
8
BLACK
6
CONTINUOUS
10
164.809
20
-78.7101
11
164.805
21
-78.7124
0
LINE
8
BLACK
6
CONTINUOUS
10
164.805
20
-78.7124
11
164.8
21
-78.7138
0
LINE
8
BLACK
6
CONTINUOUS
10
164.8
20
-78.7138
11
164.795
21
-78.7143
0
LINE
8
BLACK
6
CONTINUOUS
10
164.795
20
-78.7143
11
164.794
21
-78.7142
0
LINE
8
BLACK
6
CONTINUOUS
10
164.794
20
-78.7142
11
161.444
21
-78.7142
0
LINE
8
BLACK
6
CONTINUOUS
10
161.444
20
-78.7142
11
161.442
21
-78.7143
0
LINE
8
BLACK
6
CONTINUOUS
10
161.442
20
-78.7143
11
161.437
21
-78.7138
0
LINE
8
BLACK
6
CONTINUOUS
10
161.437
20
-78.7138
11
161.433
21
-78.7124
0
LINE
8
BLACK
6
CONTINUOUS
10
161.433
20
-78.7124
11
161.428
21
-78.7101
0
LINE
8
BLACK
6
CONTINUOUS
10
161.428
20
-78.7101
11
161.425
21
-78.707
0
LINE
8
BLACK
6
CONTINUOUS
10
161.425
20
-78.707
11
161.422
21
-78.7032
0
LINE
8
BLACK
6
CONTINUOUS
10
161.422
20
-78.7032
11
161.419
21
-78.6988
0
LINE
8
BLACK
6
CONTINUOUS
10
161.419
20
-78.6988
11
161.418
21
-78.6941
0
LINE
8
BLACK
6
CONTINUOUS
10
161.418
20
-78.6941
11
161.417
21
-78.6892
0
LINE
8
BLACK
6
CONTINUOUS
10
161.417
20
-78.6892
11
161.417
21
-78.688
0
LINE
8
BLACK
6
CONTINUOUS
10
161.417
20
-78.688
11
161.417
21
-75.7186
0
LINE
8
BLACK
6
CONTINUOUS
10
161.417
20
-75.7186
11
161.417
21
-75.7174
0
LINE
8
BLACK
6
CONTINUOUS
10
161.417
20
-75.7174
11
161.418
21
-75.7125
0
LINE
8
BLACK
6
CONTINUOUS
10
161.418
20
-75.7125
11
161.419
21
-75.7078
0
LINE
8
BLACK
6
CONTINUOUS
10
161.419
20
-75.7078
11
161.422
21
-75.7034
0
LINE
8
BLACK
6
CONTINUOUS
10
161.422
20
-75.7034
11
161.425
21
-75.6996
0
LINE
8
BLACK
6
CONTINUOUS
10
161.425
20
-75.6996
11
161.428
21
-75.6965
0
LINE
8
BLACK
6
CONTINUOUS
10
161.428
20
-75.6965
11
161.433
21
-75.6942
0
LINE
8
BLACK
6
CONTINUOUS
10
161.433
20
-75.6942
11
161.437
21
-75.6928
0
LINE
8
BLACK
6
CONTINUOUS
10
161.437
20
-75.6928
11
161.441
21
-75.6924
0
LINE
8
BLACK
6
CONTINUOUS
10
161.441
20
-75.6924
11
161.441
21
-75.6924
0
LINE
8
BLACK
6
CONTINUOUS
10
161.441
20
-75.6924
11
161.442
21
-75.6923
0
LINE
8
BLACK
6
CONTINUOUS
10
161.442
20
-75.6923
11
161.444
21
-75.6924
0
LINE
8
BLACK
6
CONTINUOUS
10
161.444
20
-75.6924
11
164.794
21
-75.6924
0
LINE
8
BLACK
6
CONTINUOUS
10
164.794
20
-75.6924
11
164.795
21
-75.6923
0
LINE
8
BLACK
6
CONTINUOUS
10
164.795
20
-75.6923
11
164.796
21
-75.6924
0
LINE
8
BLACK
6
CONTINUOUS
10
161.467
20
-75.7424
11
161.467
21
-78.6642
0
LINE
8
BLACK
6
CONTINUOUS
10
161.467
20
-78.6642
11
164.77
21
-78.6642
0
LINE
8
BLACK
6
CONTINUOUS
10
164.77
20
-78.6642
11
164.77
21
-75.7424
0
LINE
8
BLACK
6
CONTINUOUS
10
164.77
20
-75.7424
11
161.467
21
-75.7424
0
LINE
8
BLACK
6
CONTINUOUS
10
145.492
20
-75.6924
11
145.492
21
-75.6924
0
LINE
8
BLACK
6
CONTINUOUS
10
145.492
20
-75.6924
11
145.496
21
-75.6928
0
LINE
8
BLACK
6
CONTINUOUS
10
145.496
20
-75.6928
11
145.501
21
-75.6942
0
LINE
8
BLACK
6
CONTINUOUS
10
145.501
20
-75.6942
11
145.505
21
-75.6965
0
LINE
8
BLACK
6
CONTINUOUS
10
145.505
20
-75.6965
11
145.509
21
-75.6996
0
LINE
8
BLACK
6
CONTINUOUS
10
145.509
20
-75.6996
11
145.512
21
-75.7034
0
LINE
8
BLACK
6
CONTINUOUS
10
145.512
20
-75.7034
11
145.514
21
-75.7078
0
LINE
8
BLACK
6
CONTINUOUS
10
145.514
20
-75.7078
11
145.516
21
-75.7125
0
LINE
8
BLACK
6
CONTINUOUS
10
145.516
20
-75.7125
11
145.516
21
-75.7174
0
LINE
8
BLACK
6
CONTINUOUS
10
145.516
20
-75.7174
11
145.516
21
-75.7186
0
LINE
8
BLACK
6
CONTINUOUS
10
145.516
20
-75.7186
11
145.516
21
-78.688
0
LINE
8
BLACK
6
CONTINUOUS
10
145.516
20
-78.688
11
145.516
21
-78.6892
0
LINE
8
BLACK
6
CONTINUOUS
10
145.516
20
-78.6892
11
145.516
21
-78.6904
0
LINE
8
BLACK
6
CONTINUOUS
10
145.516
20
-78.6904
11
145.516
21
-78.6904
0
LINE
8
BLACK
6
CONTINUOUS
10
145.516
20
-78.6904
11
145.516
21
-78.6941
0
LINE
8
BLACK
6
CONTINUOUS
10
145.516
20
-78.6941
11
145.514
21
-78.6988
0
LINE
8
BLACK
6
CONTINUOUS
10
145.514
20
-78.6988
11
145.512
21
-78.7032
0
LINE
8
BLACK
6
CONTINUOUS
10
145.512
20
-78.7032
11
145.509
21
-78.707
0
LINE
8
BLACK
6
CONTINUOUS
10
145.509
20
-78.707
11
145.505
21
-78.7101
0
LINE
8
BLACK
6
CONTINUOUS
10
145.505
20
-78.7101
11
145.501
21
-78.7124
0
LINE
8
BLACK
6
CONTINUOUS
10
145.501
20
-78.7124
11
145.496
21
-78.7138
0
LINE
8
BLACK
6
CONTINUOUS
10
145.496
20
-78.7138
11
145.491
21
-78.7143
0
LINE
8
BLACK
6
CONTINUOUS
10
145.491
20
-78.7143
11
145.49
21
-78.7142
0
LINE
8
BLACK
6
CONTINUOUS
10
145.49
20
-78.7142
11
142.14
21
-78.7142
0
LINE
8
BLACK
6
CONTINUOUS
10
142.14
20
-78.7142
11
142.138
21
-78.7143
0
LINE
8
BLACK
6
CONTINUOUS
10
142.138
20
-78.7143
11
142.133
21
-78.7138
0
LINE
8
BLACK
6
CONTINUOUS
10
142.133
20
-78.7138
11
142.129
21
-78.7124
0
LINE
8
BLACK
6
CONTINUOUS
10
142.129
20
-78.7124
11
142.124
21
-78.7101
0
LINE
8
BLACK
6
CONTINUOUS
10
142.124
20
-78.7101
11
142.121
21
-78.707
0
LINE
8
BLACK
6
CONTINUOUS
10
142.121
20
-78.707
11
142.118
21
-78.7032
0
LINE
8
BLACK
6
CONTINUOUS
10
142.118
20
-78.7032
11
142.115
21
-78.6988
0
LINE
8
BLACK
6
CONTINUOUS
10
142.115
20
-78.6988
11
142.114
21
-78.6941
0
LINE
8
BLACK
6
CONTINUOUS
10
142.114
20
-78.6941
11
142.113
21
-78.6892
0
LINE
8
BLACK
6
CONTINUOUS
10
142.113
20
-78.6892
11
142.113
21
-78.688
0
LINE
8
BLACK
6
CONTINUOUS
10
142.113
20
-78.688
11
142.113
21
-75.7186
0
LINE
8
BLACK
6
CONTINUOUS
10
142.113
20
-75.7186
11
142.113
21
-75.7174
0
LINE
8
BLACK
6
CONTINUOUS
10
142.113
20
-75.7174
11
142.114
21
-75.7125
0
LINE
8
BLACK
6
CONTINUOUS
10
142.114
20
-75.7125
11
142.115
21
-75.7078
0
LINE
8
BLACK
6
CONTINUOUS
10
142.115
20
-75.7078
11
142.118
21
-75.7034
0
LINE
8
BLACK
6
CONTINUOUS
10
142.118
20
-75.7034
11
142.121
21
-75.6996
0
LINE
8
BLACK
6
CONTINUOUS
10
142.121
20
-75.6996
11
142.124
21
-75.6965
0
LINE
8
BLACK
6
CONTINUOUS
10
142.124
20
-75.6965
11
142.129
21
-75.6942
0
LINE
8
BLACK
6
CONTINUOUS
10
142.129
20
-75.6942
11
142.133
21
-75.6928
0
LINE
8
BLACK
6
CONTINUOUS
10
142.133
20
-75.6928
11
142.137
21
-75.6924
0
LINE
8
BLACK
6
CONTINUOUS
10
142.137
20
-75.6924
11
142.137
21
-75.6924
0
LINE
8
BLACK
6
CONTINUOUS
10
142.137
20
-75.6924
11
142.138
21
-75.6923
0
LINE
8
BLACK
6
CONTINUOUS
10
142.138
20
-75.6923
11
142.14
21
-75.6924
0
LINE
8
BLACK
6
CONTINUOUS
10
142.14
20
-75.6924
11
145.49
21
-75.6924
0
LINE
8
BLACK
6
CONTINUOUS
10
145.49
20
-75.6924
11
145.491
21
-75.6923
0
LINE
8
BLACK
6
CONTINUOUS
10
145.491
20
-75.6923
11
145.492
21
-75.6924
0
LINE
8
BLACK
6
CONTINUOUS
10
142.163
20
-75.7424
11
142.163
21
-78.6642
0
LINE
8
BLACK
6
CONTINUOUS
10
142.163
20
-78.6642
11
145.466
21
-78.6642
0
LINE
8
BLACK
6
CONTINUOUS
10
145.466
20
-78.6642
11
145.466
21
-75.7424
0
LINE
8
BLACK
6
CONTINUOUS
10
145.466
20
-75.7424
11
142.163
21
-75.7424
0
LINE
8
BLACK
6
CONTINUOUS
10
155.017
20
-70.4854
11
155.017
21
-70.4854
0
LINE
8
BLACK
6
CONTINUOUS
10
155.017
20
-70.4854
11
155.021
21
-70.4858
0
LINE
8
BLACK
6
CONTINUOUS
10
155.021
20
-70.4858
11
155.026
21
-70.4872
0
LINE
8
BLACK
6
CONTINUOUS
10
155.026
20
-70.4872
11
155.03
21
-70.4895
0
LINE
8
BLACK
6
CONTINUOUS
10
155.03
20
-70.4895
11
155.034
21
-70.4926
0
LINE
8
BLACK
6
CONTINUOUS
10
155.034
20
-70.4926
11
155.037
21
-70.4964
0
LINE
8
BLACK
6
CONTINUOUS
10
155.037
20
-70.4964
11
155.039
21
-70.5008
0
LINE
8
BLACK
6
CONTINUOUS
10
155.039
20
-70.5008
11
155.041
21
-70.5055
0
LINE
8
BLACK
6
CONTINUOUS
10
155.041
20
-70.5055
11
155.041
21
-70.5104
0
LINE
8
BLACK
6
CONTINUOUS
10
155.041
20
-70.5104
11
155.041
21
-70.5116
0
LINE
8
BLACK
6
CONTINUOUS
10
155.041
20
-70.5116
11
155.041
21
-73.481
0
LINE
8
BLACK
6
CONTINUOUS
10
155.041
20
-73.481
11
155.041
21
-73.4822
0
LINE
8
BLACK
6
CONTINUOUS
10
155.041
20
-73.4822
11
155.041
21
-73.4834
0
LINE
8
BLACK
6
CONTINUOUS
10
155.041
20
-73.4834
11
155.041
21
-73.4834
0
LINE
8
BLACK
6
CONTINUOUS
10
155.041
20
-73.4834
11
155.041
21
-73.4871
0
LINE
8
BLACK
6
CONTINUOUS
10
155.041
20
-73.4871
11
155.039
21
-73.4918
0
LINE
8
BLACK
6
CONTINUOUS
10
155.039
20
-73.4918
11
155.037
21
-73.4962
0
LINE
8
BLACK
6
CONTINUOUS
10
155.037
20
-73.4962
11
155.034
21
-73.5
0
LINE
8
BLACK
6
CONTINUOUS
10
155.034
20
-73.5
11
155.03
21
-73.5031
0
LINE
8
BLACK
6
CONTINUOUS
10
155.03
20
-73.5031
11
155.026
21
-73.5054
0
LINE
8
BLACK
6
CONTINUOUS
10
155.026
20
-73.5054
11
155.021
21
-73.5068
0
LINE
8
BLACK
6
CONTINUOUS
10
155.021
20
-73.5068
11
155.016
21
-73.5073
0
LINE
8
BLACK
6
CONTINUOUS
10
155.016
20
-73.5073
11
155.015
21
-73.5072
0
LINE
8
BLACK
6
CONTINUOUS
10
155.015
20
-73.5072
11
151.665
21
-73.5072
0
LINE
8
BLACK
6
CONTINUOUS
10
151.665
20
-73.5072
11
151.663
21
-73.5073
0
LINE
8
BLACK
6
CONTINUOUS
10
151.663
20
-73.5073
11
151.658
21
-73.5068
0
LINE
8
BLACK
6
CONTINUOUS
10
151.658
20
-73.5068
11
151.654
21
-73.5054
0
LINE
8
BLACK
6
CONTINUOUS
10
151.654
20
-73.5054
11
151.649
21
-73.5031
0
LINE
8
BLACK
6
CONTINUOUS
10
151.649
20
-73.5031
11
151.646
21
-73.5
0
LINE
8
BLACK
6
CONTINUOUS
10
151.646
20
-73.5
11
151.643
21
-73.4962
0
LINE
8
BLACK
6
CONTINUOUS
10
151.643
20
-73.4962
11
151.64
21
-73.4918
0
LINE
8
BLACK
6
CONTINUOUS
10
151.64
20
-73.4918
11
151.639
21
-73.4871
0
LINE
8
BLACK
6
CONTINUOUS
10
151.639
20
-73.4871
11
151.638
21
-73.4822
0
LINE
8
BLACK
6
CONTINUOUS
10
151.638
20
-73.4822
11
151.638
21
-73.481
0
LINE
8
BLACK
6
CONTINUOUS
10
151.638
20
-73.481
11
151.638
21
-70.5116
0
LINE
8
BLACK
6
CONTINUOUS
10
151.638
20
-70.5116
11
151.638
21
-70.5104
0
LINE
8
BLACK
6
CONTINUOUS
10
151.638
20
-70.5104
11
151.639
21
-70.5055
0
LINE
8
BLACK
6
CONTINUOUS
10
151.639
20
-70.5055
11
151.64
21
-70.5008
0
LINE
8
BLACK
6
CONTINUOUS
10
151.64
20
-70.5008
11
151.643
21
-70.4964
0
LINE
8
BLACK
6
CONTINUOUS
10
151.643
20
-70.4964
11
151.646
21
-70.4926
0
LINE
8
BLACK
6
CONTINUOUS
10
151.646
20
-70.4926
11
151.649
21
-70.4895
0
LINE
8
BLACK
6
CONTINUOUS
10
151.649
20
-70.4895
11
151.654
21
-70.4872
0
LINE
8
BLACK
6
CONTINUOUS
10
151.654
20
-70.4872
11
151.658
21
-70.4858
0
LINE
8
BLACK
6
CONTINUOUS
10
151.658
20
-70.4858
11
151.662
21
-70.4854
0
LINE
8
BLACK
6
CONTINUOUS
10
151.662
20
-70.4854
11
151.662
21
-70.4854
0
LINE
8
BLACK
6
CONTINUOUS
10
151.662
20
-70.4854
11
151.663
21
-70.4853
0
LINE
8
BLACK
6
CONTINUOUS
10
151.663
20
-70.4853
11
151.665
21
-70.4854
0
LINE
8
BLACK
6
CONTINUOUS
10
151.665
20
-70.4854
11
155.015
21
-70.4854
0
LINE
8
BLACK
6
CONTINUOUS
10
155.015
20
-70.4854
11
155.016
21
-70.4853
0
LINE
8
BLACK
6
CONTINUOUS
10
155.016
20
-70.4853
11
155.017
21
-70.4854
0
LINE
8
BLACK
6
CONTINUOUS
10
151.688
20
-70.5354
11
151.688
21
-73.4572
0
LINE
8
BLACK
6
CONTINUOUS
10
151.688
20
-73.4572
11
154.991
21
-73.4572
0
LINE
8
BLACK
6
CONTINUOUS
10
154.991
20
-73.4572
11
154.991
21
-70.5354
0
LINE
8
BLACK
6
CONTINUOUS
10
154.991
20
-70.5354
11
151.688
21
-70.5354
0
LINE
8
BLACK
6
CONTINUOUS
10
164.796
20
-56.4646
11
164.796
21
-56.4646
0
LINE
8
BLACK
6
CONTINUOUS
10
164.796
20
-56.4646
11
164.8
21
-56.465
0
LINE
8
BLACK
6
CONTINUOUS
10
164.8
20
-56.465
11
164.805
21
-56.4664
0
LINE
8
BLACK
6
CONTINUOUS
10
164.805
20
-56.4664
11
164.809
21
-56.4687
0
LINE
8
BLACK
6
CONTINUOUS
10
164.809
20
-56.4687
11
164.813
21
-56.4718
0
LINE
8
BLACK
6
CONTINUOUS
10
164.813
20
-56.4718
11
164.816
21
-56.4756
0
LINE
8
BLACK
6
CONTINUOUS
10
164.816
20
-56.4756
11
164.818
21
-56.48
0
LINE
8
BLACK
6
CONTINUOUS
10
164.818
20
-56.48
11
164.82
21
-56.4847
0
LINE
8
BLACK
6
CONTINUOUS
10
164.82
20
-56.4847
11
164.82
21
-56.4896
0
LINE
8
BLACK
6
CONTINUOUS
10
164.82
20
-56.4896
11
164.82
21
-56.4908
0
LINE
8
BLACK
6
CONTINUOUS
10
164.82
20
-56.4908
11
164.82
21
-59.4602
0
LINE
8
BLACK
6
CONTINUOUS
10
164.82
20
-59.4602
11
164.82
21
-59.4614
0
LINE
8
BLACK
6
CONTINUOUS
10
164.82
20
-59.4614
11
164.82
21
-59.4626
0
LINE
8
BLACK
6
CONTINUOUS
10
164.82
20
-59.4626
11
164.82
21
-59.4626
0
LINE
8
BLACK
6
CONTINUOUS
10
164.82
20
-59.4626
11
164.82
21
-59.4663
0
LINE
8
BLACK
6
CONTINUOUS
10
164.82
20
-59.4663
11
164.818
21
-59.471
0
LINE
8
BLACK
6
CONTINUOUS
10
164.818
20
-59.471
11
164.816
21
-59.4754
0
LINE
8
BLACK
6
CONTINUOUS
10
164.816
20
-59.4754
11
164.813
21
-59.4792
0
LINE
8
BLACK
6
CONTINUOUS
10
164.813
20
-59.4792
11
164.809
21
-59.4823
0
LINE
8
BLACK
6
CONTINUOUS
10
164.809
20
-59.4823
11
164.805
21
-59.4846
0
LINE
8
BLACK
6
CONTINUOUS
10
164.805
20
-59.4846
11
164.8
21
-59.486
0
LINE
8
BLACK
6
CONTINUOUS
10
164.8
20
-59.486
11
164.795
21
-59.4865
0
LINE
8
BLACK
6
CONTINUOUS
10
164.795
20
-59.4865
11
164.794
21
-59.4864
0
LINE
8
BLACK
6
CONTINUOUS
10
164.794
20
-59.4864
11
161.444
21
-59.4864
0
LINE
8
BLACK
6
CONTINUOUS
10
161.444
20
-59.4864
11
161.442
21
-59.4865
0
LINE
8
BLACK
6
CONTINUOUS
10
161.442
20
-59.4865
11
161.437
21
-59.486
0
LINE
8
BLACK
6
CONTINUOUS
10
161.437
20
-59.486
11
161.433
21
-59.4846
0
LINE
8
BLACK
6
CONTINUOUS
10
161.433
20
-59.4846
11
161.428
21
-59.4823
0
LINE
8
BLACK
6
CONTINUOUS
10
161.428
20
-59.4823
11
161.425
21
-59.4792
0
LINE
8
BLACK
6
CONTINUOUS
10
161.425
20
-59.4792
11
161.422
21
-59.4754
0
LINE
8
BLACK
6
CONTINUOUS
10
161.422
20
-59.4754
11
161.419
21
-59.471
0
LINE
8
BLACK
6
CONTINUOUS
10
161.419
20
-59.471
11
161.418
21
-59.4663
0
LINE
8
BLACK
6
CONTINUOUS
10
161.418
20
-59.4663
11
161.417
21
-59.4614
0
LINE
8
BLACK
6
CONTINUOUS
10
161.417
20
-59.4614
11
161.417
21
-59.4602
0
LINE
8
BLACK
6
CONTINUOUS
10
161.417
20
-59.4602
11
161.417
21
-56.4908
0
LINE
8
BLACK
6
CONTINUOUS
10
161.417
20
-56.4908
11
161.417
21
-56.4896
0
LINE
8
BLACK
6
CONTINUOUS
10
161.417
20
-56.4896
11
161.418
21
-56.4847
0
LINE
8
BLACK
6
CONTINUOUS
10
161.418
20
-56.4847
11
161.419
21
-56.48
0
LINE
8
BLACK
6
CONTINUOUS
10
161.419
20
-56.48
11
161.422
21
-56.4756
0
LINE
8
BLACK
6
CONTINUOUS
10
161.422
20
-56.4756
11
161.425
21
-56.4718
0
LINE
8
BLACK
6
CONTINUOUS
10
161.425
20
-56.4718
11
161.428
21
-56.4687
0
LINE
8
BLACK
6
CONTINUOUS
10
161.428
20
-56.4687
11
161.433
21
-56.4664
0
LINE
8
BLACK
6
CONTINUOUS
10
161.433
20
-56.4664
11
161.437
21
-56.465
0
LINE
8
BLACK
6
CONTINUOUS
10
161.437
20
-56.465
11
161.441
21
-56.4646
0
LINE
8
BLACK
6
CONTINUOUS
10
161.441
20
-56.4646
11
161.441
21
-56.4646
0
LINE
8
BLACK
6
CONTINUOUS
10
161.441
20
-56.4646
11
161.442
21
-56.4645
0
LINE
8
BLACK
6
CONTINUOUS
10
161.442
20
-56.4645
11
161.444
21
-56.4646
0
LINE
8
BLACK
6
CONTINUOUS
10
161.444
20
-56.4646
11
164.794
21
-56.4646
0
LINE
8
BLACK
6
CONTINUOUS
10
164.794
20
-56.4646
11
164.795
21
-56.4645
0
LINE
8
BLACK
6
CONTINUOUS
10
164.795
20
-56.4645
11
164.796
21
-56.4646
0
LINE
8
BLACK
6
CONTINUOUS
10
161.467
20
-56.5146
11
161.467
21
-59.4364
0
LINE
8
BLACK
6
CONTINUOUS
10
161.467
20
-59.4364
11
164.77
21
-59.4364
0
LINE
8
BLACK
6
CONTINUOUS
10
164.77
20
-59.4364
11
164.77
21
-56.5146
0
LINE
8
BLACK
6
CONTINUOUS
10
164.77
20
-56.5146
11
161.467
21
-56.5146
0
LINE
8
BLACK
6
CONTINUOUS
10
145.492
20
-56.4646
11
145.492
21
-56.4646
0
LINE
8
BLACK
6
CONTINUOUS
10
145.492
20
-56.4646
11
145.496
21
-56.465
0
LINE
8
BLACK
6
CONTINUOUS
10
145.496
20
-56.465
11
145.501
21
-56.4664
0
LINE
8
BLACK
6
CONTINUOUS
10
145.501
20
-56.4664
11
145.505
21
-56.4687
0
LINE
8
BLACK
6
CONTINUOUS
10
145.505
20
-56.4687
11
145.509
21
-56.4718
0
LINE
8
BLACK
6
CONTINUOUS
10
145.509
20
-56.4718
11
145.512
21
-56.4756
0
LINE
8
BLACK
6
CONTINUOUS
10
145.512
20
-56.4756
11
145.514
21
-56.48
0
LINE
8
BLACK
6
CONTINUOUS
10
145.514
20
-56.48
11
145.516
21
-56.4847
0
LINE
8
BLACK
6
CONTINUOUS
10
145.516
20
-56.4847
11
145.516
21
-56.4896
0
LINE
8
BLACK
6
CONTINUOUS
10
145.516
20
-56.4896
11
145.516
21
-56.4908
0
LINE
8
BLACK
6
CONTINUOUS
10
145.516
20
-56.4908
11
145.516
21
-59.4602
0
LINE
8
BLACK
6
CONTINUOUS
10
145.516
20
-59.4602
11
145.516
21
-59.4614
0
LINE
8
BLACK
6
CONTINUOUS
10
145.516
20
-59.4614
11
145.516
21
-59.4626
0
LINE
8
BLACK
6
CONTINUOUS
10
145.516
20
-59.4626
11
145.516
21
-59.4626
0
LINE
8
BLACK
6
CONTINUOUS
10
145.516
20
-59.4626
11
145.516
21
-59.4663
0
LINE
8
BLACK
6
CONTINUOUS
10
145.516
20
-59.4663
11
145.514
21
-59.471
0
LINE
8
BLACK
6
CONTINUOUS
10
145.514
20
-59.471
11
145.512
21
-59.4754
0
LINE
8
BLACK
6
CONTINUOUS
10
145.512
20
-59.4754
11
145.509
21
-59.4792
0
LINE
8
BLACK
6
CONTINUOUS
10
145.509
20
-59.4792
11
145.505
21
-59.4823
0
LINE
8
BLACK
6
CONTINUOUS
10
145.505
20
-59.4823
11
145.501
21
-59.4846
0
LINE
8
BLACK
6
CONTINUOUS
10
145.501
20
-59.4846
11
145.496
21
-59.486
0
LINE
8
BLACK
6
CONTINUOUS
10
145.496
20
-59.486
11
145.491
21
-59.4865
0
LINE
8
BLACK
6
CONTINUOUS
10
145.491
20
-59.4865
11
145.49
21
-59.4864
0
LINE
8
BLACK
6
CONTINUOUS
10
145.49
20
-59.4864
11
142.14
21
-59.4864
0
LINE
8
BLACK
6
CONTINUOUS
10
142.14
20
-59.4864
11
142.138
21
-59.4865
0
LINE
8
BLACK
6
CONTINUOUS
10
142.138
20
-59.4865
11
142.133
21
-59.486
0
LINE
8
BLACK
6
CONTINUOUS
10
142.133
20
-59.486
11
142.129
21
-59.4846
0
LINE
8
BLACK
6
CONTINUOUS
10
142.129
20
-59.4846
11
142.124
21
-59.4823
0
LINE
8
BLACK
6
CONTINUOUS
10
142.124
20
-59.4823
11
142.121
21
-59.4792
0
LINE
8
BLACK
6
CONTINUOUS
10
142.121
20
-59.4792
11
142.118
21
-59.4754
0
LINE
8
BLACK
6
CONTINUOUS
10
142.118
20
-59.4754
11
142.115
21
-59.471
0
LINE
8
BLACK
6
CONTINUOUS
10
142.115
20
-59.471
11
142.114
21
-59.4663
0
LINE
8
BLACK
6
CONTINUOUS
10
142.114
20
-59.4663
11
142.113
21
-59.4614
0
LINE
8
BLACK
6
CONTINUOUS
10
142.113
20
-59.4614
11
142.113
21
-59.4602
0
LINE
8
BLACK
6
CONTINUOUS
10
142.113
20
-59.4602
11
142.113
21
-56.4908
0
LINE
8
BLACK
6
CONTINUOUS
10
142.113
20
-56.4908
11
142.113
21
-56.4896
0
LINE
8
BLACK
6
CONTINUOUS
10
142.113
20
-56.4896
11
142.114
21
-56.4847
0
LINE
8
BLACK
6
CONTINUOUS
10
142.114
20
-56.4847
11
142.115
21
-56.48
0
LINE
8
BLACK
6
CONTINUOUS
10
142.115
20
-56.48
11
142.118
21
-56.4756
0
LINE
8
BLACK
6
CONTINUOUS
10
142.118
20
-56.4756
11
142.121
21
-56.4718
0
LINE
8
BLACK
6
CONTINUOUS
10
142.121
20
-56.4718
11
142.124
21
-56.4687
0
LINE
8
BLACK
6
CONTINUOUS
10
142.124
20
-56.4687
11
142.129
21
-56.4664
0
LINE
8
BLACK
6
CONTINUOUS
10
142.129
20
-56.4664
11
142.133
21
-56.465
0
LINE
8
BLACK
6
CONTINUOUS
10
142.133
20
-56.465
11
142.137
21
-56.4646
0
LINE
8
BLACK
6
CONTINUOUS
10
142.137
20
-56.4646
11
142.137
21
-56.4646
0
LINE
8
BLACK
6
CONTINUOUS
10
142.137
20
-56.4646
11
142.138
21
-56.4645
0
LINE
8
BLACK
6
CONTINUOUS
10
142.138
20
-56.4645
11
142.14
21
-56.4646
0
LINE
8
BLACK
6
CONTINUOUS
10
142.14
20
-56.4646
11
145.49
21
-56.4646
0
LINE
8
BLACK
6
CONTINUOUS
10
145.49
20
-56.4646
11
145.491
21
-56.4645
0
LINE
8
BLACK
6
CONTINUOUS
10
145.491
20
-56.4645
11
145.492
21
-56.4646
0
LINE
8
BLACK
6
CONTINUOUS
10
142.163
20
-56.5146
11
142.163
21
-59.4364
0
LINE
8
BLACK
6
CONTINUOUS
10
142.163
20
-59.4364
11
145.466
21
-59.4364
0
LINE
8
BLACK
6
CONTINUOUS
10
145.466
20
-59.4364
11
145.466
21
-56.5146
0
LINE
8
BLACK
6
CONTINUOUS
10
145.466
20
-56.5146
11
142.163
21
-56.5146
0
LINE
8
BLACK
6
CONTINUOUS
10
97.1763
20
-113.336
11
97.2941
21
-113.052
0
LINE
8
BLACK
6
CONTINUOUS
10
97.2941
20
-113.052
11
97.4651
21
-112.796
0
LINE
8
BLACK
6
CONTINUOUS
10
97.4651
20
-112.796
11
97.6828
21
-112.578
0
LINE
8
BLACK
6
CONTINUOUS
10
97.6828
20
-112.578
11
97.9388
21
-112.407
0
LINE
8
BLACK
6
CONTINUOUS
10
97.9388
20
-112.407
11
98.2232
21
-112.289
0
LINE
8
BLACK
6
CONTINUOUS
10
98.2232
20
-112.289
11
98.5251
21
-112.229
0
LINE
8
BLACK
6
CONTINUOUS
10
98.5251
20
-112.229
11
98.8329
21
-112.229
0
LINE
8
BLACK
6
CONTINUOUS
10
98.8329
20
-112.229
11
99.1348
21
-112.289
0
LINE
8
BLACK
6
CONTINUOUS
10
99.1348
20
-112.289
11
99.4192
21
-112.407
0
LINE
8
BLACK
6
CONTINUOUS
10
99.4192
20
-112.407
11
99.6752
21
-112.578
0
LINE
8
BLACK
6
CONTINUOUS
10
99.6752
20
-112.578
11
99.8929
21
-112.796
0
LINE
8
BLACK
6
CONTINUOUS
10
99.8929
20
-112.796
11
100.064
21
-113.052
0
LINE
8
BLACK
6
CONTINUOUS
10
100.064
20
-113.052
11
100.182
21
-113.336
0
LINE
8
BLACK
6
CONTINUOUS
10
100.182
20
-113.336
11
100.242
21
-113.638
0
LINE
8
BLACK
6
CONTINUOUS
10
100.242
20
-113.638
11
100.242
21
-113.946
0
LINE
8
BLACK
6
CONTINUOUS
10
100.242
20
-113.946
11
100.182
21
-114.248
0
LINE
8
BLACK
6
CONTINUOUS
10
100.182
20
-114.248
11
100.064
21
-114.532
0
LINE
8
BLACK
6
CONTINUOUS
10
100.064
20
-114.532
11
99.8929
21
-114.788
0
LINE
8
BLACK
6
CONTINUOUS
10
99.8929
20
-114.788
11
99.6752
21
-115.006
0
LINE
8
BLACK
6
CONTINUOUS
10
99.6752
20
-115.006
11
99.4192
21
-115.177
0
LINE
8
BLACK
6
CONTINUOUS
10
99.4192
20
-115.177
11
99.1348
21
-115.295
0
LINE
8
BLACK
6
CONTINUOUS
10
99.1348
20
-115.295
11
98.8329
21
-115.355
0
LINE
8
BLACK
6
CONTINUOUS
10
98.8329
20
-115.355
11
98.5251
21
-115.355
0
LINE
8
BLACK
6
CONTINUOUS
10
98.5251
20
-115.355
11
98.2232
21
-115.295
0
LINE
8
BLACK
6
CONTINUOUS
10
98.2232
20
-115.295
11
97.9388
21
-115.177
0
LINE
8
BLACK
6
CONTINUOUS
10
97.9388
20
-115.177
11
97.6828
21
-115.006
0
LINE
8
BLACK
6
CONTINUOUS
10
97.6828
20
-115.006
11
97.4651
21
-114.788
0
LINE
8
BLACK
6
CONTINUOUS
10
97.4651
20
-114.788
11
97.2941
21
-114.532
0
LINE
8
BLACK
6
CONTINUOUS
10
97.2941
20
-114.532
11
97.1763
21
-114.248
0
LINE
8
BLACK
6
CONTINUOUS
10
97.1763
20
-114.248
11
97.1162
21
-113.946
0
LINE
8
BLACK
6
CONTINUOUS
10
97.1162
20
-113.946
11
97.1162
21
-113.638
0
LINE
8
BLACK
6
CONTINUOUS
10
97.1162
20
-113.638
11
97.1763
21
-113.336
0
LINE
8
BLACK
6
CONTINUOUS
10
97.2433
20
-114.228
11
97.3558
21
-114.499
0
LINE
8
BLACK
6
CONTINUOUS
10
97.3558
20
-114.499
11
97.5192
21
-114.744
0
LINE
8
BLACK
6
CONTINUOUS
10
97.5192
20
-114.744
11
97.7272
21
-114.952
0
LINE
8
BLACK
6
CONTINUOUS
10
97.7272
20
-114.952
11
97.9718
21
-115.115
0
LINE
8
BLACK
6
CONTINUOUS
10
97.9718
20
-115.115
11
98.2435
21
-115.228
0
LINE
8
BLACK
6
CONTINUOUS
10
98.2435
20
-115.228
11
98.5319
21
-115.285
0
LINE
8
BLACK
6
CONTINUOUS
10
98.5319
20
-115.285
11
98.8261
21
-115.285
0
LINE
8
BLACK
6
CONTINUOUS
10
98.8261
20
-115.285
11
99.1145
21
-115.228
0
LINE
8
BLACK
6
CONTINUOUS
10
99.1145
20
-115.228
11
99.3862
21
-115.115
0
LINE
8
BLACK
6
CONTINUOUS
10
99.3862
20
-115.115
11
99.6308
21
-114.952
0
LINE
8
BLACK
6
CONTINUOUS
10
99.6308
20
-114.952
11
99.8388
21
-114.744
0
LINE
8
BLACK
6
CONTINUOUS
10
99.8388
20
-114.744
11
100.002
21
-114.499
0
LINE
8
BLACK
6
CONTINUOUS
10
100.002
20
-114.499
11
100.115
21
-114.228
0
LINE
8
BLACK
6
CONTINUOUS
10
100.115
20
-114.228
11
100.172
21
-113.939
0
LINE
8
BLACK
6
CONTINUOUS
10
100.172
20
-113.939
11
100.172
21
-113.645
0
LINE
8
BLACK
6
CONTINUOUS
10
100.172
20
-113.645
11
100.115
21
-113.356
0
LINE
8
BLACK
6
CONTINUOUS
10
100.115
20
-113.356
11
100.002
21
-113.085
0
LINE
8
BLACK
6
CONTINUOUS
10
100.002
20
-113.085
11
99.8388
21
-112.84
0
LINE
8
BLACK
6
CONTINUOUS
10
99.8388
20
-112.84
11
99.6308
21
-112.632
0
LINE
8
BLACK
6
CONTINUOUS
10
99.6308
20
-112.632
11
99.3862
21
-112.469
0
LINE
8
BLACK
6
CONTINUOUS
10
99.3862
20
-112.469
11
99.1145
21
-112.356
0
LINE
8
BLACK
6
CONTINUOUS
10
99.1145
20
-112.356
11
98.8261
21
-112.299
0
LINE
8
BLACK
6
CONTINUOUS
10
98.8261
20
-112.299
11
98.5319
21
-112.299
0
LINE
8
BLACK
6
CONTINUOUS
10
98.5319
20
-112.299
11
98.2435
21
-112.356
0
LINE
8
BLACK
6
CONTINUOUS
10
98.2435
20
-112.356
11
97.9718
21
-112.469
0
LINE
8
BLACK
6
CONTINUOUS
10
97.9718
20
-112.469
11
97.7272
21
-112.632
0
LINE
8
BLACK
6
CONTINUOUS
10
97.7272
20
-112.632
11
97.5192
21
-112.84
0
LINE
8
BLACK
6
CONTINUOUS
10
97.5192
20
-112.84
11
97.3558
21
-113.085
0
LINE
8
BLACK
6
CONTINUOUS
10
97.3558
20
-113.085
11
97.2433
21
-113.356
0
LINE
8
BLACK
6
CONTINUOUS
10
97.2433
20
-113.356
11
97.1859
21
-113.645
0
LINE
8
BLACK
6
CONTINUOUS
10
97.1859
20
-113.645
11
97.1859
21
-113.939
0
LINE
8
BLACK
6
CONTINUOUS
10
97.1859
20
-113.939
11
97.2433
21
-114.228
0
LINE
8
BLACK
6
CONTINUOUS
10
168.296
20
-113.336
11
168.414
21
-113.052
0
LINE
8
BLACK
6
CONTINUOUS
10
168.414
20
-113.052
11
168.585
21
-112.796
0
LINE
8
BLACK
6
CONTINUOUS
10
168.585
20
-112.796
11
168.803
21
-112.578
0
LINE
8
BLACK
6
CONTINUOUS
10
168.803
20
-112.578
11
169.059
21
-112.407
0
LINE
8
BLACK
6
CONTINUOUS
10
169.059
20
-112.407
11
169.343
21
-112.289
0
LINE
8
BLACK
6
CONTINUOUS
10
169.343
20
-112.289
11
169.645
21
-112.229
0
LINE
8
BLACK
6
CONTINUOUS
10
169.645
20
-112.229
11
169.953
21
-112.229
0
LINE
8
BLACK
6
CONTINUOUS
10
169.953
20
-112.229
11
170.255
21
-112.289
0
LINE
8
BLACK
6
CONTINUOUS
10
170.255
20
-112.289
11
170.539
21
-112.407
0
LINE
8
BLACK
6
CONTINUOUS
10
170.539
20
-112.407
11
170.795
21
-112.578
0
LINE
8
BLACK
6
CONTINUOUS
10
170.795
20
-112.578
11
171.013
21
-112.796
0
LINE
8
BLACK
6
CONTINUOUS
10
171.013
20
-112.796
11
171.184
21
-113.052
0
LINE
8
BLACK
6
CONTINUOUS
10
171.184
20
-113.052
11
171.302
21
-113.336
0
LINE
8
BLACK
6
CONTINUOUS
10
171.302
20
-113.336
11
171.362
21
-113.638
0
LINE
8
BLACK
6
CONTINUOUS
10
171.362
20
-113.638
11
171.362
21
-113.946
0
LINE
8
BLACK
6
CONTINUOUS
10
171.362
20
-113.946
11
171.302
21
-114.248
0
LINE
8
BLACK
6
CONTINUOUS
10
171.302
20
-114.248
11
171.184
21
-114.532
0
LINE
8
BLACK
6
CONTINUOUS
10
171.184
20
-114.532
11
171.013
21
-114.788
0
LINE
8
BLACK
6
CONTINUOUS
10
171.013
20
-114.788
11
170.795
21
-115.006
0
LINE
8
BLACK
6
CONTINUOUS
10
170.795
20
-115.006
11
170.539
21
-115.177
0
LINE
8
BLACK
6
CONTINUOUS
10
170.539
20
-115.177
11
170.255
21
-115.295
0
LINE
8
BLACK
6
CONTINUOUS
10
170.255
20
-115.295
11
169.953
21
-115.355
0
LINE
8
BLACK
6
CONTINUOUS
10
169.953
20
-115.355
11
169.645
21
-115.355
0
LINE
8
BLACK
6
CONTINUOUS
10
169.645
20
-115.355
11
169.343
21
-115.295
0
LINE
8
BLACK
6
CONTINUOUS
10
169.343
20
-115.295
11
169.059
21
-115.177
0
LINE
8
BLACK
6
CONTINUOUS
10
169.059
20
-115.177
11
168.803
21
-115.006
0
LINE
8
BLACK
6
CONTINUOUS
10
168.803
20
-115.006
11
168.585
21
-114.788
0
LINE
8
BLACK
6
CONTINUOUS
10
168.585
20
-114.788
11
168.414
21
-114.532
0
LINE
8
BLACK
6
CONTINUOUS
10
168.414
20
-114.532
11
168.296
21
-114.248
0
LINE
8
BLACK
6
CONTINUOUS
10
168.296
20
-114.248
11
168.236
21
-113.946
0
LINE
8
BLACK
6
CONTINUOUS
10
168.236
20
-113.946
11
168.236
21
-113.638
0
LINE
8
BLACK
6
CONTINUOUS
10
168.236
20
-113.638
11
168.296
21
-113.336
0
LINE
8
BLACK
6
CONTINUOUS
10
168.363
20
-114.228
11
168.476
21
-114.499
0
LINE
8
BLACK
6
CONTINUOUS
10
168.476
20
-114.499
11
168.639
21
-114.744
0
LINE
8
BLACK
6
CONTINUOUS
10
168.639
20
-114.744
11
168.847
21
-114.952
0
LINE
8
BLACK
6
CONTINUOUS
10
168.847
20
-114.952
11
169.092
21
-115.115
0
LINE
8
BLACK
6
CONTINUOUS
10
169.092
20
-115.115
11
169.363
21
-115.228
0
LINE
8
BLACK
6
CONTINUOUS
10
169.363
20
-115.228
11
169.652
21
-115.285
0
LINE
8
BLACK
6
CONTINUOUS
10
169.652
20
-115.285
11
169.946
21
-115.285
0
LINE
8
BLACK
6
CONTINUOUS
10
169.946
20
-115.285
11
170.235
21
-115.228
0
LINE
8
BLACK
6
CONTINUOUS
10
170.235
20
-115.228
11
170.506
21
-115.115
0
LINE
8
BLACK
6
CONTINUOUS
10
170.506
20
-115.115
11
170.751
21
-114.952
0
LINE
8
BLACK
6
CONTINUOUS
10
170.751
20
-114.952
11
170.959
21
-114.744
0
LINE
8
BLACK
6
CONTINUOUS
10
170.959
20
-114.744
11
171.122
21
-114.499
0
LINE
8
BLACK
6
CONTINUOUS
10
171.122
20
-114.499
11
171.235
21
-114.228
0
LINE
8
BLACK
6
CONTINUOUS
10
171.235
20
-114.228
11
171.292
21
-113.939
0
LINE
8
BLACK
6
CONTINUOUS
10
171.292
20
-113.939
11
171.292
21
-113.645
0
LINE
8
BLACK
6
CONTINUOUS
10
171.292
20
-113.645
11
171.235
21
-113.356
0
LINE
8
BLACK
6
CONTINUOUS
10
171.235
20
-113.356
11
171.122
21
-113.085
0
LINE
8
BLACK
6
CONTINUOUS
10
171.122
20
-113.085
11
170.959
21
-112.84
0
LINE
8
BLACK
6
CONTINUOUS
10
170.959
20
-112.84
11
170.751
21
-112.632
0
LINE
8
BLACK
6
CONTINUOUS
10
170.751
20
-112.632
11
170.506
21
-112.469
0
LINE
8
BLACK
6
CONTINUOUS
10
170.506
20
-112.469
11
170.235
21
-112.356
0
LINE
8
BLACK
6
CONTINUOUS
10
170.235
20
-112.356
11
169.946
21
-112.299
0
LINE
8
BLACK
6
CONTINUOUS
10
169.946
20
-112.299
11
169.652
21
-112.299
0
LINE
8
BLACK
6
CONTINUOUS
10
169.652
20
-112.299
11
169.363
21
-112.356
0
LINE
8
BLACK
6
CONTINUOUS
10
169.363
20
-112.356
11
169.092
21
-112.469
0
LINE
8
BLACK
6
CONTINUOUS
10
169.092
20
-112.469
11
168.847
21
-112.632
0
LINE
8
BLACK
6
CONTINUOUS
10
168.847
20
-112.632
11
168.639
21
-112.84
0
LINE
8
BLACK
6
CONTINUOUS
10
168.639
20
-112.84
11
168.476
21
-113.085
0
LINE
8
BLACK
6
CONTINUOUS
10
168.476
20
-113.085
11
168.363
21
-113.356
0
LINE
8
BLACK
6
CONTINUOUS
10
168.363
20
-113.356
11
168.306
21
-113.645
0
LINE
8
BLACK
6
CONTINUOUS
10
168.306
20
-113.645
11
168.306
21
-113.939
0
LINE
8
BLACK
6
CONTINUOUS
10
168.306
20
-113.939
11
168.363
21
-114.228
0
LINE
8
BLACK
6
CONTINUOUS
10
168.296
20
-49.1377
11
168.414
21
-48.8533
0
LINE
8
BLACK
6
CONTINUOUS
10
168.414
20
-48.8533
11
168.585
21
-48.5973
0
LINE
8
BLACK
6
CONTINUOUS
10
168.585
20
-48.5973
11
168.803
21
-48.3796
0
LINE
8
BLACK
6
CONTINUOUS
10
168.803
20
-48.3796
11
169.059
21
-48.2086
0
LINE
8
BLACK
6
CONTINUOUS
10
169.059
20
-48.2086
11
169.343
21
-48.0908
0
LINE
8
BLACK
6
CONTINUOUS
10
169.343
20
-48.0908
11
169.645
21
-48.0307
0
LINE
8
BLACK
6
CONTINUOUS
10
169.645
20
-48.0307
11
169.953
21
-48.0307
0
LINE
8
BLACK
6
CONTINUOUS
10
169.953
20
-48.0307
11
170.255
21
-48.0908
0
LINE
8
BLACK
6
CONTINUOUS
10
170.255
20
-48.0908
11
170.539
21
-48.2086
0
LINE
8
BLACK
6
CONTINUOUS
10
170.539
20
-48.2086
11
170.795
21
-48.3796
0
LINE
8
BLACK
6
CONTINUOUS
10
170.795
20
-48.3796
11
171.013
21
-48.5973
0
LINE
8
BLACK
6
CONTINUOUS
10
171.013
20
-48.5973
11
171.184
21
-48.8533
0
LINE
8
BLACK
6
CONTINUOUS
10
171.184
20
-48.8533
11
171.302
21
-49.1377
0
LINE
8
BLACK
6
CONTINUOUS
10
171.302
20
-49.1377
11
171.362
21
-49.4396
0
LINE
8
BLACK
6
CONTINUOUS
10
171.362
20
-49.4396
11
171.362
21
-49.7474
0
LINE
8
BLACK
6
CONTINUOUS
10
171.362
20
-49.7474
11
171.302
21
-50.0493
0
LINE
8
BLACK
6
CONTINUOUS
10
171.302
20
-50.0493
11
171.184
21
-50.3337
0
LINE
8
BLACK
6
CONTINUOUS
10
171.184
20
-50.3337
11
171.013
21
-50.5897
0
LINE
8
BLACK
6
CONTINUOUS
10
171.013
20
-50.5897
11
170.795
21
-50.8074
0
LINE
8
BLACK
6
CONTINUOUS
10
170.795
20
-50.8074
11
170.539
21
-50.9784
0
LINE
8
BLACK
6
CONTINUOUS
10
170.539
20
-50.9784
11
170.255
21
-51.0962
0
LINE
8
BLACK
6
CONTINUOUS
10
170.255
20
-51.0962
11
169.953
21
-51.1563
0
LINE
8
BLACK
6
CONTINUOUS
10
169.953
20
-51.1563
11
169.645
21
-51.1563
0
LINE
8
BLACK
6
CONTINUOUS
10
169.645
20
-51.1563
11
169.343
21
-51.0962
0
LINE
8
BLACK
6
CONTINUOUS
10
169.343
20
-51.0962
11
169.059
21
-50.9784
0
LINE
8
BLACK
6
CONTINUOUS
10
169.059
20
-50.9784
11
168.803
21
-50.8074
0
LINE
8
BLACK
6
CONTINUOUS
10
168.803
20
-50.8074
11
168.585
21
-50.5897
0
LINE
8
BLACK
6
CONTINUOUS
10
168.585
20
-50.5897
11
168.414
21
-50.3337
0
LINE
8
BLACK
6
CONTINUOUS
10
168.414
20
-50.3337
11
168.296
21
-50.0493
0
LINE
8
BLACK
6
CONTINUOUS
10
168.296
20
-50.0493
11
168.236
21
-49.7474
0
LINE
8
BLACK
6
CONTINUOUS
10
168.236
20
-49.7474
11
168.236
21
-49.4396
0
LINE
8
BLACK
6
CONTINUOUS
10
168.236
20
-49.4396
11
168.296
21
-49.1377
0
LINE
8
BLACK
6
CONTINUOUS
10
168.363
20
-50.029
11
168.476
21
-50.3007
0
LINE
8
BLACK
6
CONTINUOUS
10
168.476
20
-50.3007
11
168.639
21
-50.5453
0
LINE
8
BLACK
6
CONTINUOUS
10
168.639
20
-50.5453
11
168.847
21
-50.7533
0
LINE
8
BLACK
6
CONTINUOUS
10
168.847
20
-50.7533
11
169.092
21
-50.9167
0
LINE
8
BLACK
6
CONTINUOUS
10
169.092
20
-50.9167
11
169.363
21
-51.0292
0
LINE
8
BLACK
6
CONTINUOUS
10
169.363
20
-51.0292
11
169.652
21
-51.0866
0
LINE
8
BLACK
6
CONTINUOUS
10
169.652
20
-51.0866
11
169.946
21
-51.0866
0
LINE
8
BLACK
6
CONTINUOUS
10
169.946
20
-51.0866
11
170.235
21
-51.0292
0
LINE
8
BLACK
6
CONTINUOUS
10
170.235
20
-51.0292
11
170.506
21
-50.9167
0
LINE
8
BLACK
6
CONTINUOUS
10
170.506
20
-50.9167
11
170.751
21
-50.7533
0
LINE
8
BLACK
6
CONTINUOUS
10
170.751
20
-50.7533
11
170.959
21
-50.5453
0
LINE
8
BLACK
6
CONTINUOUS
10
170.959
20
-50.5453
11
171.122
21
-50.3007
0
LINE
8
BLACK
6
CONTINUOUS
10
171.122
20
-50.3007
11
171.235
21
-50.029
0
LINE
8
BLACK
6
CONTINUOUS
10
171.235
20
-50.029
11
171.292
21
-49.7406
0
LINE
8
BLACK
6
CONTINUOUS
10
171.292
20
-49.7406
11
171.292
21
-49.4464
0
LINE
8
BLACK
6
CONTINUOUS
10
171.292
20
-49.4464
11
171.235
21
-49.158
0
LINE
8
BLACK
6
CONTINUOUS
10
171.235
20
-49.158
11
171.122
21
-48.8863
0
LINE
8
BLACK
6
CONTINUOUS
10
171.122
20
-48.8863
11
170.959
21
-48.6417
0
LINE
8
BLACK
6
CONTINUOUS
10
170.959
20
-48.6417
11
170.751
21
-48.4337
0
LINE
8
BLACK
6
CONTINUOUS
10
170.751
20
-48.4337
11
170.506
21
-48.2703
0
LINE
8
BLACK
6
CONTINUOUS
10
170.506
20
-48.2703
11
170.235
21
-48.1578
0
LINE
8
BLACK
6
CONTINUOUS
10
170.235
20
-48.1578
11
169.946
21
-48.1004
0
LINE
8
BLACK
6
CONTINUOUS
10
169.946
20
-48.1004
11
169.652
21
-48.1004
0
LINE
8
BLACK
6
CONTINUOUS
10
169.652
20
-48.1004
11
169.363
21
-48.1578
0
LINE
8
BLACK
6
CONTINUOUS
10
169.363
20
-48.1578
11
169.092
21
-48.2703
0
LINE
8
BLACK
6
CONTINUOUS
10
169.092
20
-48.2703
11
168.847
21
-48.4337
0
LINE
8
BLACK
6
CONTINUOUS
10
168.847
20
-48.4337
11
168.639
21
-48.6417
0
LINE
8
BLACK
6
CONTINUOUS
10
168.639
20
-48.6417
11
168.476
21
-48.8863
0
LINE
8
BLACK
6
CONTINUOUS
10
168.476
20
-48.8863
11
168.363
21
-49.158
0
LINE
8
BLACK
6
CONTINUOUS
10
168.363
20
-49.158
11
168.306
21
-49.4464
0
LINE
8
BLACK
6
CONTINUOUS
10
168.306
20
-49.4464
11
168.306
21
-49.7406
0
LINE
8
BLACK
6
CONTINUOUS
10
168.306
20
-49.7406
11
168.363
21
-50.029
0
LINE
8
BLACK
6
CONTINUOUS
10
97.1763
20
-49.1377
11
97.2941
21
-48.8533
0
LINE
8
BLACK
6
CONTINUOUS
10
97.2941
20
-48.8533
11
97.4651
21
-48.5973
0
LINE
8
BLACK
6
CONTINUOUS
10
97.4651
20
-48.5973
11
97.6828
21
-48.3796
0
LINE
8
BLACK
6
CONTINUOUS
10
97.6828
20
-48.3796
11
97.9388
21
-48.2086
0
LINE
8
BLACK
6
CONTINUOUS
10
97.9388
20
-48.2086
11
98.2232
21
-48.0908
0
LINE
8
BLACK
6
CONTINUOUS
10
98.2232
20
-48.0908
11
98.5251
21
-48.0307
0
LINE
8
BLACK
6
CONTINUOUS
10
98.5251
20
-48.0307
11
98.8329
21
-48.0307
0
LINE
8
BLACK
6
CONTINUOUS
10
98.8329
20
-48.0307
11
99.1348
21
-48.0908
0
LINE
8
BLACK
6
CONTINUOUS
10
99.1348
20
-48.0908
11
99.4192
21
-48.2086
0
LINE
8
BLACK
6
CONTINUOUS
10
99.4192
20
-48.2086
11
99.6752
21
-48.3796
0
LINE
8
BLACK
6
CONTINUOUS
10
99.6752
20
-48.3796
11
99.8929
21
-48.5973
0
LINE
8
BLACK
6
CONTINUOUS
10
99.8929
20
-48.5973
11
100.064
21
-48.8533
0
LINE
8
BLACK
6
CONTINUOUS
10
100.064
20
-48.8533
11
100.182
21
-49.1377
0
LINE
8
BLACK
6
CONTINUOUS
10
100.182
20
-49.1377
11
100.242
21
-49.4396
0
LINE
8
BLACK
6
CONTINUOUS
10
100.242
20
-49.4396
11
100.242
21
-49.7474
0
LINE
8
BLACK
6
CONTINUOUS
10
100.242
20
-49.7474
11
100.182
21
-50.0493
0
LINE
8
BLACK
6
CONTINUOUS
10
100.182
20
-50.0493
11
100.064
21
-50.3337
0
LINE
8
BLACK
6
CONTINUOUS
10
100.064
20
-50.3337
11
99.8929
21
-50.5897
0
LINE
8
BLACK
6
CONTINUOUS
10
99.8929
20
-50.5897
11
99.6752
21
-50.8074
0
LINE
8
BLACK
6
CONTINUOUS
10
99.6752
20
-50.8074
11
99.4192
21
-50.9784
0
LINE
8
BLACK
6
CONTINUOUS
10
99.4192
20
-50.9784
11
99.1348
21
-51.0962
0
LINE
8
BLACK
6
CONTINUOUS
10
99.1348
20
-51.0962
11
98.8329
21
-51.1563
0
LINE
8
BLACK
6
CONTINUOUS
10
98.8329
20
-51.1563
11
98.5251
21
-51.1563
0
LINE
8
BLACK
6
CONTINUOUS
10
98.5251
20
-51.1563
11
98.2232
21
-51.0962
0
LINE
8
BLACK
6
CONTINUOUS
10
98.2232
20
-51.0962
11
97.9388
21
-50.9784
0
LINE
8
BLACK
6
CONTINUOUS
10
97.9388
20
-50.9784
11
97.6828
21
-50.8074
0
LINE
8
BLACK
6
CONTINUOUS
10
97.6828
20
-50.8074
11
97.4651
21
-50.5897
0
LINE
8
BLACK
6
CONTINUOUS
10
97.4651
20
-50.5897
11
97.2941
21
-50.3337
0
LINE
8
BLACK
6
CONTINUOUS
10
97.2941
20
-50.3337
11
97.1763
21
-50.0493
0
LINE
8
BLACK
6
CONTINUOUS
10
97.1763
20
-50.0493
11
97.1162
21
-49.7474
0
LINE
8
BLACK
6
CONTINUOUS
10
97.1162
20
-49.7474
11
97.1162
21
-49.4396
0
LINE
8
BLACK
6
CONTINUOUS
10
97.1162
20
-49.4396
11
97.1763
21
-49.1377
0
LINE
8
BLACK
6
CONTINUOUS
10
97.2433
20
-50.029
11
97.3558
21
-50.3007
0
LINE
8
BLACK
6
CONTINUOUS
10
97.3558
20
-50.3007
11
97.5192
21
-50.5453
0
LINE
8
BLACK
6
CONTINUOUS
10
97.5192
20
-50.5453
11
97.7272
21
-50.7533
0
LINE
8
BLACK
6
CONTINUOUS
10
97.7272
20
-50.7533
11
97.9718
21
-50.9167
0
LINE
8
BLACK
6
CONTINUOUS
10
97.9718
20
-50.9167
11
98.2435
21
-51.0292
0
LINE
8
BLACK
6
CONTINUOUS
10
98.2435
20
-51.0292
11
98.5319
21
-51.0866
0
LINE
8
BLACK
6
CONTINUOUS
10
98.5319
20
-51.0866
11
98.8261
21
-51.0866
0
LINE
8
BLACK
6
CONTINUOUS
10
98.8261
20
-51.0866
11
99.1145
21
-51.0292
0
LINE
8
BLACK
6
CONTINUOUS
10
99.1145
20
-51.0292
11
99.3862
21
-50.9167
0
LINE
8
BLACK
6
CONTINUOUS
10
99.3862
20
-50.9167
11
99.6308
21
-50.7533
0
LINE
8
BLACK
6
CONTINUOUS
10
99.6308
20
-50.7533
11
99.8388
21
-50.5453
0
LINE
8
BLACK
6
CONTINUOUS
10
99.8388
20
-50.5453
11
100.002
21
-50.3007
0
LINE
8
BLACK
6
CONTINUOUS
10
100.002
20
-50.3007
11
100.115
21
-50.029
0
LINE
8
BLACK
6
CONTINUOUS
10
100.115
20
-50.029
11
100.172
21
-49.7406
0
LINE
8
BLACK
6
CONTINUOUS
10
100.172
20
-49.7406
11
100.172
21
-49.4464
0
LINE
8
BLACK
6
CONTINUOUS
10
100.172
20
-49.4464
11
100.115
21
-49.158
0
LINE
8
BLACK
6
CONTINUOUS
10
100.115
20
-49.158
11
100.002
21
-48.8863
0
LINE
8
BLACK
6
CONTINUOUS
10
100.002
20
-48.8863
11
99.8388
21
-48.6417
0
LINE
8
BLACK
6
CONTINUOUS
10
99.8388
20
-48.6417
11
99.6308
21
-48.4337
0
LINE
8
BLACK
6
CONTINUOUS
10
99.6308
20
-48.4337
11
99.3862
21
-48.2703
0
LINE
8
BLACK
6
CONTINUOUS
10
99.3862
20
-48.2703
11
99.1145
21
-48.1578
0
LINE
8
BLACK
6
CONTINUOUS
10
99.1145
20
-48.1578
11
98.8261
21
-48.1004
0
LINE
8
BLACK
6
CONTINUOUS
10
98.8261
20
-48.1004
11
98.5319
21
-48.1004
0
LINE
8
BLACK
6
CONTINUOUS
10
98.5319
20
-48.1004
11
98.2435
21
-48.1578
0
LINE
8
BLACK
6
CONTINUOUS
10
98.2435
20
-48.1578
11
97.9718
21
-48.2703
0
LINE
8
BLACK
6
CONTINUOUS
10
97.9718
20
-48.2703
11
97.7272
21
-48.4337
0
LINE
8
BLACK
6
CONTINUOUS
10
97.7272
20
-48.4337
11
97.5192
21
-48.6417
0
LINE
8
BLACK
6
CONTINUOUS
10
97.5192
20
-48.6417
11
97.3558
21
-48.8863
0
LINE
8
BLACK
6
CONTINUOUS
10
97.3558
20
-48.8863
11
97.2433
21
-49.158
0
LINE
8
BLACK
6
CONTINUOUS
10
97.2433
20
-49.158
11
97.1859
21
-49.4464
0
LINE
8
BLACK
6
CONTINUOUS
10
97.1859
20
-49.4464
11
97.1859
21
-49.7406
0
LINE
8
BLACK
6
CONTINUOUS
10
97.1859
20
-49.7406
11
97.2433
21
-50.029
  0
ENDSEC
  0
EOF
